<svg width="2341" height="1042" xmlns="http://www.w3.org/2000/svg" xmlns:xlink="http://www.w3.org/1999/xlink" xml:space="preserve" overflow="hidden"><defs><clipPath id="clip0"><rect x="1732" y="361" width="2341" height="1042"/></clipPath><clipPath id="clip1"><rect x="1732" y="361" width="2339" height="1039"/></clipPath><clipPath id="clip2"><rect x="1732" y="361" width="2339" height="1039"/></clipPath><clipPath id="clip3"><rect x="1732" y="361" width="2339" height="1039"/></clipPath><clipPath id="clip4"><rect x="1732" y="361" width="2339" height="1039"/></clipPath><clipPath id="clip5"><rect x="1981" y="531" width="1505" height="669"/></clipPath><clipPath id="clip6"><rect x="1732" y="361" width="2339" height="1039"/></clipPath><clipPath id="clip7"><rect x="1981" y="531" width="1505" height="669"/></clipPath><clipPath id="clip8"><rect x="1732" y="361" width="2339" height="1039"/></clipPath><clipPath id="clip9"><rect x="1981" y="531" width="1505" height="669"/></clipPath><clipPath id="clip10"><rect x="1732" y="361" width="2339" height="1039"/></clipPath><clipPath id="clip11"><rect x="1981" y="531" width="1505" height="669"/></clipPath><clipPath id="clip12"><rect x="1732" y="361" width="2339" height="1039"/></clipPath><clipPath id="clip13"><rect x="1981" y="531" width="1505" height="669"/></clipPath><clipPath id="clip14"><rect x="1732" y="361" width="2339" height="1039"/></clipPath><clipPath id="clip15"><rect x="1981" y="531" width="1505" height="669"/></clipPath><clipPath id="clip16"><rect x="1732" y="361" width="2339" height="1039"/></clipPath><clipPath id="clip17"><rect x="1732" y="361" width="2339" height="1039"/></clipPath><clipPath id="clip18"><rect x="1732" y="361" width="2339" height="1039"/></clipPath><clipPath id="clip19"><rect x="1732" y="361" width="2339" height="1039"/></clipPath><clipPath id="clip20"><rect x="1732" y="361" width="2339" height="1039"/></clipPath><clipPath id="clip21"><rect x="1732" y="361" width="2339" height="1039"/></clipPath><clipPath id="clip22"><rect x="1732" y="361" width="2339" height="1039"/></clipPath><clipPath id="clip23"><rect x="1732" y="361" width="2339" height="1039"/></clipPath><clipPath id="clip24"><rect x="1732" y="361" width="2339" height="1039"/></clipPath><clipPath id="clip25"><rect x="1732" y="361" width="2339" height="1039"/></clipPath><clipPath id="clip26"><rect x="1732" y="361" width="2339" height="1039"/></clipPath><clipPath id="clip27"><rect x="1732" y="361" width="2339" height="1039"/></clipPath><clipPath id="clip28"><rect x="1732" y="361" width="2339" height="1039"/></clipPath><clipPath id="clip29"><rect x="1732" y="361" width="2339" height="1039"/></clipPath><clipPath id="clip30"><rect x="1732" y="361" width="2339" height="1039"/></clipPath><clipPath id="clip31"><rect x="1732" y="361" width="2339" height="1039"/></clipPath><clipPath id="clip32"><rect x="1732" y="361" width="2339" height="1039"/></clipPath><clipPath id="clip33"><rect x="1732" y="361" width="2339" height="1039"/></clipPath><clipPath id="clip34"><rect x="1732" y="361" width="2339" height="1039"/></clipPath><clipPath id="clip35"><rect x="1732" y="361" width="2339" height="1039"/></clipPath><clipPath id="clip36"><rect x="1732" y="361" width="2339" height="1039"/></clipPath><clipPath id="clip37"><rect x="1732" y="361" width="2339" height="1039"/></clipPath><clipPath id="clip38"><rect x="1732" y="361" width="2339" height="1039"/></clipPath><clipPath id="clip39"><rect x="1732" y="361" width="2339" height="1039"/></clipPath><clipPath id="clip40"><rect x="1732" y="361" width="2339" height="1039"/></clipPath><clipPath id="clip41"><rect x="1732" y="361" width="2339" height="1039"/></clipPath><clipPath id="clip42"><rect x="1732" y="361" width="2339" height="1039"/></clipPath><clipPath id="clip43"><rect x="1732" y="361" width="2339" height="1039"/></clipPath><clipPath id="clip44"><rect x="1732" y="361" width="2339" height="1039"/></clipPath><clipPath id="clip45"><rect x="1732" y="361" width="2339" height="1039"/></clipPath><clipPath id="clip46"><rect x="1732" y="361" width="2339" height="1039"/></clipPath><clipPath id="clip47"><rect x="1732" y="361" width="2339" height="1039"/></clipPath><clipPath id="clip48"><rect x="1732" y="361" width="2339" height="1039"/></clipPath><clipPath id="clip49"><rect x="1732" y="361" width="2339" height="1039"/></clipPath><clipPath id="clip50"><rect x="1732" y="361" width="2339" height="1039"/></clipPath><clipPath id="clip51"><rect x="1732" y="361" width="2339" height="1039"/></clipPath><clipPath id="clip52"><rect x="1732" y="361" width="2339" height="1039"/></clipPath><clipPath id="clip53"><rect x="1732" y="361" width="2339" height="1039"/></clipPath><clipPath id="clip54"><rect x="1732" y="361" width="2339" height="1039"/></clipPath></defs><g clip-path="url(#clip0)" transform="translate(-1732 -361)"><rect x="1733" y="362" width="2338" height="1039" fill="#FFFFFF"/><g clip-path="url(#clip1)"><path d="M1981.5 1130.54 3482.5 1130.54M1981.5 1064.54 3482.5 1064.54M1981.5 997.533 3482.5 997.533M1981.5 931.531 3482.5 931.531M1981.5 864.529 3482.5 864.529M1981.5 797.526 3482.5 797.526M1981.5 731.524 3482.5 731.524M1981.5 664.522 3482.5 664.522M1981.5 598.52 3482.5 598.52M1981.5 531.5 3482.5 531.5" stroke="#D9D9D9" stroke-width="3.4375" stroke-linejoin="round" stroke-miterlimit="10" fill="none"/></g><g clip-path="url(#clip2)"><path d="M2281.57 531.5 2281.57 1197.5M2581.58 531.5 2581.58 1197.5M2882.59 531.5 2882.59 1197.5M3182.6 531.5 3182.6 1197.5M3482.5 531.5 3482.5 1197.5" stroke="#D9D9D9" stroke-width="3.4375" stroke-linejoin="round" stroke-miterlimit="10" fill="none"/></g><g clip-path="url(#clip3)"><path d="M0 0 0.000360892 666" stroke="#BFBFBF" stroke-width="3.4375" stroke-linejoin="round" stroke-miterlimit="10" fill="none" fill-rule="evenodd" transform="matrix(1 0 0 -1 1981.5 1197.5)"/></g><g clip-path="url(#clip4)"><path d="M1981.5 1197.5 3482.5 1197.5" stroke="#BFBFBF" stroke-width="3.4375" stroke-linejoin="round" stroke-miterlimit="10" fill="none" fill-rule="evenodd"/></g><g clip-path="url(#clip5)"><path d="M1981.5 1197.7C2081.57 1197.69 2181.63 1197.71 2281.7 1197.68 2381.77 1197.65 2481.83 1197.71 2581.9 1197.51 2681.97 1197.31 2782.03 1198.87 2882.1 1196.51 2982.17 1194.14 3082.23 1212.5 3182.3 1183.33 3282.37 1154.16 3382.43 1075.44 3482.5 1021.5" stroke="#4472C4" stroke-width="6.875" stroke-linecap="round" stroke-linejoin="round" stroke-miterlimit="10" fill="none"/></g><g clip-path="url(#clip6)"><path d="M1993 1197.12C1993 1203.2 1988.07 1208.12 1982 1208.12 1975.92 1208.12 1971 1203.2 1971 1197.12 1971 1191.05 1975.92 1186.13 1982 1186.13 1988.07 1186.13 1993 1191.05 1993 1197.12Z" stroke="#4472C4" stroke-width="3.4375" stroke-linejoin="round" stroke-miterlimit="10" fill="#4472C4"/><path d="M2293 1197.12C2293 1203.2 2288.07 1208.12 2282 1208.12 2275.92 1208.12 2271 1203.2 2271 1197.12 2271 1191.05 2275.92 1186.13 2282 1186.13 2288.07 1186.13 2293 1191.05 2293 1197.12Z" stroke="#4472C4" stroke-width="3.4375" stroke-linejoin="round" stroke-miterlimit="10" fill="#4472C4"/><path d="M2593 1197.12C2593 1203.2 2588.07 1208.12 2582 1208.12 2575.92 1208.12 2571 1203.2 2571 1197.12 2571 1191.05 2575.92 1186.13 2582 1186.13 2588.07 1186.13 2593 1191.05 2593 1197.12Z" stroke="#4472C4" stroke-width="3.4375" stroke-linejoin="round" stroke-miterlimit="10" fill="#4472C4"/><path d="M2894 1196.12C2894 1202.2 2889.07 1207.12 2883 1207.12 2876.92 1207.12 2872 1202.2 2872 1196.12 2872 1190.05 2876.92 1185.13 2883 1185.13 2889.07 1185.13 2894 1190.05 2894 1196.12Z" stroke="#4472C4" stroke-width="3.4375" stroke-linejoin="round" stroke-miterlimit="10" fill="#4472C4"/><path d="M3194 1183.12C3194 1189.2 3189.07 1194.12 3183 1194.12 3176.92 1194.12 3172 1189.2 3172 1183.12 3172 1177.05 3176.92 1172.13 3183 1172.13 3189.07 1172.13 3194 1177.05 3194 1183.12Z" stroke="#4472C4" stroke-width="3.4375" stroke-linejoin="round" stroke-miterlimit="10" fill="#4472C4"/><path d="M3494 1021.12C3494 1027.2 3489.07 1032.12 3483 1032.12 3476.92 1032.12 3472 1027.2 3472 1021.12 3472 1015.05 3476.92 1010.13 3483 1010.13 3489.07 1010.13 3494 1015.05 3494 1021.12Z" stroke="#4472C4" stroke-width="3.4375" stroke-linejoin="round" stroke-miterlimit="10" fill="#4472C4"/></g><g clip-path="url(#clip7)"><path d="M1981.5 1197.38C2081.57 1197.33 2181.63 1197.36 2281.7 1197.23 2381.77 1197.11 2481.83 1197.73 2581.9 1196.63 2681.97 1195.53 2782.03 1202.85 2882.1 1190.63 2982.17 1178.41 3082.23 1222.5 3182.3 1123.31 3282.37 1024.12 3382.43 771.437 3482.5 595.5" stroke="#ED7D31" stroke-width="6.875" stroke-linecap="round" stroke-linejoin="round" stroke-miterlimit="10" fill="none"/></g><g clip-path="url(#clip8)"><path d="M1993 1197.12C1993 1203.2 1988.07 1208.12 1982 1208.12 1975.92 1208.12 1971 1203.2 1971 1197.12 1971 1191.05 1975.92 1186.13 1982 1186.13 1988.07 1186.13 1993 1191.05 1993 1197.12Z" stroke="#ED7D31" stroke-width="3.4375" stroke-linejoin="round" stroke-miterlimit="10" fill="#ED7D31"/><path d="M2293 1197.12C2293 1203.2 2288.07 1208.12 2282 1208.12 2275.92 1208.12 2271 1203.2 2271 1197.12 2271 1191.05 2275.92 1186.13 2282 1186.13 2288.07 1186.13 2293 1191.05 2293 1197.12Z" stroke="#ED7D31" stroke-width="3.4375" stroke-linejoin="round" stroke-miterlimit="10" fill="#ED7D31"/><path d="M2593 1196.12C2593 1202.2 2588.07 1207.12 2582 1207.12 2575.92 1207.12 2571 1202.2 2571 1196.12 2571 1190.05 2575.92 1185.13 2582 1185.13 2588.07 1185.13 2593 1190.05 2593 1196.12Z" stroke="#ED7D31" stroke-width="3.4375" stroke-linejoin="round" stroke-miterlimit="10" fill="#ED7D31"/><path d="M2894 1190.12C2894 1196.2 2889.07 1201.12 2883 1201.12 2876.92 1201.12 2872 1196.2 2872 1190.12 2872 1184.05 2876.92 1179.12 2883 1179.12 2889.07 1179.12 2894 1184.05 2894 1190.12Z" stroke="#ED7D31" stroke-width="3.4375" stroke-linejoin="round" stroke-miterlimit="10" fill="#ED7D31"/><path d="M3194 1123.12C3194 1129.2 3189.07 1134.12 3183 1134.12 3176.92 1134.12 3172 1129.2 3172 1123.12 3172 1117.05 3176.92 1112.12 3183 1112.12 3189.07 1112.12 3194 1117.05 3194 1123.12Z" stroke="#ED7D31" stroke-width="3.4375" stroke-linejoin="round" stroke-miterlimit="10" fill="#ED7D31"/><path d="M3494 595.125C3494 601.199 3489.07 606.124 3483 606.124 3476.92 606.124 3472 601.199 3472 595.125 3472 589.05 3476.92 584.125 3483 584.125 3489.07 584.125 3494 589.05 3494 595.125Z" stroke="#ED7D31" stroke-width="3.4375" stroke-linejoin="round" stroke-miterlimit="10" fill="#ED7D31"/></g><g clip-path="url(#clip9)"><path d="M1981.5 1197.71C2081.57 1197.69 2181.63 1197.69 2281.7 1197.64 2381.77 1197.58 2481.83 1197.84 2581.9 1197.36 2681.97 1196.88 2782.03 1200.23 2882.1 1194.75 2982.17 1189.27 3082.23 1212.5 3182.3 1164.46 3282.37 1116.42 3382.43 992.486 3482.5 906.5" stroke="#A5A5A5" stroke-width="6.875" stroke-linecap="round" stroke-linejoin="round" stroke-miterlimit="10" fill="none"/></g><g clip-path="url(#clip10)"><path d="M1993 1197.12C1993 1203.2 1988.07 1208.12 1982 1208.12 1975.92 1208.12 1971 1203.2 1971 1197.12 1971 1191.05 1975.92 1186.13 1982 1186.13 1988.07 1186.13 1993 1191.05 1993 1197.12Z" stroke="#A5A5A5" stroke-width="3.4375" stroke-linejoin="round" stroke-miterlimit="10" fill="#A5A5A5"/><path d="M2293 1197.12C2293 1203.2 2288.07 1208.12 2282 1208.12 2275.92 1208.12 2271 1203.2 2271 1197.12 2271 1191.05 2275.92 1186.13 2282 1186.13 2288.07 1186.13 2293 1191.05 2293 1197.12Z" stroke="#A5A5A5" stroke-width="3.4375" stroke-linejoin="round" stroke-miterlimit="10" fill="#A5A5A5"/><path d="M2593 1197.12C2593 1203.2 2588.07 1208.12 2582 1208.12 2575.92 1208.12 2571 1203.2 2571 1197.12 2571 1191.05 2575.92 1186.13 2582 1186.13 2588.07 1186.13 2593 1191.05 2593 1197.12Z" stroke="#A5A5A5" stroke-width="3.4375" stroke-linejoin="round" stroke-miterlimit="10" fill="#A5A5A5"/><path d="M2894 1194.12C2894 1200.2 2889.07 1205.12 2883 1205.12 2876.92 1205.12 2872 1200.2 2872 1194.12 2872 1188.05 2876.92 1183.13 2883 1183.13 2889.07 1183.13 2894 1188.05 2894 1194.12Z" stroke="#A5A5A5" stroke-width="3.4375" stroke-linejoin="round" stroke-miterlimit="10" fill="#A5A5A5"/><path d="M3194 1164.12C3194 1170.2 3189.07 1175.12 3183 1175.12 3176.92 1175.12 3172 1170.2 3172 1164.12 3172 1158.05 3176.92 1153.13 3183 1153.13 3189.07 1153.13 3194 1158.05 3194 1164.12Z" stroke="#A5A5A5" stroke-width="3.4375" stroke-linejoin="round" stroke-miterlimit="10" fill="#A5A5A5"/><path d="M3494 906.125C3494 912.2 3489.07 917.124 3483 917.124 3476.92 917.124 3472 912.2 3472 906.125 3472 900.05 3476.92 895.125 3483 895.125 3489.07 895.125 3494 900.05 3494 906.125Z" stroke="#A5A5A5" stroke-width="3.4375" stroke-linejoin="round" stroke-miterlimit="10" fill="#A5A5A5"/></g><g clip-path="url(#clip11)"><path d="M1981.5 1197C2081.57 1196.98 2181.63 1196.98 2281.7 1196.96 2381.77 1196.94 2481.83 1197.1 2581.9 1196.86 2681.97 1196.61 2782.03 1198.06 2882.1 1195.48 2982.17 1192.89 3082.23 1204.5 3182.3 1181.34 3282.37 1158.17 3382.43 1098.11 3482.5 1056.5" stroke="#FFC000" stroke-width="6.875" stroke-linecap="round" stroke-linejoin="round" stroke-miterlimit="10" fill="none"/></g><g clip-path="url(#clip12)"><path d="M1993 1197.12C1993 1203.2 1988.07 1208.12 1982 1208.12 1975.92 1208.12 1971 1203.2 1971 1197.12 1971 1191.05 1975.92 1186.13 1982 1186.13 1988.07 1186.13 1993 1191.05 1993 1197.12Z" stroke="#FFC000" stroke-width="3.4375" stroke-linejoin="round" stroke-miterlimit="10" fill="#FFC000"/><path d="M2293 1197.12C2293 1203.2 2288.07 1208.12 2282 1208.12 2275.92 1208.12 2271 1203.2 2271 1197.12 2271 1191.05 2275.92 1186.13 2282 1186.13 2288.07 1186.13 2293 1191.05 2293 1197.12Z" stroke="#FFC000" stroke-width="3.4375" stroke-linejoin="round" stroke-miterlimit="10" fill="#FFC000"/><path d="M2593 1197.12C2593 1203.2 2588.07 1208.12 2582 1208.12 2575.92 1208.12 2571 1203.2 2571 1197.12 2571 1191.05 2575.92 1186.13 2582 1186.13 2588.07 1186.13 2593 1191.05 2593 1197.12Z" stroke="#FFC000" stroke-width="3.4375" stroke-linejoin="round" stroke-miterlimit="10" fill="#FFC000"/><path d="M2894 1195.12C2894 1201.2 2889.07 1206.12 2883 1206.12 2876.92 1206.12 2872 1201.2 2872 1195.12 2872 1189.05 2876.92 1184.13 2883 1184.13 2889.07 1184.13 2894 1189.05 2894 1195.12Z" stroke="#FFC000" stroke-width="3.4375" stroke-linejoin="round" stroke-miterlimit="10" fill="#FFC000"/><path d="M3194 1181.12C3194 1187.2 3189.07 1192.12 3183 1192.12 3176.92 1192.12 3172 1187.2 3172 1181.12 3172 1175.05 3176.92 1170.12 3183 1170.12 3189.07 1170.12 3194 1175.05 3194 1181.12Z" stroke="#FFC000" stroke-width="3.4375" stroke-linejoin="round" stroke-miterlimit="10" fill="#FFC000"/><path d="M3494 1056.12C3494 1062.2 3489.07 1067.12 3483 1067.12 3476.92 1067.12 3472 1062.2 3472 1056.12 3472 1050.05 3476.92 1045.13 3483 1045.13 3489.07 1045.13 3494 1050.05 3494 1056.12Z" stroke="#FFC000" stroke-width="3.4375" stroke-linejoin="round" stroke-miterlimit="10" fill="#FFC000"/></g><g clip-path="url(#clip13)"><path d="M1981.5 1197.17C2081.57 1197.17 2181.63 1197.17 2281.7 1197.15 2381.77 1197.14 2481.83 1197.23 2581.9 1197.08 2681.97 1196.94 2782.03 1197.68 2882.1 1196.28 2982.17 1194.89 3082.23 1201.5 3182.3 1188.7 3282.37 1175.91 3382.43 1142.57 3482.5 1119.5" stroke="#5B9BD5" stroke-width="6.875" stroke-linecap="round" stroke-linejoin="round" stroke-miterlimit="10" fill="none"/></g><g clip-path="url(#clip14)"><path d="M1993 1197.12C1993 1203.2 1988.07 1208.12 1982 1208.12 1975.92 1208.12 1971 1203.2 1971 1197.12 1971 1191.05 1975.92 1186.13 1982 1186.13 1988.07 1186.13 1993 1191.05 1993 1197.12Z" stroke="#5B9BD5" stroke-width="3.4375" stroke-linejoin="round" stroke-miterlimit="10" fill="#5B9BD5"/><path d="M2293 1197.12C2293 1203.2 2288.07 1208.12 2282 1208.12 2275.92 1208.12 2271 1203.2 2271 1197.12 2271 1191.05 2275.92 1186.13 2282 1186.13 2288.07 1186.13 2293 1191.05 2293 1197.12Z" stroke="#5B9BD5" stroke-width="3.4375" stroke-linejoin="round" stroke-miterlimit="10" fill="#5B9BD5"/><path d="M2593 1197.12C2593 1203.2 2588.07 1208.12 2582 1208.12 2575.92 1208.12 2571 1203.2 2571 1197.12 2571 1191.05 2575.92 1186.13 2582 1186.13 2588.07 1186.13 2593 1191.05 2593 1197.12Z" stroke="#5B9BD5" stroke-width="3.4375" stroke-linejoin="round" stroke-miterlimit="10" fill="#5B9BD5"/><path d="M2894 1196.12C2894 1202.2 2889.07 1207.12 2883 1207.12 2876.92 1207.12 2872 1202.2 2872 1196.12 2872 1190.05 2876.92 1185.13 2883 1185.13 2889.07 1185.13 2894 1190.05 2894 1196.12Z" stroke="#5B9BD5" stroke-width="3.4375" stroke-linejoin="round" stroke-miterlimit="10" fill="#5B9BD5"/><path d="M3194 1188.12C3194 1194.2 3189.07 1199.12 3183 1199.12 3176.92 1199.12 3172 1194.2 3172 1188.12 3172 1182.05 3176.92 1177.13 3183 1177.13 3189.07 1177.13 3194 1182.05 3194 1188.12Z" stroke="#5B9BD5" stroke-width="3.4375" stroke-linejoin="round" stroke-miterlimit="10" fill="#5B9BD5"/><path d="M3494 1119.12C3494 1125.2 3489.07 1130.12 3483 1130.12 3476.92 1130.12 3472 1125.2 3472 1119.12 3472 1113.05 3476.92 1108.13 3483 1108.13 3489.07 1108.13 3494 1113.05 3494 1119.12Z" stroke="#5B9BD5" stroke-width="3.4375" stroke-linejoin="round" stroke-miterlimit="10" fill="#5B9BD5"/></g><g clip-path="url(#clip15)"><path d="M1981.5 1197C2081.57 1197.04 2181.63 1197.12 2281.7 1197.13 2381.77 1197.15 2481.83 1197.15 2581.9 1197.09 2681.97 1197.02 2782.03 1197.43 2882.1 1196.72 2982.17 1196 3082.23 1199.5 3182.3 1192.8 3282.37 1186.09 3382.43 1168.6 3482.5 1156.5" stroke="#70AD47" stroke-width="6.875" stroke-linecap="round" stroke-linejoin="round" stroke-miterlimit="10" fill="none"/></g><g clip-path="url(#clip16)"><path d="M1993 1197.12C1993 1203.2 1988.07 1208.12 1982 1208.12 1975.92 1208.12 1971 1203.2 1971 1197.12 1971 1191.05 1975.92 1186.13 1982 1186.13 1988.07 1186.13 1993 1191.05 1993 1197.12Z" stroke="#70AD47" stroke-width="3.4375" stroke-linejoin="round" stroke-miterlimit="10" fill="#70AD47"/><path d="M2293 1197.12C2293 1203.2 2288.07 1208.12 2282 1208.12 2275.92 1208.12 2271 1203.2 2271 1197.12 2271 1191.05 2275.92 1186.13 2282 1186.13 2288.07 1186.13 2293 1191.05 2293 1197.12Z" stroke="#70AD47" stroke-width="3.4375" stroke-linejoin="round" stroke-miterlimit="10" fill="#70AD47"/><path d="M2593 1197.12C2593 1203.2 2588.07 1208.12 2582 1208.12 2575.92 1208.12 2571 1203.2 2571 1197.12 2571 1191.05 2575.92 1186.13 2582 1186.13 2588.07 1186.13 2593 1191.05 2593 1197.12Z" stroke="#70AD47" stroke-width="3.4375" stroke-linejoin="round" stroke-miterlimit="10" fill="#70AD47"/><path d="M2894 1196.12C2894 1202.2 2889.07 1207.12 2883 1207.12 2876.92 1207.12 2872 1202.2 2872 1196.12 2872 1190.05 2876.92 1185.13 2883 1185.13 2889.07 1185.13 2894 1190.05 2894 1196.12Z" stroke="#70AD47" stroke-width="3.4375" stroke-linejoin="round" stroke-miterlimit="10" fill="#70AD47"/><path d="M3194 1192.12C3194 1198.2 3189.07 1203.12 3183 1203.12 3176.92 1203.12 3172 1198.2 3172 1192.12 3172 1186.05 3176.92 1181.12 3183 1181.12 3189.07 1181.12 3194 1186.05 3194 1192.12Z" stroke="#70AD47" stroke-width="3.4375" stroke-linejoin="round" stroke-miterlimit="10" fill="#70AD47"/><path d="M3494 1156.12C3494 1162.2 3489.07 1167.12 3483 1167.12 3476.92 1167.12 3472 1162.2 3472 1156.12 3472 1150.05 3476.92 1145.12 3483 1145.12 3489.07 1145.12 3494 1150.05 3494 1156.12Z" stroke="#70AD47" stroke-width="3.4375" stroke-linejoin="round" stroke-miterlimit="10" fill="#70AD47"/></g><g clip-path="url(#clip17)"><text fill="#595959" font-family="Calibri,Calibri_MSFontService,sans-serif" font-weight="400" font-size="41" transform="matrix(1 0 0 1 1922.18 1209)">0</text></g><g clip-path="url(#clip18)"><text fill="#595959" font-family="Calibri,Calibri_MSFontService,sans-serif" font-weight="400" font-size="41" transform="matrix(1 0 0 1 1880.38 1142)">200</text></g><g clip-path="url(#clip19)"><text fill="#595959" font-family="Calibri,Calibri_MSFontService,sans-serif" font-weight="400" font-size="41" transform="matrix(1 0 0 1 1880.38 1076)">400</text></g><g clip-path="url(#clip20)"><text fill="#595959" font-family="Calibri,Calibri_MSFontService,sans-serif" font-weight="400" font-size="41" transform="matrix(1 0 0 1 1880.38 1009)">600</text></g><g clip-path="url(#clip21)"><text fill="#595959" font-family="Calibri,Calibri_MSFontService,sans-serif" font-weight="400" font-size="41" transform="matrix(1 0 0 1 1880.38 943)">800</text></g><g clip-path="url(#clip22)"><text fill="#595959" font-family="Calibri,Calibri_MSFontService,sans-serif" font-weight="400" font-size="41" transform="matrix(1 0 0 1 1859.48 876)">1000</text></g><g clip-path="url(#clip23)"><text fill="#595959" font-family="Calibri,Calibri_MSFontService,sans-serif" font-weight="400" font-size="41" transform="matrix(1 0 0 1 1859.48 810)">1200</text></g><g clip-path="url(#clip24)"><text fill="#595959" font-family="Calibri,Calibri_MSFontService,sans-serif" font-weight="400" font-size="41" transform="matrix(1 0 0 1 1859.48 743)">1400</text></g><g clip-path="url(#clip25)"><text fill="#595959" font-family="Calibri,Calibri_MSFontService,sans-serif" font-weight="400" font-size="41" transform="matrix(1 0 0 1 1859.48 676)">1600</text></g><g clip-path="url(#clip26)"><text fill="#595959" font-family="Calibri,Calibri_MSFontService,sans-serif" font-weight="400" font-size="41" transform="matrix(1 0 0 1 1859.48 610)">1800</text></g><g clip-path="url(#clip27)"><text fill="#595959" font-family="Calibri,Calibri_MSFontService,sans-serif" font-weight="400" font-size="41" transform="matrix(1 0 0 1 1859.48 543)">2000</text></g><g clip-path="url(#clip28)"><text fill="#595959" font-family="Calibri,Calibri_MSFontService,sans-serif" font-weight="400" font-size="41" transform="matrix(1 0 0 1 1960.45 1263)">10</text></g><g clip-path="url(#clip29)"><text fill="#595959" font-family="Calibri,Calibri_MSFontService,sans-serif" font-weight="400" font-size="41" transform="matrix(1 0 0 1 2250.27 1263)">100</text></g><g clip-path="url(#clip30)"><text fill="#595959" font-family="Calibri,Calibri_MSFontService,sans-serif" font-weight="400" font-size="41" transform="matrix(1 0 0 1 2540.09 1263)">1000</text></g><g clip-path="url(#clip31)"><text fill="#595959" font-family="Calibri,Calibri_MSFontService,sans-serif" font-weight="400" font-size="41" transform="matrix(1 0 0 1 2829.91 1263)">10000</text></g><g clip-path="url(#clip32)"><text fill="#595959" font-family="Calibri,Calibri_MSFontService,sans-serif" font-weight="400" font-size="41" transform="matrix(1 0 0 1 3119.73 1263)">100000</text></g><g clip-path="url(#clip33)"><text fill="#595959" font-family="Calibri,Calibri_MSFontService,sans-serif" font-weight="400" font-size="41" transform="matrix(1 0 0 1 3409.55 1263)">1000000</text></g><g clip-path="url(#clip34)"><text fill="#595959" font-family="Calibri,Calibri_MSFontService,sans-serif" font-weight="400" font-size="46" transform="matrix(6.12323e-17 -1 1 6.12323e-17 1833.79 973)">Temps [ms]</text></g><g clip-path="url(#clip35)"><text fill="#595959" font-family="Calibri,Calibri_MSFontService,sans-serif" font-weight="400" font-size="46" transform="matrix(1 0 0 1 2662.39 1332)">Valeurs</text></g><g clip-path="url(#clip36)"><text fill="#595959" font-family="Calibri,Calibri_MSFontService,sans-serif" font-weight="400" font-size="64" transform="matrix(1 0 0 1 2678.78 457)">Vecteur aléatoire</text></g><g clip-path="url(#clip37)"><path d="M3627.5 747.5 3715.5 747.501" stroke="#4472C4" stroke-width="6.875" stroke-linecap="round" stroke-linejoin="round" stroke-miterlimit="10" fill="none" fill-rule="evenodd"/></g><g clip-path="url(#clip38)"><path d="M3682 747C3682 753.075 3677.07 758 3671 758 3664.93 758 3660 753.075 3660 747 3660 740.925 3664.93 736 3671 736 3677.07 736 3682 740.925 3682 747Z" stroke="#4472C4" stroke-width="3.4375" stroke-linejoin="round" stroke-miterlimit="10" fill="#4472C4"/></g><g clip-path="url(#clip39)"><text fill="#595959" font-family="Calibri,Calibri_MSFontService,sans-serif" font-weight="400" font-size="41" transform="matrix(1 0 0 1 3724.86 759)">TriRapide</text></g><g clip-path="url(#clip40)"><path d="M3627.5 825.5 3715.5 825.5" stroke="#ED7D31" stroke-width="6.875" stroke-linecap="round" stroke-linejoin="round" stroke-miterlimit="10" fill="none" fill-rule="evenodd"/></g><g clip-path="url(#clip41)"><path d="M3682 825.499C3682 831.31 3677.07 836.021 3671 836.021 3664.93 836.021 3660 831.31 3660 825.499 3660 819.689 3664.93 814.978 3671 814.978 3677.07 814.978 3682 819.689 3682 825.499Z" stroke="#ED7D31" stroke-width="3.4375" stroke-linejoin="round" stroke-miterlimit="10" fill="#ED7D31"/></g><g clip-path="url(#clip42)"><text fill="#595959" font-family="Calibri,Calibri_MSFontService,sans-serif" font-weight="400" font-size="41" transform="matrix(1 0 0 1 3724.86 837)">TriParBase 1 bit</text></g><g clip-path="url(#clip43)"><path d="M3627.5 902.5 3715.5 902.5" stroke="#A5A5A5" stroke-width="6.875" stroke-linecap="round" stroke-linejoin="round" stroke-miterlimit="10" fill="none" fill-rule="evenodd"/></g><g clip-path="url(#clip44)"><path d="M3682 902.499C3682 908.31 3677.07 913.021 3671 913.021 3664.93 913.021 3660 908.31 3660 902.499 3660 896.689 3664.93 891.978 3671 891.978 3677.07 891.978 3682 896.689 3682 902.499Z" stroke="#A5A5A5" stroke-width="3.4375" stroke-linejoin="round" stroke-miterlimit="10" fill="#A5A5A5"/></g><g clip-path="url(#clip45)"><text fill="#595959" font-family="Calibri,Calibri_MSFontService,sans-serif" font-weight="400" font-size="41" transform="matrix(1 0 0 1 3724.86 914)">TriParBase 2 bits</text></g><g clip-path="url(#clip46)"><path d="M3627.5 979.5 3715.5 979.5" stroke="#FFC000" stroke-width="6.875" stroke-linecap="round" stroke-linejoin="round" stroke-miterlimit="10" fill="none" fill-rule="evenodd"/></g><g clip-path="url(#clip47)"><path d="M3682 979.499C3682 985.31 3677.07 990.021 3671 990.021 3664.93 990.021 3660 985.31 3660 979.499 3660 973.689 3664.93 968.978 3671 968.978 3677.07 968.978 3682 973.689 3682 979.499Z" stroke="#FFC000" stroke-width="3.4375" stroke-linejoin="round" stroke-miterlimit="10" fill="#FFC000"/></g><g clip-path="url(#clip48)"><text fill="#595959" font-family="Calibri,Calibri_MSFontService,sans-serif" font-weight="400" font-size="41" transform="matrix(1 0 0 1 3724.86 991)">TriParBase 4 bits</text></g><g clip-path="url(#clip49)"><path d="M3627.5 1057.5 3715.5 1057.5" stroke="#5B9BD5" stroke-width="6.875" stroke-linecap="round" stroke-linejoin="round" stroke-miterlimit="10" fill="none" fill-rule="evenodd"/></g><g clip-path="url(#clip50)"><path d="M3682 1057C3682 1063.07 3677.07 1068 3671 1068 3664.93 1068 3660 1063.07 3660 1057 3660 1050.92 3664.93 1046 3671 1046 3677.07 1046 3682 1050.92 3682 1057Z" stroke="#5B9BD5" stroke-width="3.4375" stroke-linejoin="round" stroke-miterlimit="10" fill="#5B9BD5"/></g><g clip-path="url(#clip51)"><text fill="#595959" font-family="Calibri,Calibri_MSFontService,sans-serif" font-weight="400" font-size="41" transform="matrix(1 0 0 1 3724.86 1069)">TriParBase 8 bits</text></g><g clip-path="url(#clip52)"><path d="M3627.5 1134.5 3715.5 1134.5" stroke="#70AD47" stroke-width="6.875" stroke-linecap="round" stroke-linejoin="round" stroke-miterlimit="10" fill="none" fill-rule="evenodd"/></g><g clip-path="url(#clip53)"><path d="M3682 1134C3682 1140.07 3677.07 1145 3671 1145 3664.93 1145 3660 1140.07 3660 1134 3660 1127.92 3664.93 1123 3671 1123 3677.07 1123 3682 1127.92 3682 1134Z" stroke="#70AD47" stroke-width="3.4375" stroke-linejoin="round" stroke-miterlimit="10" fill="#70AD47"/></g><g clip-path="url(#clip54)"><text fill="#595959" font-family="Calibri,Calibri_MSFontService,sans-serif" font-weight="400" font-size="41" transform="matrix(1 0 0 1 3724.86 1146)">TriParBase 16 bits</text></g><rect x="1733.5" y="362.5" width="2338" height="1039" stroke="#D9D9D9" stroke-width="3.4375" stroke-linejoin="round" stroke-miterlimit="10" fill="none"/></g></svg>