<svg width="2341" height="1042" xmlns="http://www.w3.org/2000/svg" xmlns:xlink="http://www.w3.org/1999/xlink" xml:space="preserve" overflow="hidden"><defs><clipPath id="clip0"><rect x="544" y="361" width="2341" height="1042"/></clipPath><clipPath id="clip1"><rect x="544" y="361" width="2339" height="1039"/></clipPath><clipPath id="clip2"><rect x="544" y="361" width="2339" height="1039"/></clipPath><clipPath id="clip3"><rect x="544" y="361" width="2339" height="1039"/></clipPath><clipPath id="clip4"><rect x="544" y="361" width="2339" height="1039"/></clipPath><clipPath id="clip5"><rect x="793" y="531" width="1505" height="669"/></clipPath><clipPath id="clip6"><rect x="544" y="361" width="2339" height="1039"/></clipPath><clipPath id="clip7"><rect x="793" y="531" width="1505" height="669"/></clipPath><clipPath id="clip8"><rect x="544" y="361" width="2339" height="1039"/></clipPath><clipPath id="clip9"><rect x="793" y="531" width="1505" height="669"/></clipPath><clipPath id="clip10"><rect x="544" y="361" width="2339" height="1039"/></clipPath><clipPath id="clip11"><rect x="793" y="531" width="1505" height="669"/></clipPath><clipPath id="clip12"><rect x="544" y="361" width="2339" height="1039"/></clipPath><clipPath id="clip13"><rect x="793" y="531" width="1505" height="669"/></clipPath><clipPath id="clip14"><rect x="544" y="361" width="2339" height="1039"/></clipPath><clipPath id="clip15"><rect x="793" y="531" width="1505" height="669"/></clipPath><clipPath id="clip16"><rect x="544" y="361" width="2339" height="1039"/></clipPath><clipPath id="clip17"><rect x="544" y="361" width="2339" height="1039"/></clipPath><clipPath id="clip18"><rect x="544" y="361" width="2339" height="1039"/></clipPath><clipPath id="clip19"><rect x="544" y="361" width="2339" height="1039"/></clipPath><clipPath id="clip20"><rect x="544" y="361" width="2339" height="1039"/></clipPath><clipPath id="clip21"><rect x="544" y="361" width="2339" height="1039"/></clipPath><clipPath id="clip22"><rect x="544" y="361" width="2339" height="1039"/></clipPath><clipPath id="clip23"><rect x="544" y="361" width="2339" height="1039"/></clipPath><clipPath id="clip24"><rect x="544" y="361" width="2339" height="1039"/></clipPath><clipPath id="clip25"><rect x="544" y="361" width="2339" height="1039"/></clipPath><clipPath id="clip26"><rect x="544" y="361" width="2339" height="1039"/></clipPath><clipPath id="clip27"><rect x="544" y="361" width="2339" height="1039"/></clipPath><clipPath id="clip28"><rect x="544" y="361" width="2339" height="1039"/></clipPath><clipPath id="clip29"><rect x="544" y="361" width="2339" height="1039"/></clipPath><clipPath id="clip30"><rect x="544" y="361" width="2339" height="1039"/></clipPath><clipPath id="clip31"><rect x="544" y="361" width="2339" height="1039"/></clipPath><clipPath id="clip32"><rect x="544" y="361" width="2339" height="1039"/></clipPath><clipPath id="clip33"><rect x="544" y="361" width="2339" height="1039"/></clipPath><clipPath id="clip34"><rect x="544" y="361" width="2339" height="1039"/></clipPath><clipPath id="clip35"><rect x="544" y="361" width="2339" height="1039"/></clipPath><clipPath id="clip36"><rect x="544" y="361" width="2339" height="1039"/></clipPath><clipPath id="clip37"><rect x="544" y="361" width="2339" height="1039"/></clipPath><clipPath id="clip38"><rect x="544" y="361" width="2339" height="1039"/></clipPath><clipPath id="clip39"><rect x="544" y="361" width="2339" height="1039"/></clipPath><clipPath id="clip40"><rect x="544" y="361" width="2339" height="1039"/></clipPath><clipPath id="clip41"><rect x="544" y="361" width="2339" height="1039"/></clipPath><clipPath id="clip42"><rect x="544" y="361" width="2339" height="1039"/></clipPath><clipPath id="clip43"><rect x="544" y="361" width="2339" height="1039"/></clipPath><clipPath id="clip44"><rect x="544" y="361" width="2339" height="1039"/></clipPath><clipPath id="clip45"><rect x="544" y="361" width="2339" height="1039"/></clipPath><clipPath id="clip46"><rect x="544" y="361" width="2339" height="1039"/></clipPath><clipPath id="clip47"><rect x="544" y="361" width="2339" height="1039"/></clipPath><clipPath id="clip48"><rect x="544" y="361" width="2339" height="1039"/></clipPath><clipPath id="clip49"><rect x="544" y="361" width="2339" height="1039"/></clipPath><clipPath id="clip50"><rect x="544" y="361" width="2339" height="1039"/></clipPath><clipPath id="clip51"><rect x="544" y="361" width="2339" height="1039"/></clipPath><clipPath id="clip52"><rect x="544" y="361" width="2339" height="1039"/></clipPath><clipPath id="clip53"><rect x="544" y="361" width="2339" height="1039"/></clipPath><clipPath id="clip54"><rect x="544" y="361" width="2339" height="1039"/></clipPath></defs><g clip-path="url(#clip0)" transform="translate(-544 -361)"><rect x="545" y="362" width="2338" height="1039" fill="#FFFFFF"/><g clip-path="url(#clip1)"><path d="M793.5 1130.54 2294.5 1130.54M793.5 1064.54 2294.5 1064.54M793.5 997.533 2294.5 997.533M793.5 931.531 2294.5 931.531M793.5 864.529 2294.5 864.529M793.5 797.526 2294.5 797.526M793.5 731.524 2294.5 731.524M793.5 664.522 2294.5 664.522M793.5 598.52 2294.5 598.52M793.5 531.5 2294.5 531.5" stroke="#D9D9D9" stroke-width="3.4375" stroke-linejoin="round" stroke-miterlimit="10" fill="none"/></g><g clip-path="url(#clip2)"><path d="M1093.54 531.5 1093.54 1197.5M1393.55 531.5 1393.55 1197.5M1694.56 531.5 1694.56 1197.5M1994.57 531.5 1994.57 1197.5M2294.5 531.5 2294.5 1197.5" stroke="#D9D9D9" stroke-width="3.4375" stroke-linejoin="round" stroke-miterlimit="10" fill="none"/></g><g clip-path="url(#clip3)"><path d="M0 0 0.000360892 666" stroke="#BFBFBF" stroke-width="3.4375" stroke-linejoin="round" stroke-miterlimit="10" fill="none" fill-rule="evenodd" transform="matrix(1 0 0 -1 793.5 1197.5)"/></g><g clip-path="url(#clip4)"><path d="M793.5 1197.5 2294.5 1197.5" stroke="#BFBFBF" stroke-width="3.4375" stroke-linejoin="round" stroke-miterlimit="10" fill="none" fill-rule="evenodd"/></g><g clip-path="url(#clip5)"><path d="M793.5 1197.22C893.567 1197.21 993.633 1197.22 1093.7 1197.21 1193.77 1197.2 1293.83 1197.3 1393.9 1197.14 1493.97 1196.99 1594.03 1198.11 1694.1 1196.26 1794.17 1194.41 1894.23 1203.5 1994.3 1186.04 2094.37 1168.58 2194.43 1123.01 2294.5 1091.5" stroke="#4472C4" stroke-width="6.875" stroke-linecap="round" stroke-linejoin="round" stroke-miterlimit="10" fill="none"/></g><g clip-path="url(#clip6)"><path d="M804.999 1197.12C804.999 1203.2 800.074 1208.12 793.999 1208.12 787.924 1208.12 783 1203.2 783 1197.12 783 1191.05 787.924 1186.13 793.999 1186.13 800.074 1186.13 804.999 1191.05 804.999 1197.12Z" stroke="#4472C4" stroke-width="3.4375" stroke-linejoin="round" stroke-miterlimit="10" fill="#4472C4"/><path d="M1105 1197.12C1105 1203.2 1100.07 1208.12 1094 1208.12 1087.92 1208.12 1083 1203.2 1083 1197.12 1083 1191.05 1087.92 1186.13 1094 1186.13 1100.07 1186.13 1105 1191.05 1105 1197.12Z" stroke="#4472C4" stroke-width="3.4375" stroke-linejoin="round" stroke-miterlimit="10" fill="#4472C4"/><path d="M1405 1197.12C1405 1203.2 1400.07 1208.12 1394 1208.12 1387.92 1208.12 1383 1203.2 1383 1197.12 1383 1191.05 1387.92 1186.13 1394 1186.13 1400.07 1186.13 1405 1191.05 1405 1197.12Z" stroke="#4472C4" stroke-width="3.4375" stroke-linejoin="round" stroke-miterlimit="10" fill="#4472C4"/><path d="M1706 1196.12C1706 1202.2 1701.07 1207.12 1695 1207.12 1688.92 1207.12 1684 1202.2 1684 1196.12 1684 1190.05 1688.92 1185.13 1695 1185.13 1701.07 1185.13 1706 1190.05 1706 1196.12Z" stroke="#4472C4" stroke-width="3.4375" stroke-linejoin="round" stroke-miterlimit="10" fill="#4472C4"/><path d="M2006 1186.12C2006 1192.2 2001.07 1197.12 1995 1197.12 1988.92 1197.12 1984 1192.2 1984 1186.12 1984 1180.05 1988.92 1175.13 1995 1175.13 2001.07 1175.13 2006 1180.05 2006 1186.12Z" stroke="#4472C4" stroke-width="3.4375" stroke-linejoin="round" stroke-miterlimit="10" fill="#4472C4"/><path d="M2306 1091.12C2306 1097.2 2301.07 1102.12 2295 1102.12 2288.92 1102.12 2284 1097.2 2284 1091.12 2284 1085.05 2288.92 1080.12 2295 1080.12 2301.07 1080.12 2306 1085.05 2306 1091.12Z" stroke="#4472C4" stroke-width="3.4375" stroke-linejoin="round" stroke-miterlimit="10" fill="#4472C4"/></g><g clip-path="url(#clip7)"><path d="M793.5 1197.91C893.567 1197.89 993.633 1197.98 1093.7 1197.85 1193.77 1197.71 1293.83 1198.31 1393.9 1197.09 1493.97 1195.86 1594.03 1202.01 1694.1 1190.49 1794.17 1178.98 1894.23 1231.5 1994.3 1128 2094.37 1024.5 2194.43 755.667 2294.5 569.5" stroke="#ED7D31" stroke-width="6.875" stroke-linecap="round" stroke-linejoin="round" stroke-miterlimit="10" fill="none"/></g><g clip-path="url(#clip8)"><path d="M804.999 1197.12C804.999 1203.2 800.074 1208.12 793.999 1208.12 787.924 1208.12 783 1203.2 783 1197.12 783 1191.05 787.924 1186.13 793.999 1186.13 800.074 1186.13 804.999 1191.05 804.999 1197.12Z" stroke="#ED7D31" stroke-width="3.4375" stroke-linejoin="round" stroke-miterlimit="10" fill="#ED7D31"/><path d="M1105 1197.12C1105 1203.2 1100.07 1208.12 1094 1208.12 1087.92 1208.12 1083 1203.2 1083 1197.12 1083 1191.05 1087.92 1186.13 1094 1186.13 1100.07 1186.13 1105 1191.05 1105 1197.12Z" stroke="#ED7D31" stroke-width="3.4375" stroke-linejoin="round" stroke-miterlimit="10" fill="#ED7D31"/><path d="M1405 1196.12C1405 1202.2 1400.07 1207.12 1394 1207.12 1387.92 1207.12 1383 1202.2 1383 1196.12 1383 1190.05 1387.92 1185.13 1394 1185.13 1400.07 1185.13 1405 1190.05 1405 1196.12Z" stroke="#ED7D31" stroke-width="3.4375" stroke-linejoin="round" stroke-miterlimit="10" fill="#ED7D31"/><path d="M1706 1190.12C1706 1196.2 1701.07 1201.12 1695 1201.12 1688.92 1201.12 1684 1196.2 1684 1190.12 1684 1184.05 1688.92 1179.12 1695 1179.12 1701.07 1179.12 1706 1184.05 1706 1190.12Z" stroke="#ED7D31" stroke-width="3.4375" stroke-linejoin="round" stroke-miterlimit="10" fill="#ED7D31"/><path d="M2006 1127.12C2006 1133.2 2001.07 1138.12 1995 1138.12 1988.92 1138.12 1984 1133.2 1984 1127.12 1984 1121.05 1988.92 1116.13 1995 1116.13 2001.07 1116.13 2006 1121.05 2006 1127.12Z" stroke="#ED7D31" stroke-width="3.4375" stroke-linejoin="round" stroke-miterlimit="10" fill="#ED7D31"/><path d="M2306 569.125C2306 575.2 2301.07 580.124 2295 580.124 2288.92 580.124 2284 575.2 2284 569.125 2284 563.05 2288.92 558.125 2295 558.125 2301.07 558.125 2306 563.05 2306 569.125Z" stroke="#ED7D31" stroke-width="3.4375" stroke-linejoin="round" stroke-miterlimit="10" fill="#ED7D31"/></g><g clip-path="url(#clip9)"><path d="M793.5 1197.2C893.567 1197.19 993.633 1197.25 1093.7 1197.17 1193.77 1197.08 1293.83 1197.34 1393.9 1196.69 1493.97 1196.03 1594.03 1198.47 1694.1 1193.25 1794.17 1188.03 1894.23 1216.5 1994.3 1165.37 2094.37 1114.25 2194.43 979.458 2294.5 886.5" stroke="#A5A5A5" stroke-width="6.875" stroke-linecap="round" stroke-linejoin="round" stroke-miterlimit="10" fill="none"/></g><g clip-path="url(#clip10)"><path d="M804.999 1197.12C804.999 1203.2 800.074 1208.12 793.999 1208.12 787.924 1208.12 783 1203.2 783 1197.12 783 1191.05 787.924 1186.13 793.999 1186.13 800.074 1186.13 804.999 1191.05 804.999 1197.12Z" stroke="#A5A5A5" stroke-width="3.4375" stroke-linejoin="round" stroke-miterlimit="10" fill="#A5A5A5"/><path d="M1105 1197.12C1105 1203.2 1100.07 1208.12 1094 1208.12 1087.92 1208.12 1083 1203.2 1083 1197.12 1083 1191.05 1087.92 1186.13 1094 1186.13 1100.07 1186.13 1105 1191.05 1105 1197.12Z" stroke="#A5A5A5" stroke-width="3.4375" stroke-linejoin="round" stroke-miterlimit="10" fill="#A5A5A5"/><path d="M1405 1196.12C1405 1202.2 1400.07 1207.12 1394 1207.12 1387.92 1207.12 1383 1202.2 1383 1196.12 1383 1190.05 1387.92 1185.13 1394 1185.13 1400.07 1185.13 1405 1190.05 1405 1196.12Z" stroke="#A5A5A5" stroke-width="3.4375" stroke-linejoin="round" stroke-miterlimit="10" fill="#A5A5A5"/><path d="M1706 1193.12C1706 1199.2 1701.07 1204.12 1695 1204.12 1688.92 1204.12 1684 1199.2 1684 1193.12 1684 1187.05 1688.92 1182.13 1695 1182.13 1701.07 1182.13 1706 1187.05 1706 1193.12Z" stroke="#A5A5A5" stroke-width="3.4375" stroke-linejoin="round" stroke-miterlimit="10" fill="#A5A5A5"/><path d="M2006 1165.12C2006 1171.2 2001.07 1176.12 1995 1176.12 1988.92 1176.12 1984 1171.2 1984 1165.12 1984 1159.05 1988.92 1154.13 1995 1154.13 2001.07 1154.13 2006 1159.05 2006 1165.12Z" stroke="#A5A5A5" stroke-width="3.4375" stroke-linejoin="round" stroke-miterlimit="10" fill="#A5A5A5"/><path d="M2306 886.125C2306 892.2 2301.07 897.124 2295 897.124 2288.92 897.124 2284 892.2 2284 886.125 2284 880.05 2288.92 875.125 2295 875.125 2301.07 875.125 2306 880.05 2306 886.125Z" stroke="#A5A5A5" stroke-width="3.4375" stroke-linejoin="round" stroke-miterlimit="10" fill="#A5A5A5"/></g><g clip-path="url(#clip11)"><path d="M793.5 1197.35C893.567 1197.34 993.633 1197.37 1093.7 1197.33 1193.77 1197.29 1293.83 1197.43 1393.9 1197.11 1493.97 1196.79 1594.03 1198.44 1694.1 1195.42 1794.17 1192.4 1894.23 1204.5 1994.3 1179.01 2094.37 1153.53 2194.43 1088 2294.5 1042.5" stroke="#FFC000" stroke-width="6.875" stroke-linecap="round" stroke-linejoin="round" stroke-miterlimit="10" fill="none"/></g><g clip-path="url(#clip12)"><path d="M804.999 1197.12C804.999 1203.2 800.074 1208.12 793.999 1208.12 787.924 1208.12 783 1203.2 783 1197.12 783 1191.05 787.924 1186.13 793.999 1186.13 800.074 1186.13 804.999 1191.05 804.999 1197.12Z" stroke="#FFC000" stroke-width="3.4375" stroke-linejoin="round" stroke-miterlimit="10" fill="#FFC000"/><path d="M1105 1197.12C1105 1203.2 1100.07 1208.12 1094 1208.12 1087.92 1208.12 1083 1203.2 1083 1197.12 1083 1191.05 1087.92 1186.13 1094 1186.13 1100.07 1186.13 1105 1191.05 1105 1197.12Z" stroke="#FFC000" stroke-width="3.4375" stroke-linejoin="round" stroke-miterlimit="10" fill="#FFC000"/><path d="M1405 1197.12C1405 1203.2 1400.07 1208.12 1394 1208.12 1387.92 1208.12 1383 1203.2 1383 1197.12 1383 1191.05 1387.92 1186.13 1394 1186.13 1400.07 1186.13 1405 1191.05 1405 1197.12Z" stroke="#FFC000" stroke-width="3.4375" stroke-linejoin="round" stroke-miterlimit="10" fill="#FFC000"/><path d="M1706 1195.12C1706 1201.2 1701.07 1206.12 1695 1206.12 1688.92 1206.12 1684 1201.2 1684 1195.12 1684 1189.05 1688.92 1184.13 1695 1184.13 1701.07 1184.13 1706 1189.05 1706 1195.12Z" stroke="#FFC000" stroke-width="3.4375" stroke-linejoin="round" stroke-miterlimit="10" fill="#FFC000"/><path d="M2006 1179.12C2006 1185.2 2001.07 1190.12 1995 1190.12 1988.92 1190.12 1984 1185.2 1984 1179.12 1984 1173.05 1988.92 1168.12 1995 1168.12 2001.07 1168.12 2006 1173.05 2006 1179.12Z" stroke="#FFC000" stroke-width="3.4375" stroke-linejoin="round" stroke-miterlimit="10" fill="#FFC000"/><path d="M2306 1042.12C2306 1048.2 2301.07 1053.12 2295 1053.12 2288.92 1053.12 2284 1048.2 2284 1042.12 2284 1036.05 2288.92 1031.13 2295 1031.13 2301.07 1031.13 2306 1036.05 2306 1042.12Z" stroke="#FFC000" stroke-width="3.4375" stroke-linejoin="round" stroke-miterlimit="10" fill="#FFC000"/></g><g clip-path="url(#clip13)"><path d="M793.5 1197.54C893.567 1197.54 993.633 1197.57 1093.7 1197.54 1193.77 1197.51 1293.83 1197.52 1393.9 1197.36 1493.97 1197.19 1594.03 1197.71 1694.1 1196.54 1794.17 1195.37 1894.23 1202.5 1994.3 1190.33 2094.37 1178.15 2194.43 1145.78 2294.5 1123.5" stroke="#5B9BD5" stroke-width="6.875" stroke-linecap="round" stroke-linejoin="round" stroke-miterlimit="10" fill="none"/></g><g clip-path="url(#clip14)"><path d="M804.999 1197.12C804.999 1203.2 800.074 1208.12 793.999 1208.12 787.924 1208.12 783 1203.2 783 1197.12 783 1191.05 787.924 1186.13 793.999 1186.13 800.074 1186.13 804.999 1191.05 804.999 1197.12Z" stroke="#5B9BD5" stroke-width="3.4375" stroke-linejoin="round" stroke-miterlimit="10" fill="#5B9BD5"/><path d="M1105 1197.12C1105 1203.2 1100.07 1208.12 1094 1208.12 1087.92 1208.12 1083 1203.2 1083 1197.12 1083 1191.05 1087.92 1186.13 1094 1186.13 1100.07 1186.13 1105 1191.05 1105 1197.12Z" stroke="#5B9BD5" stroke-width="3.4375" stroke-linejoin="round" stroke-miterlimit="10" fill="#5B9BD5"/><path d="M1405 1197.12C1405 1203.2 1400.07 1208.12 1394 1208.12 1387.92 1208.12 1383 1203.2 1383 1197.12 1383 1191.05 1387.92 1186.13 1394 1186.13 1400.07 1186.13 1405 1191.05 1405 1197.12Z" stroke="#5B9BD5" stroke-width="3.4375" stroke-linejoin="round" stroke-miterlimit="10" fill="#5B9BD5"/><path d="M1706 1196.12C1706 1202.2 1701.07 1207.12 1695 1207.12 1688.92 1207.12 1684 1202.2 1684 1196.12 1684 1190.05 1688.92 1185.13 1695 1185.13 1701.07 1185.13 1706 1190.05 1706 1196.12Z" stroke="#5B9BD5" stroke-width="3.4375" stroke-linejoin="round" stroke-miterlimit="10" fill="#5B9BD5"/><path d="M2006 1190.12C2006 1196.2 2001.07 1201.12 1995 1201.12 1988.92 1201.12 1984 1196.2 1984 1190.12 1984 1184.05 1988.92 1179.12 1995 1179.12 2001.07 1179.12 2006 1184.05 2006 1190.12Z" stroke="#5B9BD5" stroke-width="3.4375" stroke-linejoin="round" stroke-miterlimit="10" fill="#5B9BD5"/><path d="M2306 1123.12C2306 1129.2 2301.07 1134.12 2295 1134.12 2288.92 1134.12 2284 1129.2 2284 1123.12 2284 1117.05 2288.92 1112.12 2295 1112.12 2301.07 1112.12 2306 1117.05 2306 1123.12Z" stroke="#5B9BD5" stroke-width="3.4375" stroke-linejoin="round" stroke-miterlimit="10" fill="#5B9BD5"/></g><g clip-path="url(#clip15)"><path d="M793.5 1197.13C893.567 1197.13 993.633 1197.17 1093.7 1197.14 1193.77 1197.12 1293.83 1197.08 1393.9 1196.98 1493.97 1196.89 1594.03 1197.11 1694.1 1196.56 1794.17 1196 1894.23 1199.5 1994.3 1193.66 2094.37 1187.81 2194.43 1172.22 2294.5 1161.5" stroke="#70AD47" stroke-width="6.875" stroke-linecap="round" stroke-linejoin="round" stroke-miterlimit="10" fill="none"/></g><g clip-path="url(#clip16)"><path d="M804.999 1197.12C804.999 1203.2 800.074 1208.12 793.999 1208.12 787.924 1208.12 783 1203.2 783 1197.12 783 1191.05 787.924 1186.13 793.999 1186.13 800.074 1186.13 804.999 1191.05 804.999 1197.12Z" stroke="#70AD47" stroke-width="3.4375" stroke-linejoin="round" stroke-miterlimit="10" fill="#70AD47"/><path d="M1105 1197.12C1105 1203.2 1100.07 1208.12 1094 1208.12 1087.92 1208.12 1083 1203.2 1083 1197.12 1083 1191.05 1087.92 1186.13 1094 1186.13 1100.07 1186.13 1105 1191.05 1105 1197.12Z" stroke="#70AD47" stroke-width="3.4375" stroke-linejoin="round" stroke-miterlimit="10" fill="#70AD47"/><path d="M1405 1197.12C1405 1203.2 1400.07 1208.12 1394 1208.12 1387.92 1208.12 1383 1203.2 1383 1197.12 1383 1191.05 1387.92 1186.13 1394 1186.13 1400.07 1186.13 1405 1191.05 1405 1197.12Z" stroke="#70AD47" stroke-width="3.4375" stroke-linejoin="round" stroke-miterlimit="10" fill="#70AD47"/><path d="M1706 1196.12C1706 1202.2 1701.07 1207.12 1695 1207.12 1688.92 1207.12 1684 1202.2 1684 1196.12 1684 1190.05 1688.92 1185.13 1695 1185.13 1701.07 1185.13 1706 1190.05 1706 1196.12Z" stroke="#70AD47" stroke-width="3.4375" stroke-linejoin="round" stroke-miterlimit="10" fill="#70AD47"/><path d="M2006 1193.12C2006 1199.2 2001.07 1204.12 1995 1204.12 1988.92 1204.12 1984 1199.2 1984 1193.12 1984 1187.05 1988.92 1182.13 1995 1182.13 2001.07 1182.13 2006 1187.05 2006 1193.12Z" stroke="#70AD47" stroke-width="3.4375" stroke-linejoin="round" stroke-miterlimit="10" fill="#70AD47"/><path d="M2306 1161.12C2306 1167.2 2301.07 1172.12 2295 1172.12 2288.92 1172.12 2284 1167.2 2284 1161.12 2284 1155.05 2288.92 1150.13 2295 1150.13 2301.07 1150.13 2306 1155.05 2306 1161.12Z" stroke="#70AD47" stroke-width="3.4375" stroke-linejoin="round" stroke-miterlimit="10" fill="#70AD47"/></g><g clip-path="url(#clip17)"><text fill="#595959" font-family="Calibri,Calibri_MSFontService,sans-serif" font-weight="400" font-size="41" transform="matrix(1 0 0 1 734.181 1209)">0</text></g><g clip-path="url(#clip18)"><text fill="#595959" font-family="Calibri,Calibri_MSFontService,sans-serif" font-weight="400" font-size="41" transform="matrix(1 0 0 1 692.381 1142)">200</text></g><g clip-path="url(#clip19)"><text fill="#595959" font-family="Calibri,Calibri_MSFontService,sans-serif" font-weight="400" font-size="41" transform="matrix(1 0 0 1 692.381 1076)">400</text></g><g clip-path="url(#clip20)"><text fill="#595959" font-family="Calibri,Calibri_MSFontService,sans-serif" font-weight="400" font-size="41" transform="matrix(1 0 0 1 692.381 1009)">600</text></g><g clip-path="url(#clip21)"><text fill="#595959" font-family="Calibri,Calibri_MSFontService,sans-serif" font-weight="400" font-size="41" transform="matrix(1 0 0 1 692.381 943)">800</text></g><g clip-path="url(#clip22)"><text fill="#595959" font-family="Calibri,Calibri_MSFontService,sans-serif" font-weight="400" font-size="41" transform="matrix(1 0 0 1 671.481 876)">1000</text></g><g clip-path="url(#clip23)"><text fill="#595959" font-family="Calibri,Calibri_MSFontService,sans-serif" font-weight="400" font-size="41" transform="matrix(1 0 0 1 671.481 810)">1200</text></g><g clip-path="url(#clip24)"><text fill="#595959" font-family="Calibri,Calibri_MSFontService,sans-serif" font-weight="400" font-size="41" transform="matrix(1 0 0 1 671.481 743)">1400</text></g><g clip-path="url(#clip25)"><text fill="#595959" font-family="Calibri,Calibri_MSFontService,sans-serif" font-weight="400" font-size="41" transform="matrix(1 0 0 1 671.481 676)">1600</text></g><g clip-path="url(#clip26)"><text fill="#595959" font-family="Calibri,Calibri_MSFontService,sans-serif" font-weight="400" font-size="41" transform="matrix(1 0 0 1 671.481 610)">1800</text></g><g clip-path="url(#clip27)"><text fill="#595959" font-family="Calibri,Calibri_MSFontService,sans-serif" font-weight="400" font-size="41" transform="matrix(1 0 0 1 671.481 543)">2000</text></g><g clip-path="url(#clip28)"><text fill="#595959" font-family="Calibri,Calibri_MSFontService,sans-serif" font-weight="400" font-size="41" transform="matrix(1 0 0 1 772.448 1263)">10</text></g><g clip-path="url(#clip29)"><text fill="#595959" font-family="Calibri,Calibri_MSFontService,sans-serif" font-weight="400" font-size="41" transform="matrix(1 0 0 1 1062.27 1263)">100</text></g><g clip-path="url(#clip30)"><text fill="#595959" font-family="Calibri,Calibri_MSFontService,sans-serif" font-weight="400" font-size="41" transform="matrix(1 0 0 1 1352.09 1263)">1000</text></g><g clip-path="url(#clip31)"><text fill="#595959" font-family="Calibri,Calibri_MSFontService,sans-serif" font-weight="400" font-size="41" transform="matrix(1 0 0 1 1641.91 1263)">10000</text></g><g clip-path="url(#clip32)"><text fill="#595959" font-family="Calibri,Calibri_MSFontService,sans-serif" font-weight="400" font-size="41" transform="matrix(1 0 0 1 1931.73 1263)">100000</text></g><g clip-path="url(#clip33)"><text fill="#595959" font-family="Calibri,Calibri_MSFontService,sans-serif" font-weight="400" font-size="41" transform="matrix(1 0 0 1 2221.55 1263)">1000000</text></g><g clip-path="url(#clip34)"><text fill="#595959" font-family="Calibri,Calibri_MSFontService,sans-serif" font-weight="400" font-size="46" transform="matrix(6.12323e-17 -1 1 6.12323e-17 645.792 973)">Temps [ms]</text></g><g clip-path="url(#clip35)"><text fill="#595959" font-family="Calibri,Calibri_MSFontService,sans-serif" font-weight="400" font-size="46" transform="matrix(1 0 0 1 1474.39 1332)">Valeurs</text></g><g clip-path="url(#clip36)"><text fill="#595959" font-family="Calibri,Calibri_MSFontService,sans-serif" font-weight="400" font-size="64" transform="matrix(1 0 0 1 1489.7 457)">Vecteur croissant</text></g><g clip-path="url(#clip37)"><path d="M2439.5 747.5 2527.5 747.501" stroke="#4472C4" stroke-width="6.875" stroke-linecap="round" stroke-linejoin="round" stroke-miterlimit="10" fill="none" fill-rule="evenodd"/></g><g clip-path="url(#clip38)"><path d="M2494 747C2494 753.075 2489.07 758 2483 758 2476.93 758 2472 753.075 2472 747 2472 740.925 2476.93 736 2483 736 2489.07 736 2494 740.925 2494 747Z" stroke="#4472C4" stroke-width="3.4375" stroke-linejoin="round" stroke-miterlimit="10" fill="#4472C4"/></g><g clip-path="url(#clip39)"><text fill="#595959" font-family="Calibri,Calibri_MSFontService,sans-serif" font-weight="400" font-size="41" transform="matrix(1 0 0 1 2536.86 759)">TriRapide</text></g><g clip-path="url(#clip40)"><path d="M2439.5 825.5 2527.5 825.5" stroke="#ED7D31" stroke-width="6.875" stroke-linecap="round" stroke-linejoin="round" stroke-miterlimit="10" fill="none" fill-rule="evenodd"/></g><g clip-path="url(#clip41)"><path d="M2494 825.499C2494 831.31 2489.07 836.021 2483 836.021 2476.93 836.021 2472 831.31 2472 825.499 2472 819.689 2476.93 814.978 2483 814.978 2489.07 814.978 2494 819.689 2494 825.499Z" stroke="#ED7D31" stroke-width="3.4375" stroke-linejoin="round" stroke-miterlimit="10" fill="#ED7D31"/></g><g clip-path="url(#clip42)"><text fill="#595959" font-family="Calibri,Calibri_MSFontService,sans-serif" font-weight="400" font-size="41" transform="matrix(1 0 0 1 2536.86 837)">TriParBase 1 bit</text></g><g clip-path="url(#clip43)"><path d="M2439.5 902.5 2527.5 902.5" stroke="#A5A5A5" stroke-width="6.875" stroke-linecap="round" stroke-linejoin="round" stroke-miterlimit="10" fill="none" fill-rule="evenodd"/></g><g clip-path="url(#clip44)"><path d="M2494 902.499C2494 908.31 2489.07 913.021 2483 913.021 2476.93 913.021 2472 908.31 2472 902.499 2472 896.689 2476.93 891.978 2483 891.978 2489.07 891.978 2494 896.689 2494 902.499Z" stroke="#A5A5A5" stroke-width="3.4375" stroke-linejoin="round" stroke-miterlimit="10" fill="#A5A5A5"/></g><g clip-path="url(#clip45)"><text fill="#595959" font-family="Calibri,Calibri_MSFontService,sans-serif" font-weight="400" font-size="41" transform="matrix(1 0 0 1 2536.86 914)">TriParBase 2 bits</text></g><g clip-path="url(#clip46)"><path d="M2439.5 979.5 2527.5 979.5" stroke="#FFC000" stroke-width="6.875" stroke-linecap="round" stroke-linejoin="round" stroke-miterlimit="10" fill="none" fill-rule="evenodd"/></g><g clip-path="url(#clip47)"><path d="M2494 979.499C2494 985.31 2489.07 990.021 2483 990.021 2476.93 990.021 2472 985.31 2472 979.499 2472 973.689 2476.93 968.978 2483 968.978 2489.07 968.978 2494 973.689 2494 979.499Z" stroke="#FFC000" stroke-width="3.4375" stroke-linejoin="round" stroke-miterlimit="10" fill="#FFC000"/></g><g clip-path="url(#clip48)"><text fill="#595959" font-family="Calibri,Calibri_MSFontService,sans-serif" font-weight="400" font-size="41" transform="matrix(1 0 0 1 2536.86 991)">TriParBase 4 bits</text></g><g clip-path="url(#clip49)"><path d="M2439.5 1057.5 2527.5 1057.5" stroke="#5B9BD5" stroke-width="6.875" stroke-linecap="round" stroke-linejoin="round" stroke-miterlimit="10" fill="none" fill-rule="evenodd"/></g><g clip-path="url(#clip50)"><path d="M2494 1057C2494 1063.07 2489.07 1068 2483 1068 2476.93 1068 2472 1063.07 2472 1057 2472 1050.92 2476.93 1046 2483 1046 2489.07 1046 2494 1050.92 2494 1057Z" stroke="#5B9BD5" stroke-width="3.4375" stroke-linejoin="round" stroke-miterlimit="10" fill="#5B9BD5"/></g><g clip-path="url(#clip51)"><text fill="#595959" font-family="Calibri,Calibri_MSFontService,sans-serif" font-weight="400" font-size="41" transform="matrix(1 0 0 1 2536.86 1069)">TriParBase 8 bits</text></g><g clip-path="url(#clip52)"><path d="M2439.5 1134.5 2527.5 1134.5" stroke="#70AD47" stroke-width="6.875" stroke-linecap="round" stroke-linejoin="round" stroke-miterlimit="10" fill="none" fill-rule="evenodd"/></g><g clip-path="url(#clip53)"><path d="M2494 1134C2494 1140.07 2489.07 1145 2483 1145 2476.93 1145 2472 1140.07 2472 1134 2472 1127.92 2476.93 1123 2483 1123 2489.07 1123 2494 1127.92 2494 1134Z" stroke="#70AD47" stroke-width="3.4375" stroke-linejoin="round" stroke-miterlimit="10" fill="#70AD47"/></g><g clip-path="url(#clip54)"><text fill="#595959" font-family="Calibri,Calibri_MSFontService,sans-serif" font-weight="400" font-size="41" transform="matrix(1 0 0 1 2536.86 1146)">TriParBase 16 bits</text></g><rect x="545.5" y="362.5" width="2338" height="1039" stroke="#D9D9D9" stroke-width="3.4375" stroke-linejoin="round" stroke-miterlimit="10" fill="none"/></g></svg>