<svg width="2342" height="1042" xmlns="http://www.w3.org/2000/svg" xmlns:xlink="http://www.w3.org/1999/xlink" xml:space="preserve" overflow="hidden"><defs><clipPath id="clip0"><rect x="1107" y="361" width="2342" height="1042"/></clipPath><clipPath id="clip1"><rect x="1108" y="361" width="2338" height="1039"/></clipPath><clipPath id="clip2"><rect x="1108" y="361" width="2338" height="1039"/></clipPath><clipPath id="clip3"><rect x="1108" y="361" width="2338" height="1039"/></clipPath><clipPath id="clip4"><rect x="1108" y="361" width="2338" height="1039"/></clipPath><clipPath id="clip5"><rect x="1357" y="531" width="1504" height="669"/></clipPath><clipPath id="clip6"><rect x="1108" y="361" width="2338" height="1039"/></clipPath><clipPath id="clip7"><rect x="1357" y="531" width="1504" height="669"/></clipPath><clipPath id="clip8"><rect x="1108" y="361" width="2338" height="1039"/></clipPath><clipPath id="clip9"><rect x="1357" y="531" width="1504" height="669"/></clipPath><clipPath id="clip10"><rect x="1108" y="361" width="2338" height="1039"/></clipPath><clipPath id="clip11"><rect x="1357" y="531" width="1504" height="669"/></clipPath><clipPath id="clip12"><rect x="1108" y="361" width="2338" height="1039"/></clipPath><clipPath id="clip13"><rect x="1357" y="531" width="1504" height="669"/></clipPath><clipPath id="clip14"><rect x="1108" y="361" width="2338" height="1039"/></clipPath><clipPath id="clip15"><rect x="1357" y="531" width="1504" height="669"/></clipPath><clipPath id="clip16"><rect x="1108" y="361" width="2338" height="1039"/></clipPath><clipPath id="clip17"><rect x="1108" y="361" width="2338" height="1039"/></clipPath><clipPath id="clip18"><rect x="1108" y="361" width="2338" height="1039"/></clipPath><clipPath id="clip19"><rect x="1108" y="361" width="2338" height="1039"/></clipPath><clipPath id="clip20"><rect x="1108" y="361" width="2338" height="1039"/></clipPath><clipPath id="clip21"><rect x="1108" y="361" width="2338" height="1039"/></clipPath><clipPath id="clip22"><rect x="1108" y="361" width="2338" height="1039"/></clipPath><clipPath id="clip23"><rect x="1108" y="361" width="2338" height="1039"/></clipPath><clipPath id="clip24"><rect x="1108" y="361" width="2338" height="1039"/></clipPath><clipPath id="clip25"><rect x="1108" y="361" width="2338" height="1039"/></clipPath><clipPath id="clip26"><rect x="1108" y="361" width="2338" height="1039"/></clipPath><clipPath id="clip27"><rect x="1108" y="361" width="2338" height="1039"/></clipPath><clipPath id="clip28"><rect x="1108" y="361" width="2338" height="1039"/></clipPath><clipPath id="clip29"><rect x="1108" y="361" width="2338" height="1039"/></clipPath><clipPath id="clip30"><rect x="1108" y="361" width="2338" height="1039"/></clipPath><clipPath id="clip31"><rect x="1108" y="361" width="2338" height="1039"/></clipPath><clipPath id="clip32"><rect x="1108" y="361" width="2338" height="1039"/></clipPath><clipPath id="clip33"><rect x="1108" y="361" width="2338" height="1039"/></clipPath><clipPath id="clip34"><rect x="1108" y="361" width="2338" height="1039"/></clipPath><clipPath id="clip35"><rect x="1108" y="361" width="2338" height="1039"/></clipPath><clipPath id="clip36"><rect x="1108" y="361" width="2338" height="1039"/></clipPath><clipPath id="clip37"><rect x="1108" y="361" width="2338" height="1039"/></clipPath><clipPath id="clip38"><rect x="1108" y="361" width="2338" height="1039"/></clipPath><clipPath id="clip39"><rect x="1108" y="361" width="2338" height="1039"/></clipPath><clipPath id="clip40"><rect x="1108" y="361" width="2338" height="1039"/></clipPath><clipPath id="clip41"><rect x="1108" y="361" width="2338" height="1039"/></clipPath><clipPath id="clip42"><rect x="1108" y="361" width="2338" height="1039"/></clipPath><clipPath id="clip43"><rect x="1108" y="361" width="2338" height="1039"/></clipPath><clipPath id="clip44"><rect x="1108" y="361" width="2338" height="1039"/></clipPath><clipPath id="clip45"><rect x="1108" y="361" width="2338" height="1039"/></clipPath><clipPath id="clip46"><rect x="1108" y="361" width="2338" height="1039"/></clipPath><clipPath id="clip47"><rect x="1108" y="361" width="2338" height="1039"/></clipPath><clipPath id="clip48"><rect x="1108" y="361" width="2338" height="1039"/></clipPath><clipPath id="clip49"><rect x="1108" y="361" width="2338" height="1039"/></clipPath><clipPath id="clip50"><rect x="1108" y="361" width="2338" height="1039"/></clipPath><clipPath id="clip51"><rect x="1108" y="361" width="2338" height="1039"/></clipPath><clipPath id="clip52"><rect x="1108" y="361" width="2338" height="1039"/></clipPath><clipPath id="clip53"><rect x="1108" y="361" width="2338" height="1039"/></clipPath><clipPath id="clip54"><rect x="1108" y="361" width="2338" height="1039"/></clipPath></defs><g clip-path="url(#clip0)" transform="translate(-1107 -361)"><rect x="1108" y="362" width="2339" height="1039" fill="#FFFFFF"/><g clip-path="url(#clip1)"><path d="M1357.5 1130.54 2858.5 1130.54M1357.5 1064.54 2858.5 1064.54M1357.5 997.533 2858.5 997.533M1357.5 931.531 2858.5 931.531M1357.5 864.529 2858.5 864.529M1357.5 797.526 2858.5 797.526M1357.5 731.524 2858.5 731.524M1357.5 664.522 2858.5 664.522M1357.5 598.52 2858.5 598.52M1357.5 531.5 2858.5 531.5" stroke="#D9D9D9" stroke-width="3.4375" stroke-linejoin="round" stroke-miterlimit="10" fill="none"/></g><g clip-path="url(#clip2)"><path d="M1657.55 531.5 1657.55 1197.5M1957.56 531.5 1957.56 1197.5M2257.57 531.5 2257.57 1197.5M2558.58 531.5 2558.58 1197.5M2858.5 531.5 2858.5 1197.5" stroke="#D9D9D9" stroke-width="3.4375" stroke-linejoin="round" stroke-miterlimit="10" fill="none"/></g><g clip-path="url(#clip3)"><path d="M0 0 0.000360892 666" stroke="#BFBFBF" stroke-width="3.4375" stroke-linejoin="round" stroke-miterlimit="10" fill="none" fill-rule="evenodd" transform="matrix(1 0 0 -1 1357.5 1197.5)"/></g><g clip-path="url(#clip4)"><path d="M1357.5 1197.5 2858.5 1197.5" stroke="#BFBFBF" stroke-width="3.4375" stroke-linejoin="round" stroke-miterlimit="10" fill="none" fill-rule="evenodd"/></g><g clip-path="url(#clip5)"><path d="M1357.5 1197.11C1457.57 1197.11 1557.63 1197.11 1657.7 1197.1 1757.77 1197.09 1857.83 1197.19 1957.9 1197.04 2057.97 1196.89 2158.03 1197.79 2258.1 1196.21 2358.17 1194.62 2458.23 1206.5 2558.3 1187.55 2658.37 1168.6 2758.43 1117.52 2858.5 1082.5" stroke="#4472C4" stroke-width="6.875" stroke-linecap="round" stroke-linejoin="round" stroke-miterlimit="10" fill="none"/></g><g clip-path="url(#clip6)"><path d="M1368.75 1197.12C1368.75 1203.2 1363.82 1208.12 1357.75 1208.12 1351.67 1208.12 1346.75 1203.2 1346.75 1197.12 1346.75 1191.05 1351.67 1186.13 1357.75 1186.13 1363.82 1186.13 1368.75 1191.05 1368.75 1197.12Z" stroke="#4472C4" stroke-width="3.4375" stroke-linejoin="round" stroke-miterlimit="10" fill="#4472C4"/><path d="M1668.75 1197.12C1668.75 1203.2 1663.82 1208.12 1657.75 1208.12 1651.67 1208.12 1646.75 1203.2 1646.75 1197.12 1646.75 1191.05 1651.67 1186.13 1657.75 1186.13 1663.82 1186.13 1668.75 1191.05 1668.75 1197.12Z" stroke="#4472C4" stroke-width="3.4375" stroke-linejoin="round" stroke-miterlimit="10" fill="#4472C4"/><path d="M1968.75 1197.12C1968.75 1203.2 1963.82 1208.12 1957.75 1208.12 1951.68 1208.12 1946.75 1203.2 1946.75 1197.12 1946.75 1191.05 1951.68 1186.13 1957.75 1186.13 1963.82 1186.13 1968.75 1191.05 1968.75 1197.12Z" stroke="#4472C4" stroke-width="3.4375" stroke-linejoin="round" stroke-miterlimit="10" fill="#4472C4"/><path d="M2268.75 1196.12C2268.75 1202.2 2263.82 1207.12 2257.75 1207.12 2251.67 1207.12 2246.75 1202.2 2246.75 1196.12 2246.75 1190.05 2251.67 1185.13 2257.75 1185.13 2263.82 1185.13 2268.75 1190.05 2268.75 1196.12Z" stroke="#4472C4" stroke-width="3.4375" stroke-linejoin="round" stroke-miterlimit="10" fill="#4472C4"/><path d="M2569.75 1187.12C2569.75 1193.2 2564.82 1198.12 2558.75 1198.12 2552.67 1198.12 2547.75 1193.2 2547.75 1187.12 2547.75 1181.05 2552.67 1176.13 2558.75 1176.13 2564.82 1176.13 2569.75 1181.05 2569.75 1187.12Z" stroke="#4472C4" stroke-width="3.4375" stroke-linejoin="round" stroke-miterlimit="10" fill="#4472C4"/><path d="M2869.75 1082.12C2869.75 1088.2 2864.82 1093.12 2858.75 1093.12 2852.67 1093.12 2847.75 1088.2 2847.75 1082.12 2847.75 1076.05 2852.67 1071.12 2858.75 1071.12 2864.82 1071.12 2869.75 1076.05 2869.75 1082.12Z" stroke="#4472C4" stroke-width="3.4375" stroke-linejoin="round" stroke-miterlimit="10" fill="#4472C4"/></g><g clip-path="url(#clip7)"><path d="M1357.5 1197.45C1457.57 1197.43 1557.63 1197.49 1657.7 1197.37 1757.77 1197.26 1857.83 1197.92 1957.9 1196.77 2057.97 1195.62 2158.03 1206.01 2258.1 1190.47 2358.17 1174.93 2458.23 1207.5 2558.3 1103.51 2658.37 999.51 2758.43 745.502 2858.5 566.5" stroke="#ED7D31" stroke-width="6.875" stroke-linecap="round" stroke-linejoin="round" stroke-miterlimit="10" fill="none"/></g><g clip-path="url(#clip8)"><path d="M1368.75 1197.12C1368.75 1203.2 1363.82 1208.12 1357.75 1208.12 1351.67 1208.12 1346.75 1203.2 1346.75 1197.12 1346.75 1191.05 1351.67 1186.13 1357.75 1186.13 1363.82 1186.13 1368.75 1191.05 1368.75 1197.12Z" stroke="#ED7D31" stroke-width="3.4375" stroke-linejoin="round" stroke-miterlimit="10" fill="#ED7D31"/><path d="M1668.75 1197.12C1668.75 1203.2 1663.82 1208.12 1657.75 1208.12 1651.67 1208.12 1646.75 1203.2 1646.75 1197.12 1646.75 1191.05 1651.67 1186.13 1657.75 1186.13 1663.82 1186.13 1668.75 1191.05 1668.75 1197.12Z" stroke="#ED7D31" stroke-width="3.4375" stroke-linejoin="round" stroke-miterlimit="10" fill="#ED7D31"/><path d="M1968.75 1196.12C1968.75 1202.2 1963.82 1207.12 1957.75 1207.12 1951.68 1207.12 1946.75 1202.2 1946.75 1196.12 1946.75 1190.05 1951.68 1185.13 1957.75 1185.13 1963.82 1185.13 1968.75 1190.05 1968.75 1196.12Z" stroke="#ED7D31" stroke-width="3.4375" stroke-linejoin="round" stroke-miterlimit="10" fill="#ED7D31"/><path d="M2268.75 1190.12C2268.75 1196.2 2263.82 1201.12 2257.75 1201.12 2251.67 1201.12 2246.75 1196.2 2246.75 1190.12 2246.75 1184.05 2251.67 1179.12 2257.75 1179.12 2263.82 1179.12 2268.75 1184.05 2268.75 1190.12Z" stroke="#ED7D31" stroke-width="3.4375" stroke-linejoin="round" stroke-miterlimit="10" fill="#ED7D31"/><path d="M2569.75 1103.12C2569.75 1109.2 2564.82 1114.12 2558.75 1114.12 2552.67 1114.12 2547.75 1109.2 2547.75 1103.12 2547.75 1097.05 2552.67 1092.12 2558.75 1092.12 2564.82 1092.12 2569.75 1097.05 2569.75 1103.12Z" stroke="#ED7D31" stroke-width="3.4375" stroke-linejoin="round" stroke-miterlimit="10" fill="#ED7D31"/><path d="M2869.75 566.125C2869.75 572.2 2864.82 577.124 2858.75 577.124 2852.67 577.124 2847.75 572.2 2847.75 566.125 2847.75 560.05 2852.67 555.125 2858.75 555.125 2864.82 555.125 2869.75 560.05 2869.75 566.125Z" stroke="#ED7D31" stroke-width="3.4375" stroke-linejoin="round" stroke-miterlimit="10" fill="#ED7D31"/></g><g clip-path="url(#clip9)"><path d="M1357.5 1197.85C1457.57 1197.84 1557.63 1197.87 1657.7 1197.81 1757.77 1197.76 1857.83 1198.07 1957.9 1197.51 2057.97 1196.95 2158.03 1200.65 2258.1 1194.45 2358.17 1188.25 2458.23 1216.5 2558.3 1160.34 2658.37 1104.18 2758.43 958.447 2858.5 857.5" stroke="#A5A5A5" stroke-width="6.875" stroke-linecap="round" stroke-linejoin="round" stroke-miterlimit="10" fill="none"/></g><g clip-path="url(#clip10)"><path d="M1368.75 1197.12C1368.75 1203.2 1363.82 1208.12 1357.75 1208.12 1351.67 1208.12 1346.75 1203.2 1346.75 1197.12 1346.75 1191.05 1351.67 1186.13 1357.75 1186.13 1363.82 1186.13 1368.75 1191.05 1368.75 1197.12Z" stroke="#A5A5A5" stroke-width="3.4375" stroke-linejoin="round" stroke-miterlimit="10" fill="#A5A5A5"/><path d="M1668.75 1197.12C1668.75 1203.2 1663.82 1208.12 1657.75 1208.12 1651.67 1208.12 1646.75 1203.2 1646.75 1197.12 1646.75 1191.05 1651.67 1186.13 1657.75 1186.13 1663.82 1186.13 1668.75 1191.05 1668.75 1197.12Z" stroke="#A5A5A5" stroke-width="3.4375" stroke-linejoin="round" stroke-miterlimit="10" fill="#A5A5A5"/><path d="M1968.75 1197.12C1968.75 1203.2 1963.82 1208.12 1957.75 1208.12 1951.68 1208.12 1946.75 1203.2 1946.75 1197.12 1946.75 1191.05 1951.68 1186.13 1957.75 1186.13 1963.82 1186.13 1968.75 1191.05 1968.75 1197.12Z" stroke="#A5A5A5" stroke-width="3.4375" stroke-linejoin="round" stroke-miterlimit="10" fill="#A5A5A5"/><path d="M2268.75 1194.12C2268.75 1200.2 2263.82 1205.12 2257.75 1205.12 2251.67 1205.12 2246.75 1200.2 2246.75 1194.12 2246.75 1188.05 2251.67 1183.13 2257.75 1183.13 2263.82 1183.13 2268.75 1188.05 2268.75 1194.12Z" stroke="#A5A5A5" stroke-width="3.4375" stroke-linejoin="round" stroke-miterlimit="10" fill="#A5A5A5"/><path d="M2569.75 1160.12C2569.75 1166.2 2564.82 1171.12 2558.75 1171.12 2552.67 1171.12 2547.75 1166.2 2547.75 1160.12 2547.75 1154.05 2552.67 1149.13 2558.75 1149.13 2564.82 1149.13 2569.75 1154.05 2569.75 1160.12Z" stroke="#A5A5A5" stroke-width="3.4375" stroke-linejoin="round" stroke-miterlimit="10" fill="#A5A5A5"/><path d="M2869.75 857.125C2869.75 863.2 2864.82 868.124 2858.75 868.124 2852.67 868.124 2847.75 863.2 2847.75 857.125 2847.75 851.05 2852.67 846.125 2858.75 846.125 2864.82 846.125 2869.75 851.05 2869.75 857.125Z" stroke="#A5A5A5" stroke-width="3.4375" stroke-linejoin="round" stroke-miterlimit="10" fill="#A5A5A5"/></g><g clip-path="url(#clip11)"><path d="M1357.5 1197.62C1457.57 1197.62 1557.63 1197.63 1657.7 1197.61 1757.77 1197.58 1857.83 1197.81 1957.9 1197.47 2057.97 1197.13 2158.03 1198.43 2258.1 1195.57 2358.17 1192.71 2458.23 1205.5 2558.3 1180.32 2658.37 1155.14 2758.43 1089.77 2858.5 1044.5" stroke="#FFC000" stroke-width="6.875" stroke-linecap="round" stroke-linejoin="round" stroke-miterlimit="10" fill="none"/></g><g clip-path="url(#clip12)"><path d="M1368.75 1197.12C1368.75 1203.2 1363.82 1208.12 1357.75 1208.12 1351.67 1208.12 1346.75 1203.2 1346.75 1197.12 1346.75 1191.05 1351.67 1186.13 1357.75 1186.13 1363.82 1186.13 1368.75 1191.05 1368.75 1197.12Z" stroke="#FFC000" stroke-width="3.4375" stroke-linejoin="round" stroke-miterlimit="10" fill="#FFC000"/><path d="M1668.75 1197.12C1668.75 1203.2 1663.82 1208.12 1657.75 1208.12 1651.67 1208.12 1646.75 1203.2 1646.75 1197.12 1646.75 1191.05 1651.67 1186.13 1657.75 1186.13 1663.82 1186.13 1668.75 1191.05 1668.75 1197.12Z" stroke="#FFC000" stroke-width="3.4375" stroke-linejoin="round" stroke-miterlimit="10" fill="#FFC000"/><path d="M1968.75 1197.12C1968.75 1203.2 1963.82 1208.12 1957.75 1208.12 1951.68 1208.12 1946.75 1203.2 1946.75 1197.12 1946.75 1191.05 1951.68 1186.13 1957.75 1186.13 1963.82 1186.13 1968.75 1191.05 1968.75 1197.12Z" stroke="#FFC000" stroke-width="3.4375" stroke-linejoin="round" stroke-miterlimit="10" fill="#FFC000"/><path d="M2268.75 1195.12C2268.75 1201.2 2263.82 1206.12 2257.75 1206.12 2251.67 1206.12 2246.75 1201.2 2246.75 1195.12 2246.75 1189.05 2251.67 1184.13 2257.75 1184.13 2263.82 1184.13 2268.75 1189.05 2268.75 1195.12Z" stroke="#FFC000" stroke-width="3.4375" stroke-linejoin="round" stroke-miterlimit="10" fill="#FFC000"/><path d="M2569.75 1180.12C2569.75 1186.2 2564.82 1191.12 2558.75 1191.12 2552.67 1191.12 2547.75 1186.2 2547.75 1180.12 2547.75 1174.05 2552.67 1169.12 2558.75 1169.12 2564.82 1169.12 2569.75 1174.05 2569.75 1180.12Z" stroke="#FFC000" stroke-width="3.4375" stroke-linejoin="round" stroke-miterlimit="10" fill="#FFC000"/><path d="M2869.75 1044.12C2869.75 1050.2 2864.82 1055.12 2858.75 1055.12 2852.67 1055.12 2847.75 1050.2 2847.75 1044.12 2847.75 1038.05 2852.67 1033.13 2858.75 1033.13 2864.82 1033.13 2869.75 1038.05 2869.75 1044.12Z" stroke="#FFC000" stroke-width="3.4375" stroke-linejoin="round" stroke-miterlimit="10" fill="#FFC000"/></g><g clip-path="url(#clip13)"><path d="M1357.5 1197.2C1457.57 1197.2 1557.63 1197.21 1657.7 1197.19 1757.77 1197.18 1857.83 1197.25 1957.9 1197.13 2057.97 1197.01 2158.03 1197.81 2258.1 1196.48 2358.17 1195.15 2458.23 1201.5 2558.3 1189.17 2658.37 1176.84 2758.43 1144.72 2858.5 1122.5" stroke="#5B9BD5" stroke-width="6.875" stroke-linecap="round" stroke-linejoin="round" stroke-miterlimit="10" fill="none"/></g><g clip-path="url(#clip14)"><path d="M1368.75 1197.12C1368.75 1203.2 1363.82 1208.12 1357.75 1208.12 1351.67 1208.12 1346.75 1203.2 1346.75 1197.12 1346.75 1191.05 1351.67 1186.13 1357.75 1186.13 1363.82 1186.13 1368.75 1191.05 1368.75 1197.12Z" stroke="#5B9BD5" stroke-width="3.4375" stroke-linejoin="round" stroke-miterlimit="10" fill="#5B9BD5"/><path d="M1668.75 1197.12C1668.75 1203.2 1663.82 1208.12 1657.75 1208.12 1651.67 1208.12 1646.75 1203.2 1646.75 1197.12 1646.75 1191.05 1651.67 1186.13 1657.75 1186.13 1663.82 1186.13 1668.75 1191.05 1668.75 1197.12Z" stroke="#5B9BD5" stroke-width="3.4375" stroke-linejoin="round" stroke-miterlimit="10" fill="#5B9BD5"/><path d="M1968.75 1197.12C1968.75 1203.2 1963.82 1208.12 1957.75 1208.12 1951.68 1208.12 1946.75 1203.2 1946.75 1197.12 1946.75 1191.05 1951.68 1186.13 1957.75 1186.13 1963.82 1186.13 1968.75 1191.05 1968.75 1197.12Z" stroke="#5B9BD5" stroke-width="3.4375" stroke-linejoin="round" stroke-miterlimit="10" fill="#5B9BD5"/><path d="M2268.75 1196.12C2268.75 1202.2 2263.82 1207.12 2257.75 1207.12 2251.67 1207.12 2246.75 1202.2 2246.75 1196.12 2246.75 1190.05 2251.67 1185.13 2257.75 1185.13 2263.82 1185.13 2268.75 1190.05 2268.75 1196.12Z" stroke="#5B9BD5" stroke-width="3.4375" stroke-linejoin="round" stroke-miterlimit="10" fill="#5B9BD5"/><path d="M2569.75 1189.12C2569.75 1195.2 2564.82 1200.12 2558.75 1200.12 2552.67 1200.12 2547.75 1195.2 2547.75 1189.12 2547.75 1183.05 2552.67 1178.12 2558.75 1178.12 2564.82 1178.12 2569.75 1183.05 2569.75 1189.12Z" stroke="#5B9BD5" stroke-width="3.4375" stroke-linejoin="round" stroke-miterlimit="10" fill="#5B9BD5"/><path d="M2869.75 1122.12C2869.75 1128.2 2864.82 1133.12 2858.75 1133.12 2852.67 1133.12 2847.75 1128.2 2847.75 1122.12 2847.75 1116.05 2852.67 1111.13 2858.75 1111.13 2864.82 1111.13 2869.75 1116.05 2869.75 1122.12Z" stroke="#5B9BD5" stroke-width="3.4375" stroke-linejoin="round" stroke-miterlimit="10" fill="#5B9BD5"/></g><g clip-path="url(#clip15)"><path d="M1357.5 1197.33C1457.57 1197.31 1557.63 1197.3 1657.7 1197.29 1757.77 1197.27 1857.83 1197.32 1957.9 1197.25 2057.97 1197.19 2158.03 1197.77 2258.1 1196.91 2358.17 1196.05 2458.23 1198.5 2558.3 1192.1 2658.37 1185.7 2758.43 1169.7 2858.5 1158.5" stroke="#70AD47" stroke-width="6.875" stroke-linecap="round" stroke-linejoin="round" stroke-miterlimit="10" fill="none"/></g><g clip-path="url(#clip16)"><path d="M1368.75 1197.12C1368.75 1203.2 1363.82 1208.12 1357.75 1208.12 1351.67 1208.12 1346.75 1203.2 1346.75 1197.12 1346.75 1191.05 1351.67 1186.13 1357.75 1186.13 1363.82 1186.13 1368.75 1191.05 1368.75 1197.12Z" stroke="#70AD47" stroke-width="3.4375" stroke-linejoin="round" stroke-miterlimit="10" fill="#70AD47"/><path d="M1668.75 1197.12C1668.75 1203.2 1663.82 1208.12 1657.75 1208.12 1651.67 1208.12 1646.75 1203.2 1646.75 1197.12 1646.75 1191.05 1651.67 1186.13 1657.75 1186.13 1663.82 1186.13 1668.75 1191.05 1668.75 1197.12Z" stroke="#70AD47" stroke-width="3.4375" stroke-linejoin="round" stroke-miterlimit="10" fill="#70AD47"/><path d="M1968.75 1197.12C1968.75 1203.2 1963.82 1208.12 1957.75 1208.12 1951.68 1208.12 1946.75 1203.2 1946.75 1197.12 1946.75 1191.05 1951.68 1186.13 1957.75 1186.13 1963.82 1186.13 1968.75 1191.05 1968.75 1197.12Z" stroke="#70AD47" stroke-width="3.4375" stroke-linejoin="round" stroke-miterlimit="10" fill="#70AD47"/><path d="M2268.75 1196.12C2268.75 1202.2 2263.82 1207.12 2257.75 1207.12 2251.67 1207.12 2246.75 1202.2 2246.75 1196.12 2246.75 1190.05 2251.67 1185.13 2257.75 1185.13 2263.82 1185.13 2268.75 1190.05 2268.75 1196.12Z" stroke="#70AD47" stroke-width="3.4375" stroke-linejoin="round" stroke-miterlimit="10" fill="#70AD47"/><path d="M2569.75 1191.12C2569.75 1197.2 2564.82 1202.12 2558.75 1202.12 2552.67 1202.12 2547.75 1197.2 2547.75 1191.12 2547.75 1185.05 2552.67 1180.12 2558.75 1180.12 2564.82 1180.12 2569.75 1185.05 2569.75 1191.12Z" stroke="#70AD47" stroke-width="3.4375" stroke-linejoin="round" stroke-miterlimit="10" fill="#70AD47"/><path d="M2869.75 1158.12C2869.75 1164.2 2864.82 1169.12 2858.75 1169.12 2852.67 1169.12 2847.75 1164.2 2847.75 1158.12 2847.75 1152.05 2852.67 1147.12 2858.75 1147.12 2864.82 1147.12 2869.75 1152.05 2869.75 1158.12Z" stroke="#70AD47" stroke-width="3.4375" stroke-linejoin="round" stroke-miterlimit="10" fill="#70AD47"/></g><g clip-path="url(#clip17)"><text fill="#595959" font-family="Calibri,Calibri_MSFontService,sans-serif" font-weight="400" font-size="41" transform="matrix(1 0 0 1 1297.93 1209)">0</text></g><g clip-path="url(#clip18)"><text fill="#595959" font-family="Calibri,Calibri_MSFontService,sans-serif" font-weight="400" font-size="41" transform="matrix(1 0 0 1 1256.13 1142)">200</text></g><g clip-path="url(#clip19)"><text fill="#595959" font-family="Calibri,Calibri_MSFontService,sans-serif" font-weight="400" font-size="41" transform="matrix(1 0 0 1 1256.13 1076)">400</text></g><g clip-path="url(#clip20)"><text fill="#595959" font-family="Calibri,Calibri_MSFontService,sans-serif" font-weight="400" font-size="41" transform="matrix(1 0 0 1 1256.13 1009)">600</text></g><g clip-path="url(#clip21)"><text fill="#595959" font-family="Calibri,Calibri_MSFontService,sans-serif" font-weight="400" font-size="41" transform="matrix(1 0 0 1 1256.13 943)">800</text></g><g clip-path="url(#clip22)"><text fill="#595959" font-family="Calibri,Calibri_MSFontService,sans-serif" font-weight="400" font-size="41" transform="matrix(1 0 0 1 1235.23 876)">1000</text></g><g clip-path="url(#clip23)"><text fill="#595959" font-family="Calibri,Calibri_MSFontService,sans-serif" font-weight="400" font-size="41" transform="matrix(1 0 0 1 1235.23 810)">1200</text></g><g clip-path="url(#clip24)"><text fill="#595959" font-family="Calibri,Calibri_MSFontService,sans-serif" font-weight="400" font-size="41" transform="matrix(1 0 0 1 1235.23 743)">1400</text></g><g clip-path="url(#clip25)"><text fill="#595959" font-family="Calibri,Calibri_MSFontService,sans-serif" font-weight="400" font-size="41" transform="matrix(1 0 0 1 1235.23 676)">1600</text></g><g clip-path="url(#clip26)"><text fill="#595959" font-family="Calibri,Calibri_MSFontService,sans-serif" font-weight="400" font-size="41" transform="matrix(1 0 0 1 1235.23 610)">1800</text></g><g clip-path="url(#clip27)"><text fill="#595959" font-family="Calibri,Calibri_MSFontService,sans-serif" font-weight="400" font-size="41" transform="matrix(1 0 0 1 1235.23 543)">2000</text></g><g clip-path="url(#clip28)"><text fill="#595959" font-family="Calibri,Calibri_MSFontService,sans-serif" font-weight="400" font-size="41" transform="matrix(1 0 0 1 1336.2 1263)">10</text></g><g clip-path="url(#clip29)"><text fill="#595959" font-family="Calibri,Calibri_MSFontService,sans-serif" font-weight="400" font-size="41" transform="matrix(1 0 0 1 1626.02 1263)">100</text></g><g clip-path="url(#clip30)"><text fill="#595959" font-family="Calibri,Calibri_MSFontService,sans-serif" font-weight="400" font-size="41" transform="matrix(1 0 0 1 1915.84 1263)">1000</text></g><g clip-path="url(#clip31)"><text fill="#595959" font-family="Calibri,Calibri_MSFontService,sans-serif" font-weight="400" font-size="41" transform="matrix(1 0 0 1 2205.66 1263)">10000</text></g><g clip-path="url(#clip32)"><text fill="#595959" font-family="Calibri,Calibri_MSFontService,sans-serif" font-weight="400" font-size="41" transform="matrix(1 0 0 1 2495.48 1263)">100000</text></g><g clip-path="url(#clip33)"><text fill="#595959" font-family="Calibri,Calibri_MSFontService,sans-serif" font-weight="400" font-size="41" transform="matrix(1 0 0 1 2785.3 1263)">1000000</text></g><g clip-path="url(#clip34)"><text fill="#595959" font-family="Calibri,Calibri_MSFontService,sans-serif" font-weight="400" font-size="46" transform="matrix(6.12323e-17 -1 1 6.12323e-17 1209.54 973)">Temps [ms]</text></g><g clip-path="url(#clip35)"><text fill="#595959" font-family="Calibri,Calibri_MSFontService,sans-serif" font-weight="400" font-size="46" transform="matrix(1 0 0 1 2038.14 1332)">Valeurs</text></g><g clip-path="url(#clip36)"><text fill="#595959" font-family="Calibri,Calibri_MSFontService,sans-serif" font-weight="400" font-size="64" transform="matrix(1 0 0 1 2020.63 457)">Vecteur décroissant</text></g><g clip-path="url(#clip37)"><path d="M3003.5 747.5 3091.5 747.501" stroke="#4472C4" stroke-width="6.875" stroke-linecap="round" stroke-linejoin="round" stroke-miterlimit="10" fill="none" fill-rule="evenodd"/></g><g clip-path="url(#clip38)"><path d="M3058.02 747C3058.02 753.075 3053.31 758 3047.5 758 3041.69 758 3036.98 753.075 3036.98 747 3036.98 740.925 3041.69 736 3047.5 736 3053.31 736 3058.02 740.925 3058.02 747Z" stroke="#4472C4" stroke-width="3.4375" stroke-linejoin="round" stroke-miterlimit="10" fill="#4472C4"/></g><g clip-path="url(#clip39)"><text fill="#595959" font-family="Calibri,Calibri_MSFontService,sans-serif" font-weight="400" font-size="41" transform="matrix(1 0 0 1 3100.61 759)">TriRapide</text></g><g clip-path="url(#clip40)"><path d="M3003.5 825.5 3091.5 825.5" stroke="#ED7D31" stroke-width="6.875" stroke-linecap="round" stroke-linejoin="round" stroke-miterlimit="10" fill="none" fill-rule="evenodd"/></g><g clip-path="url(#clip41)"><path d="M3058.02 825.499C3058.02 831.31 3053.31 836.021 3047.5 836.021 3041.69 836.021 3036.98 831.31 3036.98 825.499 3036.98 819.689 3041.69 814.978 3047.5 814.978 3053.31 814.978 3058.02 819.689 3058.02 825.499Z" stroke="#ED7D31" stroke-width="3.4375" stroke-linejoin="round" stroke-miterlimit="10" fill="#ED7D31"/></g><g clip-path="url(#clip42)"><text fill="#595959" font-family="Calibri,Calibri_MSFontService,sans-serif" font-weight="400" font-size="41" transform="matrix(1 0 0 1 3100.61 837)">TriParBase 1 bit</text></g><g clip-path="url(#clip43)"><path d="M3003.5 902.5 3091.5 902.5" stroke="#A5A5A5" stroke-width="6.875" stroke-linecap="round" stroke-linejoin="round" stroke-miterlimit="10" fill="none" fill-rule="evenodd"/></g><g clip-path="url(#clip44)"><path d="M3058.02 902.499C3058.02 908.31 3053.31 913.021 3047.5 913.021 3041.69 913.021 3036.98 908.31 3036.98 902.499 3036.98 896.689 3041.69 891.978 3047.5 891.978 3053.31 891.978 3058.02 896.689 3058.02 902.499Z" stroke="#A5A5A5" stroke-width="3.4375" stroke-linejoin="round" stroke-miterlimit="10" fill="#A5A5A5"/></g><g clip-path="url(#clip45)"><text fill="#595959" font-family="Calibri,Calibri_MSFontService,sans-serif" font-weight="400" font-size="41" transform="matrix(1 0 0 1 3100.61 914)">TriParBase 2 bits</text></g><g clip-path="url(#clip46)"><path d="M3003.5 979.5 3091.5 979.5" stroke="#FFC000" stroke-width="6.875" stroke-linecap="round" stroke-linejoin="round" stroke-miterlimit="10" fill="none" fill-rule="evenodd"/></g><g clip-path="url(#clip47)"><path d="M3058.02 979.499C3058.02 985.31 3053.31 990.021 3047.5 990.021 3041.69 990.021 3036.98 985.31 3036.98 979.499 3036.98 973.689 3041.69 968.978 3047.5 968.978 3053.31 968.978 3058.02 973.689 3058.02 979.499Z" stroke="#FFC000" stroke-width="3.4375" stroke-linejoin="round" stroke-miterlimit="10" fill="#FFC000"/></g><g clip-path="url(#clip48)"><text fill="#595959" font-family="Calibri,Calibri_MSFontService,sans-serif" font-weight="400" font-size="41" transform="matrix(1 0 0 1 3100.61 991)">TriParBase 4 bits</text></g><g clip-path="url(#clip49)"><path d="M3003.5 1057.5 3091.5 1057.5" stroke="#5B9BD5" stroke-width="6.875" stroke-linecap="round" stroke-linejoin="round" stroke-miterlimit="10" fill="none" fill-rule="evenodd"/></g><g clip-path="url(#clip50)"><path d="M3058.02 1057C3058.02 1063.07 3053.31 1068 3047.5 1068 3041.69 1068 3036.98 1063.07 3036.98 1057 3036.98 1050.92 3041.69 1046 3047.5 1046 3053.31 1046 3058.02 1050.92 3058.02 1057Z" stroke="#5B9BD5" stroke-width="3.4375" stroke-linejoin="round" stroke-miterlimit="10" fill="#5B9BD5"/></g><g clip-path="url(#clip51)"><text fill="#595959" font-family="Calibri,Calibri_MSFontService,sans-serif" font-weight="400" font-size="41" transform="matrix(1 0 0 1 3100.61 1069)">TriParBase 8 bits</text></g><g clip-path="url(#clip52)"><path d="M3003.5 1134.5 3091.5 1134.5" stroke="#70AD47" stroke-width="6.875" stroke-linecap="round" stroke-linejoin="round" stroke-miterlimit="10" fill="none" fill-rule="evenodd"/></g><g clip-path="url(#clip53)"><path d="M3058.02 1134C3058.02 1140.07 3053.31 1145 3047.5 1145 3041.69 1145 3036.98 1140.07 3036.98 1134 3036.98 1127.92 3041.69 1123 3047.5 1123 3053.31 1123 3058.02 1127.92 3058.02 1134Z" stroke="#70AD47" stroke-width="3.4375" stroke-linejoin="round" stroke-miterlimit="10" fill="#70AD47"/></g><g clip-path="url(#clip54)"><text fill="#595959" font-family="Calibri,Calibri_MSFontService,sans-serif" font-weight="400" font-size="41" transform="matrix(1 0 0 1 3100.61 1146)">TriParBase 16 bits</text></g><rect x="1108.5" y="362.5" width="2339" height="1039" stroke="#D9D9D9" stroke-width="3.4375" stroke-linejoin="round" stroke-miterlimit="10" fill="none"/></g></svg>