<svg width="2341" height="1042" xmlns="http://www.w3.org/2000/svg" xmlns:xlink="http://www.w3.org/1999/xlink" xml:space="preserve" overflow="hidden"><defs><clipPath id="clip0"><rect x="1732" y="361" width="2341" height="1042"/></clipPath><clipPath id="clip1"><rect x="1732" y="361" width="2339" height="1039"/></clipPath><clipPath id="clip2"><rect x="1732" y="361" width="2339" height="1039"/></clipPath><clipPath id="clip3"><rect x="1732" y="361" width="2339" height="1039"/></clipPath><clipPath id="clip4"><rect x="1732" y="361" width="2339" height="1039"/></clipPath><clipPath id="clip5"><rect x="1981" y="531" width="1505" height="669"/></clipPath><clipPath id="clip6"><rect x="1732" y="361" width="2339" height="1039"/></clipPath><clipPath id="clip7"><rect x="1981" y="531" width="1505" height="669"/></clipPath><clipPath id="clip8"><rect x="1732" y="361" width="2339" height="1039"/></clipPath><clipPath id="clip9"><rect x="1981" y="531" width="1505" height="669"/></clipPath><clipPath id="clip10"><rect x="1732" y="361" width="2339" height="1039"/></clipPath><clipPath id="clip11"><rect x="1981" y="531" width="1505" height="669"/></clipPath><clipPath id="clip12"><rect x="1732" y="361" width="2339" height="1039"/></clipPath><clipPath id="clip13"><rect x="1981" y="531" width="1505" height="669"/></clipPath><clipPath id="clip14"><rect x="1732" y="361" width="2339" height="1039"/></clipPath><clipPath id="clip15"><rect x="1981" y="531" width="1505" height="669"/></clipPath><clipPath id="clip16"><rect x="1732" y="361" width="2339" height="1039"/></clipPath><clipPath id="clip17"><rect x="1732" y="361" width="2339" height="1039"/></clipPath><clipPath id="clip18"><rect x="1732" y="361" width="2339" height="1039"/></clipPath><clipPath id="clip19"><rect x="1732" y="361" width="2339" height="1039"/></clipPath><clipPath id="clip20"><rect x="1732" y="361" width="2339" height="1039"/></clipPath><clipPath id="clip21"><rect x="1732" y="361" width="2339" height="1039"/></clipPath><clipPath id="clip22"><rect x="1732" y="361" width="2339" height="1039"/></clipPath><clipPath id="clip23"><rect x="1732" y="361" width="2339" height="1039"/></clipPath><clipPath id="clip24"><rect x="1732" y="361" width="2339" height="1039"/></clipPath><clipPath id="clip25"><rect x="1732" y="361" width="2339" height="1039"/></clipPath><clipPath id="clip26"><rect x="1732" y="361" width="2339" height="1039"/></clipPath><clipPath id="clip27"><rect x="1732" y="361" width="2339" height="1039"/></clipPath><clipPath id="clip28"><rect x="1732" y="361" width="2339" height="1039"/></clipPath><clipPath id="clip29"><rect x="1732" y="361" width="2339" height="1039"/></clipPath><clipPath id="clip30"><rect x="1732" y="361" width="2339" height="1039"/></clipPath><clipPath id="clip31"><rect x="1732" y="361" width="2339" height="1039"/></clipPath><clipPath id="clip32"><rect x="1732" y="361" width="2339" height="1039"/></clipPath><clipPath id="clip33"><rect x="1732" y="361" width="2339" height="1039"/></clipPath><clipPath id="clip34"><rect x="1732" y="361" width="2339" height="1039"/></clipPath><clipPath id="clip35"><rect x="1732" y="361" width="2339" height="1039"/></clipPath><clipPath id="clip36"><rect x="1732" y="361" width="2339" height="1039"/></clipPath><clipPath id="clip37"><rect x="1732" y="361" width="2339" height="1039"/></clipPath><clipPath id="clip38"><rect x="1732" y="361" width="2339" height="1039"/></clipPath><clipPath id="clip39"><rect x="1732" y="361" width="2339" height="1039"/></clipPath><clipPath id="clip40"><rect x="1732" y="361" width="2339" height="1039"/></clipPath><clipPath id="clip41"><rect x="1732" y="361" width="2339" height="1039"/></clipPath><clipPath id="clip42"><rect x="1732" y="361" width="2339" height="1039"/></clipPath><clipPath id="clip43"><rect x="1732" y="361" width="2339" height="1039"/></clipPath><clipPath id="clip44"><rect x="1732" y="361" width="2339" height="1039"/></clipPath><clipPath id="clip45"><rect x="1732" y="361" width="2339" height="1039"/></clipPath><clipPath id="clip46"><rect x="1732" y="361" width="2339" height="1039"/></clipPath><clipPath id="clip47"><rect x="1732" y="361" width="2339" height="1039"/></clipPath><clipPath id="clip48"><rect x="1732" y="361" width="2339" height="1039"/></clipPath><clipPath id="clip49"><rect x="1732" y="361" width="2339" height="1039"/></clipPath><clipPath id="clip50"><rect x="1732" y="361" width="2339" height="1039"/></clipPath><clipPath id="clip51"><rect x="1732" y="361" width="2339" height="1039"/></clipPath><clipPath id="clip52"><rect x="1732" y="361" width="2339" height="1039"/></clipPath><clipPath id="clip53"><rect x="1732" y="361" width="2339" height="1039"/></clipPath><clipPath id="clip54"><rect x="1732" y="361" width="2339" height="1039"/></clipPath></defs><g clip-path="url(#clip0)" transform="translate(-1732 -361)"><rect x="1733" y="362" width="2338" height="1039" fill="#FFFFFF"/><g clip-path="url(#clip1)"><path d="M1981.5 1130.54 3482.5 1130.54M1981.5 1064.54 3482.5 1064.54M1981.5 997.533 3482.5 997.533M1981.5 931.531 3482.5 931.531M1981.5 864.529 3482.5 864.529M1981.5 797.526 3482.5 797.526M1981.5 731.524 3482.5 731.524M1981.5 664.522 3482.5 664.522M1981.5 598.52 3482.5 598.52M1981.5 531.5 3482.5 531.5" stroke="#D9D9D9" stroke-width="3.4375" stroke-linejoin="round" stroke-miterlimit="10" fill="none"/></g><g clip-path="url(#clip2)"><path d="M2281.57 531.5 2281.57 1197.5M2581.58 531.5 2581.58 1197.5M2882.59 531.5 2882.59 1197.5M3182.6 531.5 3182.6 1197.5M3482.5 531.5 3482.5 1197.5" stroke="#D9D9D9" stroke-width="3.4375" stroke-linejoin="round" stroke-miterlimit="10" fill="none"/></g><g clip-path="url(#clip3)"><path d="M0 0 0.000360892 666" stroke="#BFBFBF" stroke-width="3.4375" stroke-linejoin="round" stroke-miterlimit="10" fill="none" fill-rule="evenodd" transform="matrix(1 0 0 -1 1981.5 1197.5)"/></g><g clip-path="url(#clip4)"><path d="M1981.5 1197.5 3482.5 1197.5" stroke="#BFBFBF" stroke-width="3.4375" stroke-linejoin="round" stroke-miterlimit="10" fill="none" fill-rule="evenodd"/></g><g clip-path="url(#clip5)"><path d="M1981.5 1197.07C2081.57 1197.07 2181.63 1197.08 2281.7 1197.06 2381.77 1197.04 2481.83 1197.16 2581.9 1196.96 2681.97 1196.75 2782.03 1198.36 2882.1 1195.83 2982.17 1193.3 3082.23 1209.5 3182.3 1181.78 3282.37 1154.06 3382.43 1080.26 3482.5 1029.5" stroke="#4472C4" stroke-width="6.875" stroke-linecap="round" stroke-linejoin="round" stroke-miterlimit="10" fill="none"/></g><g clip-path="url(#clip6)"><path d="M1993 1197.12C1993 1203.2 1988.07 1208.12 1982 1208.12 1975.92 1208.12 1971 1203.2 1971 1197.12 1971 1191.05 1975.92 1186.13 1982 1186.13 1988.07 1186.13 1993 1191.05 1993 1197.12Z" stroke="#4472C4" stroke-width="3.4375" stroke-linejoin="round" stroke-miterlimit="10" fill="#4472C4"/><path d="M2293 1197.12C2293 1203.2 2288.07 1208.12 2282 1208.12 2275.92 1208.12 2271 1203.2 2271 1197.12 2271 1191.05 2275.92 1186.13 2282 1186.13 2288.07 1186.13 2293 1191.05 2293 1197.12Z" stroke="#4472C4" stroke-width="3.4375" stroke-linejoin="round" stroke-miterlimit="10" fill="#4472C4"/><path d="M2593 1197.12C2593 1203.2 2588.07 1208.12 2582 1208.12 2575.92 1208.12 2571 1203.2 2571 1197.12 2571 1191.05 2575.92 1186.13 2582 1186.13 2588.07 1186.13 2593 1191.05 2593 1197.12Z" stroke="#4472C4" stroke-width="3.4375" stroke-linejoin="round" stroke-miterlimit="10" fill="#4472C4"/><path d="M2894 1196.12C2894 1202.2 2889.07 1207.12 2883 1207.12 2876.92 1207.12 2872 1202.2 2872 1196.12 2872 1190.05 2876.92 1185.13 2883 1185.13 2889.07 1185.13 2894 1190.05 2894 1196.12Z" stroke="#4472C4" stroke-width="3.4375" stroke-linejoin="round" stroke-miterlimit="10" fill="#4472C4"/><path d="M3194 1182.12C3194 1188.2 3189.07 1193.12 3183 1193.12 3176.92 1193.12 3172 1188.2 3172 1182.12 3172 1176.05 3176.92 1171.13 3183 1171.13 3189.07 1171.13 3194 1176.05 3194 1182.12Z" stroke="#4472C4" stroke-width="3.4375" stroke-linejoin="round" stroke-miterlimit="10" fill="#4472C4"/><path d="M3494 1029.12C3494 1035.2 3489.07 1040.12 3483 1040.12 3476.92 1040.12 3472 1035.2 3472 1029.12 3472 1023.05 3476.92 1018.13 3483 1018.13 3489.07 1018.13 3494 1023.05 3494 1029.12Z" stroke="#4472C4" stroke-width="3.4375" stroke-linejoin="round" stroke-miterlimit="10" fill="#4472C4"/></g><g clip-path="url(#clip7)"><path d="M1981.5 1197.9C2081.57 1197.88 2181.63 1197.95 2281.7 1197.84 2381.77 1197.73 2481.83 1198.3 2581.9 1197.24 2681.97 1196.17 2782.03 1202.87 2882.1 1191.44 2982.17 1180.02 3082.23 1231.5 3182.3 1128.68 3282.37 1025.85 3382.43 759.225 3482.5 574.5" stroke="#ED7D31" stroke-width="6.875" stroke-linecap="round" stroke-linejoin="round" stroke-miterlimit="10" fill="none"/></g><g clip-path="url(#clip8)"><path d="M1993 1197.12C1993 1203.2 1988.07 1208.12 1982 1208.12 1975.92 1208.12 1971 1203.2 1971 1197.12 1971 1191.05 1975.92 1186.13 1982 1186.13 1988.07 1186.13 1993 1191.05 1993 1197.12Z" stroke="#ED7D31" stroke-width="3.4375" stroke-linejoin="round" stroke-miterlimit="10" fill="#ED7D31"/><path d="M2293 1197.12C2293 1203.2 2288.07 1208.12 2282 1208.12 2275.92 1208.12 2271 1203.2 2271 1197.12 2271 1191.05 2275.92 1186.13 2282 1186.13 2288.07 1186.13 2293 1191.05 2293 1197.12Z" stroke="#ED7D31" stroke-width="3.4375" stroke-linejoin="round" stroke-miterlimit="10" fill="#ED7D31"/><path d="M2593 1196.12C2593 1202.2 2588.07 1207.12 2582 1207.12 2575.92 1207.12 2571 1202.2 2571 1196.12 2571 1190.05 2575.92 1185.13 2582 1185.13 2588.07 1185.13 2593 1190.05 2593 1196.12Z" stroke="#ED7D31" stroke-width="3.4375" stroke-linejoin="round" stroke-miterlimit="10" fill="#ED7D31"/><path d="M2894 1191.12C2894 1197.2 2889.07 1202.12 2883 1202.12 2876.92 1202.12 2872 1197.2 2872 1191.12 2872 1185.05 2876.92 1180.12 2883 1180.12 2889.07 1180.12 2894 1185.05 2894 1191.12Z" stroke="#ED7D31" stroke-width="3.4375" stroke-linejoin="round" stroke-miterlimit="10" fill="#ED7D31"/><path d="M3194 1128.12C3194 1134.2 3189.07 1139.12 3183 1139.12 3176.92 1139.12 3172 1134.2 3172 1128.12 3172 1122.05 3176.92 1117.13 3183 1117.13 3189.07 1117.13 3194 1122.05 3194 1128.12Z" stroke="#ED7D31" stroke-width="3.4375" stroke-linejoin="round" stroke-miterlimit="10" fill="#ED7D31"/><path d="M3494 574.125C3494 580.2 3489.07 585.124 3483 585.124 3476.92 585.124 3472 580.2 3472 574.125 3472 568.05 3476.92 563.125 3483 563.125 3489.07 563.125 3494 568.05 3494 574.125Z" stroke="#ED7D31" stroke-width="3.4375" stroke-linejoin="round" stroke-miterlimit="10" fill="#ED7D31"/></g><g clip-path="url(#clip9)"><path d="M1981.5 1197.79C2081.57 1197.78 2181.63 1197.82 2281.7 1197.76 2381.77 1197.7 2481.83 1198.07 2581.9 1197.43 2681.97 1196.79 2782.03 1199.08 2882.1 1193.91 2982.17 1188.74 3082.23 1214.5 3182.3 1166.43 3282.37 1118.36 3382.43 992.477 3482.5 905.5" stroke="#A5A5A5" stroke-width="6.875" stroke-linecap="round" stroke-linejoin="round" stroke-miterlimit="10" fill="none"/></g><g clip-path="url(#clip10)"><path d="M1993 1197.12C1993 1203.2 1988.07 1208.12 1982 1208.12 1975.92 1208.12 1971 1203.2 1971 1197.12 1971 1191.05 1975.92 1186.13 1982 1186.13 1988.07 1186.13 1993 1191.05 1993 1197.12Z" stroke="#A5A5A5" stroke-width="3.4375" stroke-linejoin="round" stroke-miterlimit="10" fill="#A5A5A5"/><path d="M2293 1197.12C2293 1203.2 2288.07 1208.12 2282 1208.12 2275.92 1208.12 2271 1203.2 2271 1197.12 2271 1191.05 2275.92 1186.13 2282 1186.13 2288.07 1186.13 2293 1191.05 2293 1197.12Z" stroke="#A5A5A5" stroke-width="3.4375" stroke-linejoin="round" stroke-miterlimit="10" fill="#A5A5A5"/><path d="M2593 1197.12C2593 1203.2 2588.07 1208.12 2582 1208.12 2575.92 1208.12 2571 1203.2 2571 1197.12 2571 1191.05 2575.92 1186.13 2582 1186.13 2588.07 1186.13 2593 1191.05 2593 1197.12Z" stroke="#A5A5A5" stroke-width="3.4375" stroke-linejoin="round" stroke-miterlimit="10" fill="#A5A5A5"/><path d="M2894 1193.12C2894 1199.2 2889.07 1204.12 2883 1204.12 2876.92 1204.12 2872 1199.2 2872 1193.12 2872 1187.05 2876.92 1182.13 2883 1182.13 2889.07 1182.13 2894 1187.05 2894 1193.12Z" stroke="#A5A5A5" stroke-width="3.4375" stroke-linejoin="round" stroke-miterlimit="10" fill="#A5A5A5"/><path d="M3194 1166.12C3194 1172.2 3189.07 1177.12 3183 1177.12 3176.92 1177.12 3172 1172.2 3172 1166.12 3172 1160.05 3176.92 1155.13 3183 1155.13 3189.07 1155.13 3194 1160.05 3194 1166.12Z" stroke="#A5A5A5" stroke-width="3.4375" stroke-linejoin="round" stroke-miterlimit="10" fill="#A5A5A5"/><path d="M3494 905.125C3494 911.2 3489.07 916.124 3483 916.124 3476.92 916.124 3472 911.2 3472 905.125 3472 899.05 3476.92 894.125 3483 894.125 3489.07 894.125 3494 899.05 3494 905.125Z" stroke="#A5A5A5" stroke-width="3.4375" stroke-linejoin="round" stroke-miterlimit="10" fill="#A5A5A5"/></g><g clip-path="url(#clip11)"><path d="M1981.5 1197.45C2081.57 1197.44 2181.63 1197.47 2281.7 1197.43 2381.77 1197.4 2481.83 1197.56 2581.9 1197.26 2681.97 1196.95 2782.03 1198.25 2882.1 1195.59 2982.17 1192.94 3082.23 1206.5 3182.3 1181.32 3282.37 1156.14 3382.43 1090.11 3482.5 1044.5" stroke="#FFC000" stroke-width="6.875" stroke-linecap="round" stroke-linejoin="round" stroke-miterlimit="10" fill="none"/></g><g clip-path="url(#clip12)"><path d="M1993 1197.12C1993 1203.2 1988.07 1208.12 1982 1208.12 1975.92 1208.12 1971 1203.2 1971 1197.12 1971 1191.05 1975.92 1186.13 1982 1186.13 1988.07 1186.13 1993 1191.05 1993 1197.12Z" stroke="#FFC000" stroke-width="3.4375" stroke-linejoin="round" stroke-miterlimit="10" fill="#FFC000"/><path d="M2293 1197.12C2293 1203.2 2288.07 1208.12 2282 1208.12 2275.92 1208.12 2271 1203.2 2271 1197.12 2271 1191.05 2275.92 1186.13 2282 1186.13 2288.07 1186.13 2293 1191.05 2293 1197.12Z" stroke="#FFC000" stroke-width="3.4375" stroke-linejoin="round" stroke-miterlimit="10" fill="#FFC000"/><path d="M2593 1197.12C2593 1203.2 2588.07 1208.12 2582 1208.12 2575.92 1208.12 2571 1203.2 2571 1197.12 2571 1191.05 2575.92 1186.13 2582 1186.13 2588.07 1186.13 2593 1191.05 2593 1197.12Z" stroke="#FFC000" stroke-width="3.4375" stroke-linejoin="round" stroke-miterlimit="10" fill="#FFC000"/><path d="M2894 1195.12C2894 1201.2 2889.07 1206.12 2883 1206.12 2876.92 1206.12 2872 1201.2 2872 1195.12 2872 1189.05 2876.92 1184.13 2883 1184.13 2889.07 1184.13 2894 1189.05 2894 1195.12Z" stroke="#FFC000" stroke-width="3.4375" stroke-linejoin="round" stroke-miterlimit="10" fill="#FFC000"/><path d="M3194 1181.12C3194 1187.2 3189.07 1192.12 3183 1192.12 3176.92 1192.12 3172 1187.2 3172 1181.12 3172 1175.05 3176.92 1170.12 3183 1170.12 3189.07 1170.12 3194 1175.05 3194 1181.12Z" stroke="#FFC000" stroke-width="3.4375" stroke-linejoin="round" stroke-miterlimit="10" fill="#FFC000"/><path d="M3494 1044.12C3494 1050.2 3489.07 1055.12 3483 1055.12 3476.92 1055.12 3472 1050.2 3472 1044.12 3472 1038.05 3476.92 1033.13 3483 1033.13 3489.07 1033.13 3494 1038.05 3494 1044.12Z" stroke="#FFC000" stroke-width="3.4375" stroke-linejoin="round" stroke-miterlimit="10" fill="#FFC000"/></g><g clip-path="url(#clip13)"><path d="M1981.5 1197.57C2081.57 1197.56 2181.63 1197.58 2281.7 1197.56 2381.77 1197.54 2481.83 1197.63 2581.9 1197.46 2681.97 1197.28 2782.03 1197.74 2882.1 1196.53 2982.17 1195.31 3082.23 1202.5 3182.3 1190.16 3282.37 1177.82 3382.43 1145.05 3482.5 1122.5" stroke="#5B9BD5" stroke-width="6.875" stroke-linecap="round" stroke-linejoin="round" stroke-miterlimit="10" fill="none"/></g><g clip-path="url(#clip14)"><path d="M1993 1197.12C1993 1203.2 1988.07 1208.12 1982 1208.12 1975.92 1208.12 1971 1203.2 1971 1197.12 1971 1191.05 1975.92 1186.13 1982 1186.13 1988.07 1186.13 1993 1191.05 1993 1197.12Z" stroke="#5B9BD5" stroke-width="3.4375" stroke-linejoin="round" stroke-miterlimit="10" fill="#5B9BD5"/><path d="M2293 1197.12C2293 1203.2 2288.07 1208.12 2282 1208.12 2275.92 1208.12 2271 1203.2 2271 1197.12 2271 1191.05 2275.92 1186.13 2282 1186.13 2288.07 1186.13 2293 1191.05 2293 1197.12Z" stroke="#5B9BD5" stroke-width="3.4375" stroke-linejoin="round" stroke-miterlimit="10" fill="#5B9BD5"/><path d="M2593 1197.12C2593 1203.2 2588.07 1208.12 2582 1208.12 2575.92 1208.12 2571 1203.2 2571 1197.12 2571 1191.05 2575.92 1186.13 2582 1186.13 2588.07 1186.13 2593 1191.05 2593 1197.12Z" stroke="#5B9BD5" stroke-width="3.4375" stroke-linejoin="round" stroke-miterlimit="10" fill="#5B9BD5"/><path d="M2894 1196.12C2894 1202.2 2889.07 1207.12 2883 1207.12 2876.92 1207.12 2872 1202.2 2872 1196.12 2872 1190.05 2876.92 1185.13 2883 1185.13 2889.07 1185.13 2894 1190.05 2894 1196.12Z" stroke="#5B9BD5" stroke-width="3.4375" stroke-linejoin="round" stroke-miterlimit="10" fill="#5B9BD5"/><path d="M3194 1190.12C3194 1196.2 3189.07 1201.12 3183 1201.12 3176.92 1201.12 3172 1196.2 3172 1190.12 3172 1184.05 3176.92 1179.12 3183 1179.12 3189.07 1179.12 3194 1184.05 3194 1190.12Z" stroke="#5B9BD5" stroke-width="3.4375" stroke-linejoin="round" stroke-miterlimit="10" fill="#5B9BD5"/><path d="M3494 1122.12C3494 1128.2 3489.07 1133.12 3483 1133.12 3476.92 1133.12 3472 1128.2 3472 1122.12 3472 1116.05 3476.92 1111.13 3483 1111.13 3489.07 1111.13 3494 1116.05 3494 1122.12Z" stroke="#5B9BD5" stroke-width="3.4375" stroke-linejoin="round" stroke-miterlimit="10" fill="#5B9BD5"/></g><g clip-path="url(#clip15)"><path d="M1981.5 1196.95C2081.57 1196.95 2181.63 1196.96 2281.7 1196.94 2381.77 1196.92 2481.83 1196.93 2581.9 1196.84 2681.97 1196.74 2782.03 1197.01 2882.1 1196.37 2982.17 1195.74 3082.23 1199.5 3182.3 1193.02 3282.37 1186.54 3382.43 1169.34 3482.5 1157.5" stroke="#70AD47" stroke-width="6.875" stroke-linecap="round" stroke-linejoin="round" stroke-miterlimit="10" fill="none"/></g><g clip-path="url(#clip16)"><path d="M1993 1197.12C1993 1203.2 1988.07 1208.12 1982 1208.12 1975.92 1208.12 1971 1203.2 1971 1197.12 1971 1191.05 1975.92 1186.13 1982 1186.13 1988.07 1186.13 1993 1191.05 1993 1197.12Z" stroke="#70AD47" stroke-width="3.4375" stroke-linejoin="round" stroke-miterlimit="10" fill="#70AD47"/><path d="M2293 1197.12C2293 1203.2 2288.07 1208.12 2282 1208.12 2275.92 1208.12 2271 1203.2 2271 1197.12 2271 1191.05 2275.92 1186.13 2282 1186.13 2288.07 1186.13 2293 1191.05 2293 1197.12Z" stroke="#70AD47" stroke-width="3.4375" stroke-linejoin="round" stroke-miterlimit="10" fill="#70AD47"/><path d="M2593 1197.12C2593 1203.2 2588.07 1208.12 2582 1208.12 2575.92 1208.12 2571 1203.2 2571 1197.12 2571 1191.05 2575.92 1186.13 2582 1186.13 2588.07 1186.13 2593 1191.05 2593 1197.12Z" stroke="#70AD47" stroke-width="3.4375" stroke-linejoin="round" stroke-miterlimit="10" fill="#70AD47"/><path d="M2894 1196.12C2894 1202.2 2889.07 1207.12 2883 1207.12 2876.92 1207.12 2872 1202.2 2872 1196.12 2872 1190.05 2876.92 1185.13 2883 1185.13 2889.07 1185.13 2894 1190.05 2894 1196.12Z" stroke="#70AD47" stroke-width="3.4375" stroke-linejoin="round" stroke-miterlimit="10" fill="#70AD47"/><path d="M3194 1193.12C3194 1199.2 3189.07 1204.12 3183 1204.12 3176.92 1204.12 3172 1199.2 3172 1193.12 3172 1187.05 3176.92 1182.13 3183 1182.13 3189.07 1182.13 3194 1187.05 3194 1193.12Z" stroke="#70AD47" stroke-width="3.4375" stroke-linejoin="round" stroke-miterlimit="10" fill="#70AD47"/><path d="M3494 1157.12C3494 1163.2 3489.07 1168.12 3483 1168.12 3476.92 1168.12 3472 1163.2 3472 1157.12 3472 1151.05 3476.92 1146.12 3483 1146.12 3489.07 1146.12 3494 1151.05 3494 1157.12Z" stroke="#70AD47" stroke-width="3.4375" stroke-linejoin="round" stroke-miterlimit="10" fill="#70AD47"/></g><g clip-path="url(#clip17)"><text fill="#595959" font-family="Calibri,Calibri_MSFontService,sans-serif" font-weight="400" font-size="41" transform="matrix(1 0 0 1 1922.18 1209)">0</text></g><g clip-path="url(#clip18)"><text fill="#595959" font-family="Calibri,Calibri_MSFontService,sans-serif" font-weight="400" font-size="41" transform="matrix(1 0 0 1 1880.38 1142)">200</text></g><g clip-path="url(#clip19)"><text fill="#595959" font-family="Calibri,Calibri_MSFontService,sans-serif" font-weight="400" font-size="41" transform="matrix(1 0 0 1 1880.38 1076)">400</text></g><g clip-path="url(#clip20)"><text fill="#595959" font-family="Calibri,Calibri_MSFontService,sans-serif" font-weight="400" font-size="41" transform="matrix(1 0 0 1 1880.38 1009)">600</text></g><g clip-path="url(#clip21)"><text fill="#595959" font-family="Calibri,Calibri_MSFontService,sans-serif" font-weight="400" font-size="41" transform="matrix(1 0 0 1 1880.38 943)">800</text></g><g clip-path="url(#clip22)"><text fill="#595959" font-family="Calibri,Calibri_MSFontService,sans-serif" font-weight="400" font-size="41" transform="matrix(1 0 0 1 1859.48 876)">1000</text></g><g clip-path="url(#clip23)"><text fill="#595959" font-family="Calibri,Calibri_MSFontService,sans-serif" font-weight="400" font-size="41" transform="matrix(1 0 0 1 1859.48 810)">1200</text></g><g clip-path="url(#clip24)"><text fill="#595959" font-family="Calibri,Calibri_MSFontService,sans-serif" font-weight="400" font-size="41" transform="matrix(1 0 0 1 1859.48 743)">1400</text></g><g clip-path="url(#clip25)"><text fill="#595959" font-family="Calibri,Calibri_MSFontService,sans-serif" font-weight="400" font-size="41" transform="matrix(1 0 0 1 1859.48 676)">1600</text></g><g clip-path="url(#clip26)"><text fill="#595959" font-family="Calibri,Calibri_MSFontService,sans-serif" font-weight="400" font-size="41" transform="matrix(1 0 0 1 1859.48 610)">1800</text></g><g clip-path="url(#clip27)"><text fill="#595959" font-family="Calibri,Calibri_MSFontService,sans-serif" font-weight="400" font-size="41" transform="matrix(1 0 0 1 1859.48 543)">2000</text></g><g clip-path="url(#clip28)"><text fill="#595959" font-family="Calibri,Calibri_MSFontService,sans-serif" font-weight="400" font-size="41" transform="matrix(1 0 0 1 1960.45 1263)">10</text></g><g clip-path="url(#clip29)"><text fill="#595959" font-family="Calibri,Calibri_MSFontService,sans-serif" font-weight="400" font-size="41" transform="matrix(1 0 0 1 2250.27 1263)">100</text></g><g clip-path="url(#clip30)"><text fill="#595959" font-family="Calibri,Calibri_MSFontService,sans-serif" font-weight="400" font-size="41" transform="matrix(1 0 0 1 2540.09 1263)">1000</text></g><g clip-path="url(#clip31)"><text fill="#595959" font-family="Calibri,Calibri_MSFontService,sans-serif" font-weight="400" font-size="41" transform="matrix(1 0 0 1 2829.91 1263)">10000</text></g><g clip-path="url(#clip32)"><text fill="#595959" font-family="Calibri,Calibri_MSFontService,sans-serif" font-weight="400" font-size="41" transform="matrix(1 0 0 1 3119.73 1263)">100000</text></g><g clip-path="url(#clip33)"><text fill="#595959" font-family="Calibri,Calibri_MSFontService,sans-serif" font-weight="400" font-size="41" transform="matrix(1 0 0 1 3409.55 1263)">1000000</text></g><g clip-path="url(#clip34)"><text fill="#595959" font-family="Calibri,Calibri_MSFontService,sans-serif" font-weight="400" font-size="46" transform="matrix(6.12323e-17 -1 1 6.12323e-17 1833.79 973)">Temps [ms]</text></g><g clip-path="url(#clip35)"><text fill="#595959" font-family="Calibri,Calibri_MSFontService,sans-serif" font-weight="400" font-size="46" transform="matrix(1 0 0 1 2662.39 1332)">Valeurs</text></g><g clip-path="url(#clip36)"><text fill="#595959" font-family="Calibri,Calibri_MSFontService,sans-serif" font-weight="400" font-size="64" transform="matrix(1 0 0 1 2635.68 457)">Vecteur presque trié</text></g><g clip-path="url(#clip37)"><path d="M3627.5 747.5 3715.5 747.501" stroke="#4472C4" stroke-width="6.875" stroke-linecap="round" stroke-linejoin="round" stroke-miterlimit="10" fill="none" fill-rule="evenodd"/></g><g clip-path="url(#clip38)"><path d="M3682 747C3682 753.075 3677.07 758 3671 758 3664.93 758 3660 753.075 3660 747 3660 740.925 3664.93 736 3671 736 3677.07 736 3682 740.925 3682 747Z" stroke="#4472C4" stroke-width="3.4375" stroke-linejoin="round" stroke-miterlimit="10" fill="#4472C4"/></g><g clip-path="url(#clip39)"><text fill="#595959" font-family="Calibri,Calibri_MSFontService,sans-serif" font-weight="400" font-size="41" transform="matrix(1 0 0 1 3724.86 759)">TriRapide</text></g><g clip-path="url(#clip40)"><path d="M3627.5 825.5 3715.5 825.5" stroke="#ED7D31" stroke-width="6.875" stroke-linecap="round" stroke-linejoin="round" stroke-miterlimit="10" fill="none" fill-rule="evenodd"/></g><g clip-path="url(#clip41)"><path d="M3682 825.499C3682 831.31 3677.07 836.021 3671 836.021 3664.93 836.021 3660 831.31 3660 825.499 3660 819.689 3664.93 814.978 3671 814.978 3677.07 814.978 3682 819.689 3682 825.499Z" stroke="#ED7D31" stroke-width="3.4375" stroke-linejoin="round" stroke-miterlimit="10" fill="#ED7D31"/></g><g clip-path="url(#clip42)"><text fill="#595959" font-family="Calibri,Calibri_MSFontService,sans-serif" font-weight="400" font-size="41" transform="matrix(1 0 0 1 3724.86 837)">TriParBase 1 bit</text></g><g clip-path="url(#clip43)"><path d="M3627.5 902.5 3715.5 902.5" stroke="#A5A5A5" stroke-width="6.875" stroke-linecap="round" stroke-linejoin="round" stroke-miterlimit="10" fill="none" fill-rule="evenodd"/></g><g clip-path="url(#clip44)"><path d="M3682 902.499C3682 908.31 3677.07 913.021 3671 913.021 3664.93 913.021 3660 908.31 3660 902.499 3660 896.689 3664.93 891.978 3671 891.978 3677.07 891.978 3682 896.689 3682 902.499Z" stroke="#A5A5A5" stroke-width="3.4375" stroke-linejoin="round" stroke-miterlimit="10" fill="#A5A5A5"/></g><g clip-path="url(#clip45)"><text fill="#595959" font-family="Calibri,Calibri_MSFontService,sans-serif" font-weight="400" font-size="41" transform="matrix(1 0 0 1 3724.86 914)">TriParBase 2 bits</text></g><g clip-path="url(#clip46)"><path d="M3627.5 979.5 3715.5 979.5" stroke="#FFC000" stroke-width="6.875" stroke-linecap="round" stroke-linejoin="round" stroke-miterlimit="10" fill="none" fill-rule="evenodd"/></g><g clip-path="url(#clip47)"><path d="M3682 979.499C3682 985.31 3677.07 990.021 3671 990.021 3664.93 990.021 3660 985.31 3660 979.499 3660 973.689 3664.93 968.978 3671 968.978 3677.07 968.978 3682 973.689 3682 979.499Z" stroke="#FFC000" stroke-width="3.4375" stroke-linejoin="round" stroke-miterlimit="10" fill="#FFC000"/></g><g clip-path="url(#clip48)"><text fill="#595959" font-family="Calibri,Calibri_MSFontService,sans-serif" font-weight="400" font-size="41" transform="matrix(1 0 0 1 3724.86 991)">TriParBase 4 bits</text></g><g clip-path="url(#clip49)"><path d="M3627.5 1057.5 3715.5 1057.5" stroke="#5B9BD5" stroke-width="6.875" stroke-linecap="round" stroke-linejoin="round" stroke-miterlimit="10" fill="none" fill-rule="evenodd"/></g><g clip-path="url(#clip50)"><path d="M3682 1057C3682 1063.07 3677.07 1068 3671 1068 3664.93 1068 3660 1063.07 3660 1057 3660 1050.92 3664.93 1046 3671 1046 3677.07 1046 3682 1050.92 3682 1057Z" stroke="#5B9BD5" stroke-width="3.4375" stroke-linejoin="round" stroke-miterlimit="10" fill="#5B9BD5"/></g><g clip-path="url(#clip51)"><text fill="#595959" font-family="Calibri,Calibri_MSFontService,sans-serif" font-weight="400" font-size="41" transform="matrix(1 0 0 1 3724.86 1069)">TriParBase 8 bits</text></g><g clip-path="url(#clip52)"><path d="M3627.5 1134.5 3715.5 1134.5" stroke="#70AD47" stroke-width="6.875" stroke-linecap="round" stroke-linejoin="round" stroke-miterlimit="10" fill="none" fill-rule="evenodd"/></g><g clip-path="url(#clip53)"><path d="M3682 1134C3682 1140.07 3677.07 1145 3671 1145 3664.93 1145 3660 1140.07 3660 1134 3660 1127.92 3664.93 1123 3671 1123 3677.07 1123 3682 1127.92 3682 1134Z" stroke="#70AD47" stroke-width="3.4375" stroke-linejoin="round" stroke-miterlimit="10" fill="#70AD47"/></g><g clip-path="url(#clip54)"><text fill="#595959" font-family="Calibri,Calibri_MSFontService,sans-serif" font-weight="400" font-size="41" transform="matrix(1 0 0 1 3724.86 1146)">TriParBase 16 bits</text></g><rect x="1733.5" y="362.5" width="2338" height="1039" stroke="#D9D9D9" stroke-width="3.4375" stroke-linejoin="round" stroke-miterlimit="10" fill="none"/></g></svg>