<svg width="2390" height="1274" xmlns="http://www.w3.org/2000/svg" xmlns:xlink="http://www.w3.org/1999/xlink" xml:space="preserve" overflow="hidden"><defs><clipPath id="clip0"><rect x="2349" y="2245" width="2390" height="1274"/></clipPath><clipPath id="clip1"><rect x="2349" y="2246" width="2387" height="1270"/></clipPath><clipPath id="clip2"><rect x="2349" y="2246" width="2387" height="1270"/></clipPath><clipPath id="clip3"><rect x="2349" y="2246" width="2387" height="1270"/></clipPath><clipPath id="clip4"><rect x="2349" y="2246" width="2387" height="1270"/></clipPath><clipPath id="clip5"><rect x="2556" y="2416" width="2071" height="725"/></clipPath><clipPath id="clip6"><rect x="2349" y="2246" width="2387" height="1270"/></clipPath><clipPath id="clip7"><rect x="2556" y="2416" width="2071" height="725"/></clipPath><clipPath id="clip8"><rect x="2349" y="2246" width="2387" height="1270"/></clipPath><clipPath id="clip9"><rect x="2556" y="2416" width="2071" height="725"/></clipPath><clipPath id="clip10"><rect x="2349" y="2246" width="2387" height="1270"/></clipPath><clipPath id="clip11"><rect x="2556" y="2416" width="2071" height="725"/></clipPath><clipPath id="clip12"><rect x="2349" y="2246" width="2387" height="1270"/></clipPath><clipPath id="clip13"><rect x="2556" y="2416" width="2071" height="725"/></clipPath><clipPath id="clip14"><rect x="2349" y="2246" width="2387" height="1270"/></clipPath><clipPath id="clip15"><rect x="2556" y="2416" width="2071" height="725"/></clipPath><clipPath id="clip16"><rect x="2349" y="2246" width="2387" height="1270"/></clipPath><clipPath id="clip17"><rect x="2349" y="2246" width="2387" height="1270"/></clipPath><clipPath id="clip18"><rect x="2349" y="2246" width="2387" height="1270"/></clipPath><clipPath id="clip19"><rect x="2349" y="2246" width="2387" height="1270"/></clipPath><clipPath id="clip20"><rect x="2349" y="2246" width="2387" height="1270"/></clipPath><clipPath id="clip21"><rect x="2349" y="2246" width="2387" height="1270"/></clipPath><clipPath id="clip22"><rect x="2349" y="2246" width="2387" height="1270"/></clipPath><clipPath id="clip23"><rect x="2349" y="2246" width="2387" height="1270"/></clipPath><clipPath id="clip24"><rect x="2349" y="2246" width="2387" height="1270"/></clipPath><clipPath id="clip25"><rect x="2349" y="2246" width="2387" height="1270"/></clipPath><clipPath id="clip26"><rect x="2349" y="2246" width="2387" height="1270"/></clipPath><clipPath id="clip27"><rect x="2349" y="2246" width="2387" height="1270"/></clipPath><clipPath id="clip28"><rect x="2349" y="2246" width="2387" height="1270"/></clipPath><clipPath id="clip29"><rect x="2349" y="2246" width="2387" height="1270"/></clipPath><clipPath id="clip30"><rect x="2349" y="2246" width="2387" height="1270"/></clipPath><clipPath id="clip31"><rect x="2349" y="2246" width="2387" height="1270"/></clipPath><clipPath id="clip32"><rect x="2349" y="2246" width="2387" height="1270"/></clipPath><clipPath id="clip33"><rect x="2349" y="2246" width="2387" height="1270"/></clipPath><clipPath id="clip34"><rect x="2349" y="2246" width="2387" height="1270"/></clipPath><clipPath id="clip35"><rect x="2349" y="2246" width="2387" height="1270"/></clipPath><clipPath id="clip36"><rect x="2349" y="2246" width="2387" height="1270"/></clipPath><clipPath id="clip37"><rect x="2349" y="2246" width="2387" height="1270"/></clipPath><clipPath id="clip38"><rect x="2349" y="2246" width="2387" height="1270"/></clipPath><clipPath id="clip39"><rect x="2349" y="2246" width="2387" height="1270"/></clipPath><clipPath id="clip40"><rect x="2349" y="2246" width="2387" height="1270"/></clipPath><clipPath id="clip41"><rect x="2349" y="2246" width="2387" height="1270"/></clipPath><clipPath id="clip42"><rect x="2349" y="2246" width="2387" height="1270"/></clipPath><clipPath id="clip43"><rect x="2349" y="2246" width="2387" height="1270"/></clipPath><clipPath id="clip44"><rect x="2349" y="2246" width="2387" height="1270"/></clipPath><clipPath id="clip45"><rect x="2349" y="2246" width="2387" height="1270"/></clipPath><clipPath id="clip46"><rect x="2349" y="2246" width="2387" height="1270"/></clipPath><clipPath id="clip47"><rect x="2349" y="2246" width="2387" height="1270"/></clipPath><clipPath id="clip48"><rect x="2349" y="2246" width="2387" height="1270"/></clipPath><clipPath id="clip49"><rect x="2349" y="2246" width="2387" height="1270"/></clipPath><clipPath id="clip50"><rect x="2349" y="2246" width="2387" height="1270"/></clipPath><clipPath id="clip51"><rect x="2349" y="2246" width="2387" height="1270"/></clipPath></defs><g clip-path="url(#clip0)" transform="translate(-2349 -2245)"><rect x="2350" y="2246" width="2387" height="1271" fill="#FFFFFF"/><g clip-path="url(#clip1)"><path d="M2556.5 3034.6 4623.5 3034.6M2556.5 2931.6 4623.5 2931.6M2556.5 2828.59 4623.5 2828.59M2556.5 2725.59 4623.5 2725.59M2556.5 2622.59 4623.5 2622.59M2556.5 2519.58 4623.5 2519.58M2556.5 2416.5 4623.5 2416.5" stroke="#D9D9D9" stroke-width="3.4375" stroke-linejoin="round" stroke-miterlimit="10" fill="none"/></g><g clip-path="url(#clip2)"><path d="M2932.6 2416.5 2932.6 3137.5M3308.61 2416.5 3308.61 3137.5M3684.62 2416.5 3684.62 3137.5M4059.63 2416.5 4059.63 3137.5M4435.5 2416.5 4435.5 3137.5" stroke="#D9D9D9" stroke-width="3.4375" stroke-linejoin="round" stroke-miterlimit="10" fill="none"/></g><g clip-path="url(#clip3)"><path d="M0 0 0.000360892 721" stroke="#BFBFBF" stroke-width="3.4375" stroke-linejoin="round" stroke-miterlimit="10" fill="none" fill-rule="evenodd" transform="matrix(1 0 0 -1 2556.5 3137.5)"/></g><g clip-path="url(#clip4)"><path d="M2556.5 3137.5 4623.5 3137.5" stroke="#BFBFBF" stroke-width="3.4375" stroke-linejoin="round" stroke-miterlimit="10" fill="none" fill-rule="evenodd"/></g><g clip-path="url(#clip5)"><path d="M2556.5 3137.5 2558.58 3137.6 2575.58 3136.6 2744.59 3123.6 4435.5 2989.5" stroke="#4472C4" stroke-width="6.875" stroke-linecap="round" stroke-linejoin="round" stroke-miterlimit="10" fill="none"/></g><g clip-path="url(#clip6)"><path d="M2567.03 3137.91C2567.03 3143.98 2562.11 3148.91 2556.03 3148.91 2549.96 3148.91 2545.03 3143.98 2545.03 3137.91 2545.03 3131.83 2549.96 3126.91 2556.03 3126.91 2562.11 3126.91 2567.03 3131.83 2567.03 3137.91Z" stroke="#4472C4" stroke-width="3.4375" stroke-linejoin="round" stroke-miterlimit="10" fill="#4472C4"/><path d="M2569.03 3137.91C2569.03 3143.98 2564.11 3148.91 2558.03 3148.91 2551.96 3148.91 2547.03 3143.98 2547.03 3137.91 2547.03 3131.83 2551.96 3126.91 2558.03 3126.91 2564.11 3126.91 2569.03 3131.83 2569.03 3137.91Z" stroke="#4472C4" stroke-width="3.4375" stroke-linejoin="round" stroke-miterlimit="10" fill="#4472C4"/><path d="M2586.03 3136.91C2586.03 3142.98 2581.11 3147.91 2575.03 3147.91 2568.96 3147.91 2564.03 3142.98 2564.03 3136.91 2564.03 3130.83 2568.96 3125.91 2575.03 3125.91 2581.11 3125.91 2586.03 3130.83 2586.03 3136.91Z" stroke="#4472C4" stroke-width="3.4375" stroke-linejoin="round" stroke-miterlimit="10" fill="#4472C4"/><path d="M2755.03 3123.91C2755.03 3129.98 2750.11 3134.91 2744.03 3134.91 2737.96 3134.91 2733.03 3129.98 2733.03 3123.91 2733.03 3117.83 2737.96 3112.91 2744.03 3112.91 2750.11 3112.91 2755.03 3117.83 2755.03 3123.91Z" stroke="#4472C4" stroke-width="3.4375" stroke-linejoin="round" stroke-miterlimit="10" fill="#4472C4"/><path d="M4446.03 2989.91C4446.03 2995.98 4441.11 3000.91 4435.03 3000.91 4428.96 3000.91 4424.03 2995.98 4424.03 2989.91 4424.03 2983.83 4428.96 2978.91 4435.03 2978.91 4441.11 2978.91 4446.03 2983.83 4446.03 2989.91Z" stroke="#4472C4" stroke-width="3.4375" stroke-linejoin="round" stroke-miterlimit="10" fill="#4472C4"/></g><g clip-path="url(#clip7)"><path d="M2556.5 3137.5 2558.58 3136.6 2575.58 3130.6 2744.59 3071.6 4435.5 2507.5" stroke="#ED7D31" stroke-width="6.875" stroke-linecap="round" stroke-linejoin="round" stroke-miterlimit="10" fill="none"/></g><g clip-path="url(#clip8)"><path d="M2567.03 3137.91C2567.03 3143.98 2562.11 3148.91 2556.03 3148.91 2549.96 3148.91 2545.03 3143.98 2545.03 3137.91 2545.03 3131.83 2549.96 3126.91 2556.03 3126.91 2562.11 3126.91 2567.03 3131.83 2567.03 3137.91Z" stroke="#ED7D31" stroke-width="3.4375" stroke-linejoin="round" stroke-miterlimit="10" fill="#ED7D31"/><path d="M2569.03 3136.91C2569.03 3142.98 2564.11 3147.91 2558.03 3147.91 2551.96 3147.91 2547.03 3142.98 2547.03 3136.91 2547.03 3130.83 2551.96 3125.91 2558.03 3125.91 2564.11 3125.91 2569.03 3130.83 2569.03 3136.91Z" stroke="#ED7D31" stroke-width="3.4375" stroke-linejoin="round" stroke-miterlimit="10" fill="#ED7D31"/><path d="M2586.03 3130.91C2586.03 3136.98 2581.11 3141.91 2575.03 3141.91 2568.96 3141.91 2564.03 3136.98 2564.03 3130.91 2564.03 3124.83 2568.96 3119.91 2575.03 3119.91 2581.11 3119.91 2586.03 3124.83 2586.03 3130.91Z" stroke="#ED7D31" stroke-width="3.4375" stroke-linejoin="round" stroke-miterlimit="10" fill="#ED7D31"/><path d="M2755.03 3071.91C2755.03 3077.98 2750.11 3082.91 2744.03 3082.91 2737.96 3082.91 2733.03 3077.98 2733.03 3071.91 2733.03 3065.83 2737.96 3060.91 2744.03 3060.91 2750.11 3060.91 2755.03 3065.83 2755.03 3071.91Z" stroke="#ED7D31" stroke-width="3.4375" stroke-linejoin="round" stroke-miterlimit="10" fill="#ED7D31"/><path d="M4446.03 2507.91C4446.03 2513.98 4441.11 2518.91 4435.03 2518.91 4428.96 2518.91 4424.03 2513.98 4424.03 2507.91 4424.03 2501.83 4428.96 2496.91 4435.03 2496.91 4441.11 2496.91 4446.03 2501.83 4446.03 2507.91Z" stroke="#ED7D31" stroke-width="3.4375" stroke-linejoin="round" stroke-miterlimit="10" fill="#ED7D31"/></g><g clip-path="url(#clip9)"><path d="M2556.5 3137.5 2558.58 3137.6 2575.58 3134.6 2744.59 3109.6 4435.5 2886.5" stroke="#A5A5A5" stroke-width="6.875" stroke-linecap="round" stroke-linejoin="round" stroke-miterlimit="10" fill="none"/></g><g clip-path="url(#clip10)"><path d="M2567.03 3137.91C2567.03 3143.98 2562.11 3148.91 2556.03 3148.91 2549.96 3148.91 2545.03 3143.98 2545.03 3137.91 2545.03 3131.83 2549.96 3126.91 2556.03 3126.91 2562.11 3126.91 2567.03 3131.83 2567.03 3137.91Z" stroke="#A5A5A5" stroke-width="3.4375" stroke-linejoin="round" stroke-miterlimit="10" fill="#A5A5A5"/><path d="M2569.03 3137.91C2569.03 3143.98 2564.11 3148.91 2558.03 3148.91 2551.96 3148.91 2547.03 3143.98 2547.03 3137.91 2547.03 3131.83 2551.96 3126.91 2558.03 3126.91 2564.11 3126.91 2569.03 3131.83 2569.03 3137.91Z" stroke="#A5A5A5" stroke-width="3.4375" stroke-linejoin="round" stroke-miterlimit="10" fill="#A5A5A5"/><path d="M2586.03 3134.91C2586.03 3140.98 2581.11 3145.91 2575.03 3145.91 2568.96 3145.91 2564.03 3140.98 2564.03 3134.91 2564.03 3128.83 2568.96 3123.91 2575.03 3123.91 2581.11 3123.91 2586.03 3128.83 2586.03 3134.91Z" stroke="#A5A5A5" stroke-width="3.4375" stroke-linejoin="round" stroke-miterlimit="10" fill="#A5A5A5"/><path d="M2755.03 3109.91C2755.03 3115.98 2750.11 3120.91 2744.03 3120.91 2737.96 3120.91 2733.03 3115.98 2733.03 3109.91 2733.03 3103.83 2737.96 3098.91 2744.03 3098.91 2750.11 3098.91 2755.03 3103.83 2755.03 3109.91Z" stroke="#A5A5A5" stroke-width="3.4375" stroke-linejoin="round" stroke-miterlimit="10" fill="#A5A5A5"/><path d="M4446.03 2886.91C4446.03 2892.98 4441.11 2897.91 4435.03 2897.91 4428.96 2897.91 4424.03 2892.98 4424.03 2886.91 4424.03 2880.83 4428.96 2875.91 4435.03 2875.91 4441.11 2875.91 4446.03 2880.83 4446.03 2886.91Z" stroke="#A5A5A5" stroke-width="3.4375" stroke-linejoin="round" stroke-miterlimit="10" fill="#A5A5A5"/></g><g clip-path="url(#clip11)"><path d="M2556.5 3137.5 2558.58 3137.6 2575.58 3136.6 2744.59 3122.6 4435.5 2998.5" stroke="#FFC000" stroke-width="6.875" stroke-linecap="round" stroke-linejoin="round" stroke-miterlimit="10" fill="none"/></g><g clip-path="url(#clip12)"><path d="M2567.03 3137.91C2567.03 3143.98 2562.11 3148.91 2556.03 3148.91 2549.96 3148.91 2545.03 3143.98 2545.03 3137.91 2545.03 3131.83 2549.96 3126.91 2556.03 3126.91 2562.11 3126.91 2567.03 3131.83 2567.03 3137.91Z" stroke="#FFC000" stroke-width="3.4375" stroke-linejoin="round" stroke-miterlimit="10" fill="#FFC000"/><path d="M2569.03 3137.91C2569.03 3143.98 2564.11 3148.91 2558.03 3148.91 2551.96 3148.91 2547.03 3143.98 2547.03 3137.91 2547.03 3131.83 2551.96 3126.91 2558.03 3126.91 2564.11 3126.91 2569.03 3131.83 2569.03 3137.91Z" stroke="#FFC000" stroke-width="3.4375" stroke-linejoin="round" stroke-miterlimit="10" fill="#FFC000"/><path d="M2586.03 3136.91C2586.03 3142.98 2581.11 3147.91 2575.03 3147.91 2568.96 3147.91 2564.03 3142.98 2564.03 3136.91 2564.03 3130.83 2568.96 3125.91 2575.03 3125.91 2581.11 3125.91 2586.03 3130.83 2586.03 3136.91Z" stroke="#FFC000" stroke-width="3.4375" stroke-linejoin="round" stroke-miterlimit="10" fill="#FFC000"/><path d="M2755.03 3122.91C2755.03 3128.98 2750.11 3133.91 2744.03 3133.91 2737.96 3133.91 2733.03 3128.98 2733.03 3122.91 2733.03 3116.83 2737.96 3111.91 2744.03 3111.91 2750.11 3111.91 2755.03 3116.83 2755.03 3122.91Z" stroke="#FFC000" stroke-width="3.4375" stroke-linejoin="round" stroke-miterlimit="10" fill="#FFC000"/><path d="M4446.03 2998.91C4446.03 3004.98 4441.11 3009.91 4435.03 3009.91 4428.96 3009.91 4424.03 3004.98 4424.03 2998.91 4424.03 2992.83 4428.96 2987.91 4435.03 2987.91 4441.11 2987.91 4446.03 2992.83 4446.03 2998.91Z" stroke="#FFC000" stroke-width="3.4375" stroke-linejoin="round" stroke-miterlimit="10" fill="#FFC000"/></g><g clip-path="url(#clip13)"><path d="M2556.5 3137.5 2558.58 3137.6 2575.58 3136.6 2744.59 3127.6 4435.5 3049.5" stroke="#5B9BD5" stroke-width="6.875" stroke-linecap="round" stroke-linejoin="round" stroke-miterlimit="10" fill="none"/></g><g clip-path="url(#clip14)"><path d="M2567.03 3137.91C2567.03 3143.98 2562.11 3148.91 2556.03 3148.91 2549.96 3148.91 2545.03 3143.98 2545.03 3137.91 2545.03 3131.83 2549.96 3126.91 2556.03 3126.91 2562.11 3126.91 2567.03 3131.83 2567.03 3137.91Z" stroke="#5B9BD5" stroke-width="3.4375" stroke-linejoin="round" stroke-miterlimit="10" fill="#5B9BD5"/><path d="M2569.03 3137.91C2569.03 3143.98 2564.11 3148.91 2558.03 3148.91 2551.96 3148.91 2547.03 3143.98 2547.03 3137.91 2547.03 3131.83 2551.96 3126.91 2558.03 3126.91 2564.11 3126.91 2569.03 3131.83 2569.03 3137.91Z" stroke="#5B9BD5" stroke-width="3.4375" stroke-linejoin="round" stroke-miterlimit="10" fill="#5B9BD5"/><path d="M2586.03 3136.91C2586.03 3142.98 2581.11 3147.91 2575.03 3147.91 2568.96 3147.91 2564.03 3142.98 2564.03 3136.91 2564.03 3130.83 2568.96 3125.91 2575.03 3125.91 2581.11 3125.91 2586.03 3130.83 2586.03 3136.91Z" stroke="#5B9BD5" stroke-width="3.4375" stroke-linejoin="round" stroke-miterlimit="10" fill="#5B9BD5"/><path d="M2755.03 3128.91C2755.03 3134.98 2750.11 3139.91 2744.03 3139.91 2737.96 3139.91 2733.03 3134.98 2733.03 3128.91 2733.03 3122.83 2737.96 3117.91 2744.03 3117.91 2750.11 3117.91 2755.03 3122.83 2755.03 3128.91Z" stroke="#5B9BD5" stroke-width="3.4375" stroke-linejoin="round" stroke-miterlimit="10" fill="#5B9BD5"/><path d="M4446.03 3049.91C4446.03 3055.98 4441.11 3060.91 4435.03 3060.91 4428.96 3060.91 4424.03 3055.98 4424.03 3049.91 4424.03 3043.83 4428.96 3038.91 4435.03 3038.91 4441.11 3038.91 4446.03 3043.83 4446.03 3049.91Z" stroke="#5B9BD5" stroke-width="3.4375" stroke-linejoin="round" stroke-miterlimit="10" fill="#5B9BD5"/></g><g clip-path="url(#clip15)"><path d="M2556.5 3137.5 2558.58 3137.6 2575.58 3136.6 2744.59 3132.6 4435.5 3091.5" stroke="#70AD47" stroke-width="6.875" stroke-linecap="round" stroke-linejoin="round" stroke-miterlimit="10" fill="none"/></g><g clip-path="url(#clip16)"><path d="M2567.03 3137.91C2567.03 3143.98 2562.11 3148.91 2556.03 3148.91 2549.96 3148.91 2545.03 3143.98 2545.03 3137.91 2545.03 3131.83 2549.96 3126.91 2556.03 3126.91 2562.11 3126.91 2567.03 3131.83 2567.03 3137.91Z" stroke="#70AD47" stroke-width="3.4375" stroke-linejoin="round" stroke-miterlimit="10" fill="#70AD47"/><path d="M2569.03 3137.91C2569.03 3143.98 2564.11 3148.91 2558.03 3148.91 2551.96 3148.91 2547.03 3143.98 2547.03 3137.91 2547.03 3131.83 2551.96 3126.91 2558.03 3126.91 2564.11 3126.91 2569.03 3131.83 2569.03 3137.91Z" stroke="#70AD47" stroke-width="3.4375" stroke-linejoin="round" stroke-miterlimit="10" fill="#70AD47"/><path d="M2586.03 3137.91C2586.03 3143.98 2581.11 3148.91 2575.03 3148.91 2568.96 3148.91 2564.03 3143.98 2564.03 3137.91 2564.03 3131.83 2568.96 3126.91 2575.03 3126.91 2581.11 3126.91 2586.03 3131.83 2586.03 3137.91Z" stroke="#70AD47" stroke-width="3.4375" stroke-linejoin="round" stroke-miterlimit="10" fill="#70AD47"/><path d="M2755.03 3132.91C2755.03 3138.98 2750.11 3143.91 2744.03 3143.91 2737.96 3143.91 2733.03 3138.98 2733.03 3132.91 2733.03 3126.83 2737.96 3121.91 2744.03 3121.91 2750.11 3121.91 2755.03 3126.83 2755.03 3132.91Z" stroke="#70AD47" stroke-width="3.4375" stroke-linejoin="round" stroke-miterlimit="10" fill="#70AD47"/><path d="M4446.03 3091.91C4446.03 3097.98 4441.11 3102.91 4435.03 3102.91 4428.96 3102.91 4424.03 3097.98 4424.03 3091.91 4424.03 3085.83 4428.96 3080.91 4435.03 3080.91 4441.11 3080.91 4446.03 3085.83 4446.03 3091.91Z" stroke="#70AD47" stroke-width="3.4375" stroke-linejoin="round" stroke-miterlimit="10" fill="#70AD47"/></g><g clip-path="url(#clip17)"><text fill="#595959" font-family="Calibri,Calibri_MSFontService,sans-serif" font-weight="400" font-size="41" transform="matrix(1 0 0 1 2497.41 3149)">0</text></g><g clip-path="url(#clip18)"><text fill="#595959" font-family="Calibri,Calibri_MSFontService,sans-serif" font-weight="400" font-size="41" transform="matrix(1 0 0 1 2497.41 3046)">2</text></g><g clip-path="url(#clip19)"><text fill="#595959" font-family="Calibri,Calibri_MSFontService,sans-serif" font-weight="400" font-size="41" transform="matrix(1 0 0 1 2497.41 2943)">4</text></g><g clip-path="url(#clip20)"><text fill="#595959" font-family="Calibri,Calibri_MSFontService,sans-serif" font-weight="400" font-size="41" transform="matrix(1 0 0 1 2497.41 2840)">6</text></g><g clip-path="url(#clip21)"><text fill="#595959" font-family="Calibri,Calibri_MSFontService,sans-serif" font-weight="400" font-size="41" transform="matrix(1 0 0 1 2497.41 2737)">8</text></g><g clip-path="url(#clip22)"><text fill="#595959" font-family="Calibri,Calibri_MSFontService,sans-serif" font-weight="400" font-size="41" transform="matrix(1 0 0 1 2476.51 2634)">10</text></g><g clip-path="url(#clip23)"><text fill="#595959" font-family="Calibri,Calibri_MSFontService,sans-serif" font-weight="400" font-size="41" transform="matrix(1 0 0 1 2476.51 2531)">12</text></g><g clip-path="url(#clip24)"><text fill="#595959" font-family="Calibri,Calibri_MSFontService,sans-serif" font-weight="400" font-size="41" transform="matrix(1 0 0 1 2476.51 2428)">14</text></g><g clip-path="url(#clip25)"><text fill="#595959" font-family="Calibri,Calibri_MSFontService,sans-serif" font-weight="400" font-size="41" transform="matrix(1 0 0 1 2546.13 3203)">0</text></g><g clip-path="url(#clip26)"><text fill="#595959" font-family="Calibri,Calibri_MSFontService,sans-serif" font-weight="400" font-size="41" transform="matrix(1 0 0 1 2880.18 3203)">20000</text></g><g clip-path="url(#clip27)"><text fill="#595959" font-family="Calibri,Calibri_MSFontService,sans-serif" font-weight="400" font-size="41" transform="matrix(1 0 0 1 3256.03 3203)">40000</text></g><g clip-path="url(#clip28)"><text fill="#595959" font-family="Calibri,Calibri_MSFontService,sans-serif" font-weight="400" font-size="41" transform="matrix(1 0 0 1 3631.88 3203)">60000</text></g><g clip-path="url(#clip29)"><text fill="#595959" font-family="Calibri,Calibri_MSFontService,sans-serif" font-weight="400" font-size="41" transform="matrix(1 0 0 1 4007.73 3203)">80000</text></g><g clip-path="url(#clip30)"><text fill="#595959" font-family="Calibri,Calibri_MSFontService,sans-serif" font-weight="400" font-size="41" transform="matrix(1 0 0 1 4373.13 3203)">100000</text></g><g clip-path="url(#clip31)"><text fill="#595959" font-family="Calibri,Calibri_MSFontService,sans-serif" font-weight="400" font-size="46" transform="matrix(6.12323e-17 -1 1 6.12323e-17 2450.82 2885)">Temps [ms]</text></g><g clip-path="url(#clip32)"><text fill="#595959" font-family="Calibri,Calibri_MSFontService,sans-serif" font-weight="400" font-size="46" transform="matrix(1 0 0 1 3412.77 3272)">Nombre de valeurs</text></g><g clip-path="url(#clip33)"><text fill="#595959" font-family="Calibri,Calibri_MSFontService,sans-serif" font-weight="400" font-size="64" transform="matrix(1 0 0 1 3258.86 2342)">Vecteurs Décroissants</text></g><g clip-path="url(#clip34)"><path d="M2915.5 3379.5 3003.5 3379.5" stroke="#4472C4" stroke-width="6.875" stroke-linecap="round" stroke-linejoin="round" stroke-miterlimit="10" fill="none" fill-rule="evenodd"/></g><g clip-path="url(#clip35)"><path d="M2970.02 3379C2970.02 3385.07 2965.31 3390 2959.5 3390 2953.69 3390 2948.98 3385.07 2948.98 3379 2948.98 3372.92 2953.69 3368 2959.5 3368 2965.31 3368 2970.02 3372.92 2970.02 3379Z" stroke="#4472C4" stroke-width="3.4375" stroke-linejoin="round" stroke-miterlimit="10" fill="#4472C4"/></g><g clip-path="url(#clip36)"><text fill="#595959" font-family="Calibri,Calibri_MSFontService,sans-serif" font-weight="400" font-size="41" transform="matrix(1 0 0 1 3012.79 3391)">Tri rapide</text></g><g clip-path="url(#clip37)"><path d="M3343.5 3379.5 3431.5 3379.5" stroke="#ED7D31" stroke-width="6.875" stroke-linecap="round" stroke-linejoin="round" stroke-miterlimit="10" fill="none" fill-rule="evenodd"/></g><g clip-path="url(#clip38)"><path d="M3398 3379C3398 3385.07 3393.08 3390 3387 3390 3380.93 3390 3376 3385.07 3376 3379 3376 3372.92 3380.93 3368 3387 3368 3393.08 3368 3398 3372.92 3398 3379Z" stroke="#ED7D31" stroke-width="3.4375" stroke-linejoin="round" stroke-miterlimit="10" fill="#ED7D31"/></g><g clip-path="url(#clip39)"><text fill="#595959" font-family="Calibri,Calibri_MSFontService,sans-serif" font-weight="400" font-size="41" transform="matrix(1 0 0 1 3440.88 3391)">Tri par base 1 bit</text></g><g clip-path="url(#clip40)"><path d="M3771.5 3379.5 3859.5 3379.5" stroke="#A5A5A5" stroke-width="6.875" stroke-linecap="round" stroke-linejoin="round" stroke-miterlimit="10" fill="none" fill-rule="evenodd"/></g><g clip-path="url(#clip41)"><path d="M3826 3379C3826 3385.07 3821.07 3390 3815 3390 3808.93 3390 3804 3385.07 3804 3379 3804 3372.92 3808.93 3368 3815 3368 3821.07 3368 3826 3372.92 3826 3379Z" stroke="#A5A5A5" stroke-width="3.4375" stroke-linejoin="round" stroke-miterlimit="10" fill="#A5A5A5"/></g><g clip-path="url(#clip42)"><text fill="#595959" font-family="Calibri,Calibri_MSFontService,sans-serif" font-weight="400" font-size="41" transform="matrix(1 0 0 1 3868.96 3391)">Tri par base 2 bits</text></g><g clip-path="url(#clip43)"><path d="M2915.5 3457.5 3003.5 3457.5" stroke="#FFC000" stroke-width="6.875" stroke-linecap="round" stroke-linejoin="round" stroke-miterlimit="10" fill="none" fill-rule="evenodd"/></g><g clip-path="url(#clip44)"><path d="M2970.02 3457C2970.02 3463.07 2965.31 3468 2959.5 3468 2953.69 3468 2948.98 3463.07 2948.98 3457 2948.98 3450.92 2953.69 3446 2959.5 3446 2965.31 3446 2970.02 3450.92 2970.02 3457Z" stroke="#FFC000" stroke-width="3.4375" stroke-linejoin="round" stroke-miterlimit="10" fill="#FFC000"/></g><g clip-path="url(#clip45)"><text fill="#595959" font-family="Calibri,Calibri_MSFontService,sans-serif" font-weight="400" font-size="41" transform="matrix(1 0 0 1 3012.79 3469)">Tri par base 4 bits</text></g><g clip-path="url(#clip46)"><path d="M3343.5 3457.5 3431.5 3457.5" stroke="#5B9BD5" stroke-width="6.875" stroke-linecap="round" stroke-linejoin="round" stroke-miterlimit="10" fill="none" fill-rule="evenodd"/></g><g clip-path="url(#clip47)"><path d="M3398 3457C3398 3463.07 3393.08 3468 3387 3468 3380.93 3468 3376 3463.07 3376 3457 3376 3450.92 3380.93 3446 3387 3446 3393.08 3446 3398 3450.92 3398 3457Z" stroke="#5B9BD5" stroke-width="3.4375" stroke-linejoin="round" stroke-miterlimit="10" fill="#5B9BD5"/></g><g clip-path="url(#clip48)"><text fill="#595959" font-family="Calibri,Calibri_MSFontService,sans-serif" font-weight="400" font-size="41" transform="matrix(1 0 0 1 3440.88 3469)">Tri par base 8 bits</text></g><g clip-path="url(#clip49)"><path d="M3771.5 3457.5 3859.5 3457.5" stroke="#70AD47" stroke-width="6.875" stroke-linecap="round" stroke-linejoin="round" stroke-miterlimit="10" fill="none" fill-rule="evenodd"/></g><g clip-path="url(#clip50)"><path d="M3826 3457C3826 3463.07 3821.07 3468 3815 3468 3808.93 3468 3804 3463.07 3804 3457 3804 3450.92 3808.93 3446 3815 3446 3821.07 3446 3826 3450.92 3826 3457Z" stroke="#70AD47" stroke-width="3.4375" stroke-linejoin="round" stroke-miterlimit="10" fill="#70AD47"/></g><g clip-path="url(#clip51)"><text fill="#595959" font-family="Calibri,Calibri_MSFontService,sans-serif" font-weight="400" font-size="41" transform="matrix(1 0 0 1 3868.96 3469)">Tri par base 16 bits</text></g><rect x="2350.5" y="2246.5" width="2387" height="1271" stroke="#D9D9D9" stroke-width="3.4375" stroke-linejoin="round" stroke-miterlimit="10" fill="none"/></g></svg>