<svg width="2362" height="1445" xmlns="http://www.w3.org/2000/svg" xmlns:xlink="http://www.w3.org/1999/xlink" xml:space="preserve" overflow="hidden"><defs><clipPath id="clip0"><rect x="8" y="2534" width="2362" height="1445"/></clipPath><clipPath id="clip1"><rect x="8" y="2535" width="2360" height="1442"/></clipPath><clipPath id="clip2"><rect x="8" y="2535" width="2360" height="1442"/></clipPath><clipPath id="clip3"><rect x="8" y="2535" width="2360" height="1442"/></clipPath><clipPath id="clip4"><rect x="8" y="2535" width="2360" height="1442"/></clipPath><clipPath id="clip5"><rect x="215" y="2705" width="2043" height="896"/></clipPath><clipPath id="clip6"><rect x="8" y="2535" width="2360" height="1442"/></clipPath><clipPath id="clip7"><rect x="215" y="2705" width="2043" height="896"/></clipPath><clipPath id="clip8"><rect x="8" y="2535" width="2360" height="1442"/></clipPath><clipPath id="clip9"><rect x="215" y="2705" width="2043" height="896"/></clipPath><clipPath id="clip10"><rect x="8" y="2535" width="2360" height="1442"/></clipPath><clipPath id="clip11"><rect x="215" y="2705" width="2043" height="896"/></clipPath><clipPath id="clip12"><rect x="8" y="2535" width="2360" height="1442"/></clipPath><clipPath id="clip13"><rect x="215" y="2705" width="2043" height="896"/></clipPath><clipPath id="clip14"><rect x="8" y="2535" width="2360" height="1442"/></clipPath><clipPath id="clip15"><rect x="215" y="2705" width="2043" height="896"/></clipPath><clipPath id="clip16"><rect x="8" y="2535" width="2360" height="1442"/></clipPath><clipPath id="clip17"><rect x="8" y="2535" width="2360" height="1442"/></clipPath><clipPath id="clip18"><rect x="8" y="2535" width="2360" height="1442"/></clipPath><clipPath id="clip19"><rect x="8" y="2535" width="2360" height="1442"/></clipPath><clipPath id="clip20"><rect x="8" y="2535" width="2360" height="1442"/></clipPath><clipPath id="clip21"><rect x="8" y="2535" width="2360" height="1442"/></clipPath><clipPath id="clip22"><rect x="8" y="2535" width="2360" height="1442"/></clipPath><clipPath id="clip23"><rect x="8" y="2535" width="2360" height="1442"/></clipPath><clipPath id="clip24"><rect x="8" y="2535" width="2360" height="1442"/></clipPath><clipPath id="clip25"><rect x="8" y="2535" width="2360" height="1442"/></clipPath><clipPath id="clip26"><rect x="8" y="2535" width="2360" height="1442"/></clipPath><clipPath id="clip27"><rect x="8" y="2535" width="2360" height="1442"/></clipPath><clipPath id="clip28"><rect x="8" y="2535" width="2360" height="1442"/></clipPath><clipPath id="clip29"><rect x="8" y="2535" width="2360" height="1442"/></clipPath><clipPath id="clip30"><rect x="8" y="2535" width="2360" height="1442"/></clipPath><clipPath id="clip31"><rect x="8" y="2535" width="2360" height="1442"/></clipPath><clipPath id="clip32"><rect x="8" y="2535" width="2360" height="1442"/></clipPath><clipPath id="clip33"><rect x="8" y="2535" width="2360" height="1442"/></clipPath><clipPath id="clip34"><rect x="8" y="2535" width="2360" height="1442"/></clipPath><clipPath id="clip35"><rect x="8" y="2535" width="2360" height="1442"/></clipPath><clipPath id="clip36"><rect x="8" y="2535" width="2360" height="1442"/></clipPath><clipPath id="clip37"><rect x="8" y="2535" width="2360" height="1442"/></clipPath><clipPath id="clip38"><rect x="8" y="2535" width="2360" height="1442"/></clipPath><clipPath id="clip39"><rect x="8" y="2535" width="2360" height="1442"/></clipPath><clipPath id="clip40"><rect x="8" y="2535" width="2360" height="1442"/></clipPath><clipPath id="clip41"><rect x="8" y="2535" width="2360" height="1442"/></clipPath><clipPath id="clip42"><rect x="8" y="2535" width="2360" height="1442"/></clipPath><clipPath id="clip43"><rect x="8" y="2535" width="2360" height="1442"/></clipPath><clipPath id="clip44"><rect x="8" y="2535" width="2360" height="1442"/></clipPath><clipPath id="clip45"><rect x="8" y="2535" width="2360" height="1442"/></clipPath><clipPath id="clip46"><rect x="8" y="2535" width="2360" height="1442"/></clipPath><clipPath id="clip47"><rect x="8" y="2535" width="2360" height="1442"/></clipPath><clipPath id="clip48"><rect x="8" y="2535" width="2360" height="1442"/></clipPath><clipPath id="clip49"><rect x="8" y="2535" width="2360" height="1442"/></clipPath><clipPath id="clip50"><rect x="8" y="2535" width="2360" height="1442"/></clipPath><clipPath id="clip51"><rect x="8" y="2535" width="2360" height="1442"/></clipPath></defs><g clip-path="url(#clip0)" transform="translate(-8 -2534)"><rect x="8.99993" y="2535" width="2359" height="1442" fill="#FFFFFF"/><g clip-path="url(#clip1)"><path d="M215.5 3470.61 2255.5 3470.61M215.5 3343.61 2255.5 3343.61M215.5 3215.61 2255.5 3215.61M215.5 3087.6 2255.5 3087.6M215.5 2960.6 2255.5 2960.6M215.5 2832.59 2255.5 2832.59M215.5 2705.5 2255.5 2705.5" stroke="#D9D9D9" stroke-width="3.4375" stroke-linejoin="round" stroke-miterlimit="10" fill="none"/></g><g clip-path="url(#clip2)"><path d="M586.519 2705.5 586.519 3598.5M957.532 2705.5 957.532 3598.5M1328.54 2705.5 1328.54 3598.5M1698.56 2705.5 1698.56 3598.5M2069.5 2705.5 2069.5 3598.5" stroke="#D9D9D9" stroke-width="3.4375" stroke-linejoin="round" stroke-miterlimit="10" fill="none"/></g><g clip-path="url(#clip3)"><path d="M0 0 0.000360892 893" stroke="#BFBFBF" stroke-width="3.4375" stroke-linejoin="round" stroke-miterlimit="10" fill="none" fill-rule="evenodd" transform="matrix(1 0 0 -1 215.5 3598.5)"/></g><g clip-path="url(#clip4)"><path d="M215.5 3598.5 2255.5 3598.5" stroke="#BFBFBF" stroke-width="3.4375" stroke-linejoin="round" stroke-miterlimit="10" fill="none" fill-rule="evenodd"/></g><g clip-path="url(#clip5)"><path d="M215.5 3598.5C215.65 3598.48 216.341 3598.43 217.169 3598.27 218.006 3598.11 225.479 3596.46 233.857 3595.02 242.154 3593.6 317.759 3583.38 400.733 3566.73 706.673 3505.31 1513.24 3339.91 2069.5 3226.5" stroke="#4472C4" stroke-width="6.875" stroke-linecap="round" stroke-linejoin="round" stroke-miterlimit="10" fill="none"/></g><g clip-path="url(#clip6)"><path d="M226.093 3598.66C226.093 3604.73 221.168 3609.66 215.093 3609.66 209.018 3609.66 204.093 3604.73 204.093 3598.66 204.093 3592.58 209.018 3587.66 215.093 3587.66 221.168 3587.66 226.093 3592.58 226.093 3598.66Z" stroke="#4472C4" stroke-width="3.4375" stroke-linejoin="round" stroke-miterlimit="10" fill="#4472C4"/><path d="M228.093 3598.66C228.093 3604.73 223.168 3609.66 217.093 3609.66 211.018 3609.66 206.093 3604.73 206.093 3598.66 206.093 3592.58 211.018 3587.66 217.093 3587.66 223.168 3587.66 228.093 3592.58 228.093 3598.66Z" stroke="#4472C4" stroke-width="3.4375" stroke-linejoin="round" stroke-miterlimit="10" fill="#4472C4"/><path d="M245.092 3594.66C245.092 3600.73 240.168 3605.66 234.093 3605.66 228.018 3605.66 223.093 3600.73 223.093 3594.66 223.093 3588.58 228.018 3583.66 234.093 3583.66 240.168 3583.66 245.092 3588.58 245.092 3594.66Z" stroke="#4472C4" stroke-width="3.4375" stroke-linejoin="round" stroke-miterlimit="10" fill="#4472C4"/><path d="M412.093 3566.66C412.093 3572.73 407.168 3577.66 401.093 3577.66 395.018 3577.66 390.093 3572.73 390.093 3566.66 390.093 3560.58 395.018 3555.66 401.093 3555.66 407.168 3555.66 412.093 3560.58 412.093 3566.66Z" stroke="#4472C4" stroke-width="3.4375" stroke-linejoin="round" stroke-miterlimit="10" fill="#4472C4"/><path d="M2080.09 3226.66C2080.09 3232.73 2075.17 3237.66 2069.09 3237.66 2063.02 3237.66 2058.09 3232.73 2058.09 3226.66 2058.09 3220.58 2063.02 3215.66 2069.09 3215.66 2075.17 3215.66 2080.09 3220.58 2080.09 3226.66Z" stroke="#4472C4" stroke-width="3.4375" stroke-linejoin="round" stroke-miterlimit="10" fill="#4472C4"/></g><g clip-path="url(#clip7)"><path d="M215.5 3598.5C215.651 3598.44 216.338 3598.16 217.169 3597.8 217.998 3597.44 225.561 3594.31 233.857 3590.6 242.297 3586.82 316.327 3550.9 400.733 3515.68 706.673 3387.99 1513.24 3054.89 2069.5 2824.5" stroke="#ED7D31" stroke-width="6.875" stroke-linecap="round" stroke-linejoin="round" stroke-miterlimit="10" fill="none"/></g><g clip-path="url(#clip8)"><path d="M226.093 3598.66C226.093 3604.73 221.168 3609.66 215.093 3609.66 209.018 3609.66 204.093 3604.73 204.093 3598.66 204.093 3592.58 209.018 3587.66 215.093 3587.66 221.168 3587.66 226.093 3592.58 226.093 3598.66Z" stroke="#ED7D31" stroke-width="3.4375" stroke-linejoin="round" stroke-miterlimit="10" fill="#ED7D31"/><path d="M228.093 3597.66C228.093 3603.73 223.168 3608.66 217.093 3608.66 211.018 3608.66 206.093 3603.73 206.093 3597.66 206.093 3591.58 211.018 3586.66 217.093 3586.66 223.168 3586.66 228.093 3591.58 228.093 3597.66Z" stroke="#ED7D31" stroke-width="3.4375" stroke-linejoin="round" stroke-miterlimit="10" fill="#ED7D31"/><path d="M245.092 3590.66C245.092 3596.73 240.168 3601.66 234.093 3601.66 228.018 3601.66 223.093 3596.73 223.093 3590.66 223.093 3584.58 228.018 3579.66 234.093 3579.66 240.168 3579.66 245.092 3584.58 245.092 3590.66Z" stroke="#ED7D31" stroke-width="3.4375" stroke-linejoin="round" stroke-miterlimit="10" fill="#ED7D31"/><path d="M412.093 3515.66C412.093 3521.73 407.168 3526.66 401.093 3526.66 395.018 3526.66 390.093 3521.73 390.093 3515.66 390.093 3509.58 395.018 3504.66 401.093 3504.66 407.168 3504.66 412.093 3509.58 412.093 3515.66Z" stroke="#ED7D31" stroke-width="3.4375" stroke-linejoin="round" stroke-miterlimit="10" fill="#ED7D31"/><path d="M2080.09 2824.66C2080.09 2830.73 2075.17 2835.66 2069.09 2835.66 2063.02 2835.66 2058.09 2830.73 2058.09 2824.66 2058.09 2818.58 2063.02 2813.66 2069.09 2813.66 2075.17 2813.66 2080.09 2818.58 2080.09 2824.66Z" stroke="#ED7D31" stroke-width="3.4375" stroke-linejoin="round" stroke-miterlimit="10" fill="#ED7D31"/></g><g clip-path="url(#clip9)"><path d="M215.5 3598.5C215.654 3598.46 216.32 3598.2 217.169 3598.02 218.008 3597.85 225.466 3596.07 233.857 3594.62 242.21 3593.17 317.195 3579.8 400.733 3566.19 706.673 3516.34 1513.24 3385.73 2069.5 3295.5" stroke="#A5A5A5" stroke-width="6.875" stroke-linecap="round" stroke-linejoin="round" stroke-miterlimit="10" fill="none"/></g><g clip-path="url(#clip10)"><path d="M226.093 3598.66C226.093 3604.73 221.168 3609.66 215.093 3609.66 209.018 3609.66 204.093 3604.73 204.093 3598.66 204.093 3592.58 209.018 3587.66 215.093 3587.66 221.168 3587.66 226.093 3592.58 226.093 3598.66Z" stroke="#A5A5A5" stroke-width="3.4375" stroke-linejoin="round" stroke-miterlimit="10" fill="#A5A5A5"/><path d="M228.093 3597.66C228.093 3603.73 223.168 3608.66 217.093 3608.66 211.018 3608.66 206.093 3603.73 206.093 3597.66 206.093 3591.58 211.018 3586.66 217.093 3586.66 223.168 3586.66 228.093 3591.58 228.093 3597.66Z" stroke="#A5A5A5" stroke-width="3.4375" stroke-linejoin="round" stroke-miterlimit="10" fill="#A5A5A5"/><path d="M245.092 3594.66C245.092 3600.73 240.168 3605.66 234.093 3605.66 228.018 3605.66 223.093 3600.73 223.093 3594.66 223.093 3588.58 228.018 3583.66 234.093 3583.66 240.168 3583.66 245.092 3588.58 245.092 3594.66Z" stroke="#A5A5A5" stroke-width="3.4375" stroke-linejoin="round" stroke-miterlimit="10" fill="#A5A5A5"/><path d="M412.093 3565.66C412.093 3571.73 407.168 3576.66 401.093 3576.66 395.018 3576.66 390.093 3571.73 390.093 3565.66 390.093 3559.58 395.018 3554.66 401.093 3554.66 407.168 3554.66 412.093 3559.58 412.093 3565.66Z" stroke="#A5A5A5" stroke-width="3.4375" stroke-linejoin="round" stroke-miterlimit="10" fill="#A5A5A5"/><path d="M2080.09 3295.66C2080.09 3301.73 2075.17 3306.66 2069.09 3306.66 2063.02 3306.66 2058.09 3301.73 2058.09 3295.66 2058.09 3289.58 2063.02 3284.66 2069.09 3284.66 2075.17 3284.66 2080.09 3289.58 2080.09 3295.66Z" stroke="#A5A5A5" stroke-width="3.4375" stroke-linejoin="round" stroke-miterlimit="10" fill="#A5A5A5"/></g><g clip-path="url(#clip11)"><path d="M215.5 3598.5C215.652 3598.48 216.331 3598.36 217.169 3598.26 218.005 3598.16 225.497 3597.16 233.857 3596.35 242.203 3595.54 317.27 3588.15 400.733 3580.47 706.673 3552.33 1513.24 3478.49 2069.5 3427.5" stroke="#FFC000" stroke-width="6.875" stroke-linecap="round" stroke-linejoin="round" stroke-miterlimit="10" fill="none"/></g><g clip-path="url(#clip12)"><path d="M226.093 3598.66C226.093 3604.73 221.168 3609.66 215.093 3609.66 209.018 3609.66 204.093 3604.73 204.093 3598.66 204.093 3592.58 209.018 3587.66 215.093 3587.66 221.168 3587.66 226.093 3592.58 226.093 3598.66Z" stroke="#FFC000" stroke-width="3.4375" stroke-linejoin="round" stroke-miterlimit="10" fill="#FFC000"/><path d="M228.093 3598.66C228.093 3604.73 223.168 3609.66 217.093 3609.66 211.018 3609.66 206.093 3604.73 206.093 3598.66 206.093 3592.58 211.018 3587.66 217.093 3587.66 223.168 3587.66 228.093 3592.58 228.093 3598.66Z" stroke="#FFC000" stroke-width="3.4375" stroke-linejoin="round" stroke-miterlimit="10" fill="#FFC000"/><path d="M245.092 3596.66C245.092 3602.73 240.168 3607.66 234.093 3607.66 228.018 3607.66 223.093 3602.73 223.093 3596.66 223.093 3590.58 228.018 3585.66 234.093 3585.66 240.168 3585.66 245.092 3590.58 245.092 3596.66Z" stroke="#FFC000" stroke-width="3.4375" stroke-linejoin="round" stroke-miterlimit="10" fill="#FFC000"/><path d="M412.093 3580.66C412.093 3586.73 407.168 3591.66 401.093 3591.66 395.018 3591.66 390.093 3586.73 390.093 3580.66 390.093 3574.58 395.018 3569.66 401.093 3569.66 407.168 3569.66 412.093 3574.58 412.093 3580.66Z" stroke="#FFC000" stroke-width="3.4375" stroke-linejoin="round" stroke-miterlimit="10" fill="#FFC000"/><path d="M2080.09 3427.66C2080.09 3433.73 2075.17 3438.66 2069.09 3438.66 2063.02 3438.66 2058.09 3433.73 2058.09 3427.66 2058.09 3421.58 2063.02 3416.66 2069.09 3416.66 2075.17 3416.66 2080.09 3421.58 2080.09 3427.66Z" stroke="#FFC000" stroke-width="3.4375" stroke-linejoin="round" stroke-miterlimit="10" fill="#FFC000"/></g><g clip-path="url(#clip13)"><path d="M215.5 3598.5C215.652 3598.49 216.334 3598.44 217.169 3598.38 218.004 3598.31 225.503 3597.6 233.857 3597.11 242.199 3596.62 317.305 3592.57 400.733 3587.68 706.673 3569.75 1513.24 3522.23 2069.5 3489.5" stroke="#5B9BD5" stroke-width="6.875" stroke-linecap="round" stroke-linejoin="round" stroke-miterlimit="10" fill="none"/></g><g clip-path="url(#clip14)"><path d="M226.093 3598.66C226.093 3604.73 221.168 3609.66 215.093 3609.66 209.018 3609.66 204.093 3604.73 204.093 3598.66 204.093 3592.58 209.018 3587.66 215.093 3587.66 221.168 3587.66 226.093 3592.58 226.093 3598.66Z" stroke="#5B9BD5" stroke-width="3.4375" stroke-linejoin="round" stroke-miterlimit="10" fill="#5B9BD5"/><path d="M228.093 3598.66C228.093 3604.73 223.168 3609.66 217.093 3609.66 211.018 3609.66 206.093 3604.73 206.093 3598.66 206.093 3592.58 211.018 3587.66 217.093 3587.66 223.168 3587.66 228.093 3592.58 228.093 3598.66Z" stroke="#5B9BD5" stroke-width="3.4375" stroke-linejoin="round" stroke-miterlimit="10" fill="#5B9BD5"/><path d="M245.092 3596.66C245.092 3602.73 240.168 3607.66 234.093 3607.66 228.018 3607.66 223.093 3602.73 223.093 3596.66 223.093 3590.58 228.018 3585.66 234.093 3585.66 240.168 3585.66 245.092 3590.58 245.092 3596.66Z" stroke="#5B9BD5" stroke-width="3.4375" stroke-linejoin="round" stroke-miterlimit="10" fill="#5B9BD5"/><path d="M412.093 3587.66C412.093 3593.73 407.168 3598.66 401.093 3598.66 395.018 3598.66 390.093 3593.73 390.093 3587.66 390.093 3581.58 395.018 3576.66 401.093 3576.66 407.168 3576.66 412.093 3581.58 412.093 3587.66Z" stroke="#5B9BD5" stroke-width="3.4375" stroke-linejoin="round" stroke-miterlimit="10" fill="#5B9BD5"/><path d="M2080.09 3489.66C2080.09 3495.73 2075.17 3500.66 2069.09 3500.66 2063.02 3500.66 2058.09 3495.73 2058.09 3489.66 2058.09 3483.58 2063.02 3478.66 2069.09 3478.66 2075.17 3478.66 2080.09 3483.58 2080.09 3489.66Z" stroke="#5B9BD5" stroke-width="3.4375" stroke-linejoin="round" stroke-miterlimit="10" fill="#5B9BD5"/></g><g clip-path="url(#clip15)"><path d="M215.5 3598.5C215.652 3598.49 216.333 3598.42 217.169 3598.4 218.003 3598.37 225.514 3598.17 233.857 3597.87 242.202 3597.57 317.279 3594.37 400.733 3591.8 706.673 3582.41 1513.24 3558.27 2069.5 3541.5" stroke="#70AD47" stroke-width="6.875" stroke-linecap="round" stroke-linejoin="round" stroke-miterlimit="10" fill="none"/></g><g clip-path="url(#clip16)"><path d="M226.093 3598.66C226.093 3604.73 221.168 3609.66 215.093 3609.66 209.018 3609.66 204.093 3604.73 204.093 3598.66 204.093 3592.58 209.018 3587.66 215.093 3587.66 221.168 3587.66 226.093 3592.58 226.093 3598.66Z" stroke="#70AD47" stroke-width="3.4375" stroke-linejoin="round" stroke-miterlimit="10" fill="#70AD47"/><path d="M228.093 3597.66C228.093 3603.73 223.168 3608.66 217.093 3608.66 211.018 3608.66 206.093 3603.73 206.093 3597.66 206.093 3591.58 211.018 3586.66 217.093 3586.66 223.168 3586.66 228.093 3591.58 228.093 3597.66Z" stroke="#70AD47" stroke-width="3.4375" stroke-linejoin="round" stroke-miterlimit="10" fill="#70AD47"/><path d="M245.092 3597.66C245.092 3603.73 240.168 3608.66 234.093 3608.66 228.018 3608.66 223.093 3603.73 223.093 3597.66 223.093 3591.58 228.018 3586.66 234.093 3586.66 240.168 3586.66 245.092 3591.58 245.092 3597.66Z" stroke="#70AD47" stroke-width="3.4375" stroke-linejoin="round" stroke-miterlimit="10" fill="#70AD47"/><path d="M412.093 3591.66C412.093 3597.73 407.168 3602.66 401.093 3602.66 395.018 3602.66 390.093 3597.73 390.093 3591.66 390.093 3585.58 395.018 3580.66 401.093 3580.66 407.168 3580.66 412.093 3585.58 412.093 3591.66Z" stroke="#70AD47" stroke-width="3.4375" stroke-linejoin="round" stroke-miterlimit="10" fill="#70AD47"/><path d="M2080.09 3541.66C2080.09 3547.73 2075.17 3552.66 2069.09 3552.66 2063.02 3552.66 2058.09 3547.73 2058.09 3541.66 2058.09 3535.58 2063.02 3530.66 2069.09 3530.66 2075.17 3530.66 2080.09 3535.58 2080.09 3541.66Z" stroke="#70AD47" stroke-width="3.4375" stroke-linejoin="round" stroke-miterlimit="10" fill="#70AD47"/></g><g clip-path="url(#clip17)"><text fill="#595959" font-family="Calibri,Calibri_MSFontService,sans-serif" font-weight="400" font-size="41" transform="matrix(1 0 0 1 156.475 3610)">0</text></g><g clip-path="url(#clip18)"><text fill="#595959" font-family="Calibri,Calibri_MSFontService,sans-serif" font-weight="400" font-size="41" transform="matrix(1 0 0 1 156.475 3482)">2</text></g><g clip-path="url(#clip19)"><text fill="#595959" font-family="Calibri,Calibri_MSFontService,sans-serif" font-weight="400" font-size="41" transform="matrix(1 0 0 1 156.475 3355)">4</text></g><g clip-path="url(#clip20)"><text fill="#595959" font-family="Calibri,Calibri_MSFontService,sans-serif" font-weight="400" font-size="41" transform="matrix(1 0 0 1 156.475 3227)">6</text></g><g clip-path="url(#clip21)"><text fill="#595959" font-family="Calibri,Calibri_MSFontService,sans-serif" font-weight="400" font-size="41" transform="matrix(1 0 0 1 156.475 3100)">8</text></g><g clip-path="url(#clip22)"><text fill="#595959" font-family="Calibri,Calibri_MSFontService,sans-serif" font-weight="400" font-size="41" transform="matrix(1 0 0 1 135.575 2972)">10</text></g><g clip-path="url(#clip23)"><text fill="#595959" font-family="Calibri,Calibri_MSFontService,sans-serif" font-weight="400" font-size="41" transform="matrix(1 0 0 1 135.575 2844)">12</text></g><g clip-path="url(#clip24)"><text fill="#595959" font-family="Calibri,Calibri_MSFontService,sans-serif" font-weight="400" font-size="41" transform="matrix(1 0 0 1 135.575 2717)">14</text></g><g clip-path="url(#clip25)"><text fill="#595959" font-family="Calibri,Calibri_MSFontService,sans-serif" font-weight="400" font-size="41" transform="matrix(1 0 0 1 205.191 3664)">0</text></g><g clip-path="url(#clip26)"><text fill="#595959" font-family="Calibri,Calibri_MSFontService,sans-serif" font-weight="400" font-size="41" transform="matrix(1 0 0 1 534.242 3664)">20000</text></g><g clip-path="url(#clip27)"><text fill="#595959" font-family="Calibri,Calibri_MSFontService,sans-serif" font-weight="400" font-size="41" transform="matrix(1 0 0 1 905.093 3664)">40000</text></g><g clip-path="url(#clip28)"><text fill="#595959" font-family="Calibri,Calibri_MSFontService,sans-serif" font-weight="400" font-size="41" transform="matrix(1 0 0 1 1275.94 3664)">60000</text></g><g clip-path="url(#clip29)"><text fill="#595959" font-family="Calibri,Calibri_MSFontService,sans-serif" font-weight="400" font-size="41" transform="matrix(1 0 0 1 1646.79 3664)">80000</text></g><g clip-path="url(#clip30)"><text fill="#595959" font-family="Calibri,Calibri_MSFontService,sans-serif" font-weight="400" font-size="41" transform="matrix(1 0 0 1 2007.19 3664)">100000</text></g><g clip-path="url(#clip31)"><text fill="#595959" font-family="Calibri,Calibri_MSFontService,sans-serif" font-weight="400" font-size="46" transform="matrix(6.12323e-17 -1 1 6.12323e-17 109.885 3260)">Temps [ms]</text></g><g clip-path="url(#clip32)"><text fill="#595959" font-family="Calibri,Calibri_MSFontService,sans-serif" font-weight="400" font-size="46" transform="matrix(1 0 0 1 1058.08 3733)">Nombre de valeurs</text></g><g clip-path="url(#clip33)"><text fill="#595959" font-family="Calibri,Calibri_MSFontService,sans-serif" font-weight="400" font-size="64" transform="matrix(1 0 0 1 962.305 2631)">Vecteur Aléatoire</text></g><g clip-path="url(#clip34)"><path d="M560.5 3840.5 648.5 3840.5" stroke="#4472C4" stroke-width="6.875" stroke-linecap="round" stroke-linejoin="round" stroke-miterlimit="10" fill="none" fill-rule="evenodd"/></g><g clip-path="url(#clip35)"><path d="M615 3840C615 3846.07 610.075 3851 604 3851 597.925 3851 593 3846.07 593 3840 593 3833.92 597.925 3829 604 3829 610.075 3829 615 3833.92 615 3840Z" stroke="#4472C4" stroke-width="3.4375" stroke-linejoin="round" stroke-miterlimit="10" fill="#4472C4"/></g><g clip-path="url(#clip36)"><text fill="#595959" font-family="Calibri,Calibri_MSFontService,sans-serif" font-weight="400" font-size="41" transform="matrix(1 0 0 1 658.106 3852)">Tri rapide</text></g><g clip-path="url(#clip37)"><path d="M988.5 3840.5 1076.5 3840.5" stroke="#ED7D31" stroke-width="6.875" stroke-linecap="round" stroke-linejoin="round" stroke-miterlimit="10" fill="none" fill-rule="evenodd"/></g><g clip-path="url(#clip38)"><path d="M1043 3840C1043 3846.07 1038.08 3851 1032 3851 1025.93 3851 1021 3846.07 1021 3840 1021 3833.92 1025.93 3829 1032 3829 1038.08 3829 1043 3833.92 1043 3840Z" stroke="#ED7D31" stroke-width="3.4375" stroke-linejoin="round" stroke-miterlimit="10" fill="#ED7D31"/></g><g clip-path="url(#clip39)"><text fill="#595959" font-family="Calibri,Calibri_MSFontService,sans-serif" font-weight="400" font-size="41" transform="matrix(1 0 0 1 1086.19 3852)">Tri par base 1 bit</text></g><g clip-path="url(#clip40)"><path d="M1416.5 3840.5 1504.5 3840.5" stroke="#A5A5A5" stroke-width="6.875" stroke-linecap="round" stroke-linejoin="round" stroke-miterlimit="10" fill="none" fill-rule="evenodd"/></g><g clip-path="url(#clip41)"><path d="M1471 3840C1471 3846.07 1466.08 3851 1460 3851 1453.93 3851 1449 3846.07 1449 3840 1449 3833.92 1453.93 3829 1460 3829 1466.08 3829 1471 3833.92 1471 3840Z" stroke="#A5A5A5" stroke-width="3.4375" stroke-linejoin="round" stroke-miterlimit="10" fill="#A5A5A5"/></g><g clip-path="url(#clip42)"><text fill="#595959" font-family="Calibri,Calibri_MSFontService,sans-serif" font-weight="400" font-size="41" transform="matrix(1 0 0 1 1514.28 3852)">Tri par base 2 bits</text></g><g clip-path="url(#clip43)"><path d="M560.5 3917.5 648.5 3917.5" stroke="#FFC000" stroke-width="6.875" stroke-linecap="round" stroke-linejoin="round" stroke-miterlimit="10" fill="none" fill-rule="evenodd"/></g><g clip-path="url(#clip44)"><path d="M615 3917C615 3923.07 610.075 3928 604 3928 597.925 3928 593 3923.07 593 3917 593 3910.92 597.925 3906 604 3906 610.075 3906 615 3910.92 615 3917Z" stroke="#FFC000" stroke-width="3.4375" stroke-linejoin="round" stroke-miterlimit="10" fill="#FFC000"/></g><g clip-path="url(#clip45)"><text fill="#595959" font-family="Calibri,Calibri_MSFontService,sans-serif" font-weight="400" font-size="41" transform="matrix(1 0 0 1 658.106 3929)">Tri par base 4 bits</text></g><g clip-path="url(#clip46)"><path d="M988.5 3917.5 1076.5 3917.5" stroke="#5B9BD5" stroke-width="6.875" stroke-linecap="round" stroke-linejoin="round" stroke-miterlimit="10" fill="none" fill-rule="evenodd"/></g><g clip-path="url(#clip47)"><path d="M1043 3917C1043 3923.07 1038.08 3928 1032 3928 1025.93 3928 1021 3923.07 1021 3917 1021 3910.92 1025.93 3906 1032 3906 1038.08 3906 1043 3910.92 1043 3917Z" stroke="#5B9BD5" stroke-width="3.4375" stroke-linejoin="round" stroke-miterlimit="10" fill="#5B9BD5"/></g><g clip-path="url(#clip48)"><text fill="#595959" font-family="Calibri,Calibri_MSFontService,sans-serif" font-weight="400" font-size="41" transform="matrix(1 0 0 1 1086.19 3929)">Tri par base 8 bits</text></g><g clip-path="url(#clip49)"><path d="M1416.5 3917.5 1504.5 3917.5" stroke="#70AD47" stroke-width="6.875" stroke-linecap="round" stroke-linejoin="round" stroke-miterlimit="10" fill="none" fill-rule="evenodd"/></g><g clip-path="url(#clip50)"><path d="M1471 3917C1471 3923.07 1466.08 3928 1460 3928 1453.93 3928 1449 3923.07 1449 3917 1449 3910.92 1453.93 3906 1460 3906 1466.08 3906 1471 3910.92 1471 3917Z" stroke="#70AD47" stroke-width="3.4375" stroke-linejoin="round" stroke-miterlimit="10" fill="#70AD47"/></g><g clip-path="url(#clip51)"><text fill="#595959" font-family="Calibri,Calibri_MSFontService,sans-serif" font-weight="400" font-size="41" transform="matrix(1 0 0 1 1514.28 3929)">Tri par base 16 bits</text></g><rect x="9.50013" y="2535.5" width="2359" height="1442" stroke="#D9D9D9" stroke-width="3.4375" stroke-linejoin="round" stroke-miterlimit="10" fill="none"/></g></svg>