<svg width="2559" height="1462" xmlns="http://www.w3.org/2000/svg" xmlns:xlink="http://www.w3.org/1999/xlink" xml:space="preserve" overflow="hidden"><defs><clipPath id="clip0"><rect x="874" y="4150" width="2559" height="1462"/></clipPath><clipPath id="clip1"><rect x="874" y="4150" width="2556" height="1459"/></clipPath><clipPath id="clip2"><rect x="874" y="4150" width="2556" height="1459"/></clipPath><clipPath id="clip3"><rect x="874" y="4150" width="2556" height="1459"/></clipPath><clipPath id="clip4"><rect x="874" y="4150" width="2556" height="1459"/></clipPath><clipPath id="clip5"><rect x="1081" y="4320" width="2239" height="914"/></clipPath><clipPath id="clip6"><rect x="874" y="4150" width="2556" height="1459"/></clipPath><clipPath id="clip7"><rect x="1081" y="4320" width="2239" height="914"/></clipPath><clipPath id="clip8"><rect x="874" y="4150" width="2556" height="1459"/></clipPath><clipPath id="clip9"><rect x="1081" y="4320" width="2239" height="914"/></clipPath><clipPath id="clip10"><rect x="874" y="4150" width="2556" height="1459"/></clipPath><clipPath id="clip11"><rect x="1081" y="4320" width="2239" height="914"/></clipPath><clipPath id="clip12"><rect x="874" y="4150" width="2556" height="1459"/></clipPath><clipPath id="clip13"><rect x="1081" y="4320" width="2239" height="914"/></clipPath><clipPath id="clip14"><rect x="874" y="4150" width="2556" height="1459"/></clipPath><clipPath id="clip15"><rect x="1081" y="4320" width="2239" height="914"/></clipPath><clipPath id="clip16"><rect x="874" y="4150" width="2556" height="1459"/></clipPath><clipPath id="clip17"><rect x="874" y="4150" width="2556" height="1459"/></clipPath><clipPath id="clip18"><rect x="874" y="4150" width="2556" height="1459"/></clipPath><clipPath id="clip19"><rect x="874" y="4150" width="2556" height="1459"/></clipPath><clipPath id="clip20"><rect x="874" y="4150" width="2556" height="1459"/></clipPath><clipPath id="clip21"><rect x="874" y="4150" width="2556" height="1459"/></clipPath><clipPath id="clip22"><rect x="874" y="4150" width="2556" height="1459"/></clipPath><clipPath id="clip23"><rect x="874" y="4150" width="2556" height="1459"/></clipPath><clipPath id="clip24"><rect x="874" y="4150" width="2556" height="1459"/></clipPath><clipPath id="clip25"><rect x="874" y="4150" width="2556" height="1459"/></clipPath><clipPath id="clip26"><rect x="874" y="4150" width="2556" height="1459"/></clipPath><clipPath id="clip27"><rect x="874" y="4150" width="2556" height="1459"/></clipPath><clipPath id="clip28"><rect x="874" y="4150" width="2556" height="1459"/></clipPath><clipPath id="clip29"><rect x="874" y="4150" width="2556" height="1459"/></clipPath><clipPath id="clip30"><rect x="874" y="4150" width="2556" height="1459"/></clipPath><clipPath id="clip31"><rect x="874" y="4150" width="2556" height="1459"/></clipPath><clipPath id="clip32"><rect x="874" y="4150" width="2556" height="1459"/></clipPath><clipPath id="clip33"><rect x="874" y="4150" width="2556" height="1459"/></clipPath><clipPath id="clip34"><rect x="874" y="4150" width="2556" height="1459"/></clipPath><clipPath id="clip35"><rect x="874" y="4150" width="2556" height="1459"/></clipPath><clipPath id="clip36"><rect x="874" y="4150" width="2556" height="1459"/></clipPath><clipPath id="clip37"><rect x="874" y="4150" width="2556" height="1459"/></clipPath><clipPath id="clip38"><rect x="874" y="4150" width="2556" height="1459"/></clipPath><clipPath id="clip39"><rect x="874" y="4150" width="2556" height="1459"/></clipPath><clipPath id="clip40"><rect x="874" y="4150" width="2556" height="1459"/></clipPath><clipPath id="clip41"><rect x="874" y="4150" width="2556" height="1459"/></clipPath><clipPath id="clip42"><rect x="874" y="4150" width="2556" height="1459"/></clipPath><clipPath id="clip43"><rect x="874" y="4150" width="2556" height="1459"/></clipPath><clipPath id="clip44"><rect x="874" y="4150" width="2556" height="1459"/></clipPath><clipPath id="clip45"><rect x="874" y="4150" width="2556" height="1459"/></clipPath><clipPath id="clip46"><rect x="874" y="4150" width="2556" height="1459"/></clipPath><clipPath id="clip47"><rect x="874" y="4150" width="2556" height="1459"/></clipPath><clipPath id="clip48"><rect x="874" y="4150" width="2556" height="1459"/></clipPath><clipPath id="clip49"><rect x="874" y="4150" width="2556" height="1459"/></clipPath><clipPath id="clip50"><rect x="874" y="4150" width="2556" height="1459"/></clipPath><clipPath id="clip51"><rect x="874" y="4150" width="2556" height="1459"/></clipPath></defs><g clip-path="url(#clip0)" transform="translate(-874 -4150)"><rect x="875" y="4151" width="2556" height="1459" fill="#FFFFFF"/><g clip-path="url(#clip1)"><path d="M1081.5 5100.67 3317.5 5100.67M1081.5 4970.66 3317.5 4970.66M1081.5 4840.66 3317.5 4840.66M1081.5 4710.65 3317.5 4710.65M1081.5 4580.65 3317.5 4580.65M1081.5 4450.65 3317.5 4450.65M1081.5 4320.5 3317.5 4320.5" stroke="#D9D9D9" stroke-width="3.4375" stroke-linejoin="round" stroke-miterlimit="10" fill="none"/></g><g clip-path="url(#clip2)"><path d="M1488.55 4320.5 1488.55 5231.5M1894.56 4320.5 1894.56 5231.5M2301.58 4320.5 2301.58 5231.5M2707.59 4320.5 2707.59 5231.5M3114.5 4320.5 3114.5 5231.5" stroke="#D9D9D9" stroke-width="3.4375" stroke-linejoin="round" stroke-miterlimit="10" fill="none"/></g><g clip-path="url(#clip3)"><path d="M0 0 0.000360892 911" stroke="#BFBFBF" stroke-width="3.4375" stroke-linejoin="round" stroke-miterlimit="10" fill="none" fill-rule="evenodd" transform="matrix(1 0 0 -1 1081.5 5231.5)"/></g><g clip-path="url(#clip4)"><path d="M1081.5 5231.5 3317.5 5231.5" stroke="#BFBFBF" stroke-width="3.4375" stroke-linejoin="round" stroke-miterlimit="10" fill="none" fill-rule="evenodd"/></g><g clip-path="url(#clip5)"><path d="M1082.5 5231.5C1082.67 5231.48 1083.42 5231.43 1084.33 5231.31 1085.24 5231.18 1093.5 5230.22 1102.62 5228.77 1111.73 5227.33 1194.39 5216.05 1285.52 5199.5 1620.83 5138.62 2504.84 4975.5 3114.5 4863.5" stroke="#4472C4" stroke-width="6.875" stroke-linecap="round" stroke-linejoin="round" stroke-miterlimit="10" fill="none"/></g><g clip-path="url(#clip6)"><path d="M1093.34 5231.28C1093.34 5237.35 1088.42 5242.28 1082.34 5242.28 1076.27 5242.28 1071.34 5237.35 1071.34 5231.28 1071.34 5225.21 1076.27 5220.28 1082.34 5220.28 1088.42 5220.28 1093.34 5225.21 1093.34 5231.28Z" stroke="#4472C4" stroke-width="3.4375" stroke-linejoin="round" stroke-miterlimit="10" fill="#4472C4"/><path d="M1094.34 5230.28C1094.34 5236.35 1089.42 5241.28 1083.34 5241.28 1077.27 5241.28 1072.34 5236.35 1072.34 5230.28 1072.34 5224.21 1077.27 5219.28 1083.34 5219.28 1089.42 5219.28 1094.34 5224.21 1094.34 5230.28Z" stroke="#4472C4" stroke-width="3.4375" stroke-linejoin="round" stroke-miterlimit="10" fill="#4472C4"/><path d="M1113.34 5228.28C1113.34 5234.35 1108.42 5239.28 1102.34 5239.28 1096.27 5239.28 1091.34 5234.35 1091.34 5228.28 1091.34 5222.21 1096.27 5217.28 1102.34 5217.28 1108.42 5217.28 1113.34 5222.21 1113.34 5228.28Z" stroke="#4472C4" stroke-width="3.4375" stroke-linejoin="round" stroke-miterlimit="10" fill="#4472C4"/><path d="M1296.34 5199.28C1296.34 5205.35 1291.42 5210.28 1285.34 5210.28 1279.27 5210.28 1274.34 5205.35 1274.34 5199.28 1274.34 5193.21 1279.27 5188.28 1285.34 5188.28 1291.42 5188.28 1296.34 5193.21 1296.34 5199.28Z" stroke="#4472C4" stroke-width="3.4375" stroke-linejoin="round" stroke-miterlimit="10" fill="#4472C4"/><path d="M3125.34 4863.28C3125.34 4869.35 3120.42 4874.28 3114.34 4874.28 3108.27 4874.28 3103.34 4869.35 3103.34 4863.28 3103.34 4857.21 3108.27 4852.28 3114.34 4852.28 3120.42 4852.28 3125.34 4857.21 3125.34 4863.28Z" stroke="#4472C4" stroke-width="3.4375" stroke-linejoin="round" stroke-miterlimit="10" fill="#4472C4"/></g><g clip-path="url(#clip7)"><path d="M1082.5 5230.5C1082.66 5230.44 1083.42 5230.17 1084.33 5229.79 1085.25 5229.41 1093.4 5225.82 1102.62 5222.21 1111.75 5218.62 1194.16 5186.77 1285.52 5150.86 1620.83 5019.08 2504.84 4671.29 3114.5 4431.5" stroke="#ED7D31" stroke-width="6.875" stroke-linecap="round" stroke-linejoin="round" stroke-miterlimit="10" fill="none"/></g><g clip-path="url(#clip8)"><path d="M1093.34 5230.28C1093.34 5236.35 1088.42 5241.28 1082.34 5241.28 1076.27 5241.28 1071.34 5236.35 1071.34 5230.28 1071.34 5224.21 1076.27 5219.28 1082.34 5219.28 1088.42 5219.28 1093.34 5224.21 1093.34 5230.28Z" stroke="#ED7D31" stroke-width="3.4375" stroke-linejoin="round" stroke-miterlimit="10" fill="#ED7D31"/><path d="M1094.34 5230.28C1094.34 5236.35 1089.42 5241.28 1083.34 5241.28 1077.27 5241.28 1072.34 5236.35 1072.34 5230.28 1072.34 5224.21 1077.27 5219.28 1083.34 5219.28 1089.42 5219.28 1094.34 5224.21 1094.34 5230.28Z" stroke="#ED7D31" stroke-width="3.4375" stroke-linejoin="round" stroke-miterlimit="10" fill="#ED7D31"/><path d="M1113.34 5222.28C1113.34 5228.35 1108.42 5233.28 1102.34 5233.28 1096.27 5233.28 1091.34 5228.35 1091.34 5222.28 1091.34 5216.21 1096.27 5211.28 1102.34 5211.28 1108.42 5211.28 1113.34 5216.21 1113.34 5222.28Z" stroke="#ED7D31" stroke-width="3.4375" stroke-linejoin="round" stroke-miterlimit="10" fill="#ED7D31"/><path d="M1296.34 5151.28C1296.34 5157.35 1291.42 5162.28 1285.34 5162.28 1279.27 5162.28 1274.34 5157.35 1274.34 5151.28 1274.34 5145.21 1279.27 5140.28 1285.34 5140.28 1291.42 5140.28 1296.34 5145.21 1296.34 5151.28Z" stroke="#ED7D31" stroke-width="3.4375" stroke-linejoin="round" stroke-miterlimit="10" fill="#ED7D31"/><path d="M3125.34 4431.28C3125.34 4437.35 3120.42 4442.28 3114.34 4442.28 3108.27 4442.28 3103.34 4437.35 3103.34 4431.28 3103.34 4425.21 3108.27 4420.28 3114.34 4420.28 3120.42 4420.28 3125.34 4425.21 3125.34 4431.28Z" stroke="#ED7D31" stroke-width="3.4375" stroke-linejoin="round" stroke-miterlimit="10" fill="#ED7D31"/></g><g clip-path="url(#clip9)"><path d="M1082.5 5231.5C1082.67 5231.45 1083.4 5231.19 1084.33 5230.99 1085.25 5230.79 1093.42 5228.75 1102.62 5227.11 1111.77 5225.47 1193.99 5210.59 1285.52 5195.01 1620.83 5137.91 2504.84 4988 3114.5 4884.5" stroke="#A5A5A5" stroke-width="6.875" stroke-linecap="round" stroke-linejoin="round" stroke-miterlimit="10" fill="none"/></g><g clip-path="url(#clip10)"><path d="M1093.34 5231.28C1093.34 5237.35 1088.42 5242.28 1082.34 5242.28 1076.27 5242.28 1071.34 5237.35 1071.34 5231.28 1071.34 5225.21 1076.27 5220.28 1082.34 5220.28 1088.42 5220.28 1093.34 5225.21 1093.34 5231.28Z" stroke="#A5A5A5" stroke-width="3.4375" stroke-linejoin="round" stroke-miterlimit="10" fill="#A5A5A5"/><path d="M1094.34 5230.28C1094.34 5236.35 1089.42 5241.28 1083.34 5241.28 1077.27 5241.28 1072.34 5236.35 1072.34 5230.28 1072.34 5224.21 1077.27 5219.28 1083.34 5219.28 1089.42 5219.28 1094.34 5224.21 1094.34 5230.28Z" stroke="#A5A5A5" stroke-width="3.4375" stroke-linejoin="round" stroke-miterlimit="10" fill="#A5A5A5"/><path d="M1113.34 5226.28C1113.34 5232.35 1108.42 5237.28 1102.34 5237.28 1096.27 5237.28 1091.34 5232.35 1091.34 5226.28 1091.34 5220.21 1096.27 5215.28 1102.34 5215.28 1108.42 5215.28 1113.34 5220.21 1113.34 5226.28Z" stroke="#A5A5A5" stroke-width="3.4375" stroke-linejoin="round" stroke-miterlimit="10" fill="#A5A5A5"/><path d="M1296.34 5194.28C1296.34 5200.35 1291.42 5205.28 1285.34 5205.28 1279.27 5205.28 1274.34 5200.35 1274.34 5194.28 1274.34 5188.21 1279.27 5183.28 1285.34 5183.28 1291.42 5183.28 1296.34 5188.21 1296.34 5194.28Z" stroke="#A5A5A5" stroke-width="3.4375" stroke-linejoin="round" stroke-miterlimit="10" fill="#A5A5A5"/><path d="M3125.34 4884.28C3125.34 4890.36 3120.42 4895.28 3114.34 4895.28 3108.27 4895.28 3103.34 4890.36 3103.34 4884.28 3103.34 4878.21 3108.27 4873.28 3114.34 4873.28 3120.42 4873.28 3125.34 4878.21 3125.34 4884.28Z" stroke="#A5A5A5" stroke-width="3.4375" stroke-linejoin="round" stroke-miterlimit="10" fill="#A5A5A5"/></g><g clip-path="url(#clip11)"><path d="M1082.5 5231.5C1082.67 5231.48 1083.41 5231.36 1084.33 5231.26 1085.25 5231.15 1093.46 5230.08 1102.62 5229.22 1111.76 5228.37 1194.06 5220.73 1285.52 5212.38 1620.83 5181.76 2504.84 5101.13 3114.5 5045.5" stroke="#FFC000" stroke-width="6.875" stroke-linecap="round" stroke-linejoin="round" stroke-miterlimit="10" fill="none"/></g><g clip-path="url(#clip12)"><path d="M1093.34 5231.28C1093.34 5237.35 1088.42 5242.28 1082.34 5242.28 1076.27 5242.28 1071.34 5237.35 1071.34 5231.28 1071.34 5225.21 1076.27 5220.28 1082.34 5220.28 1088.42 5220.28 1093.34 5225.21 1093.34 5231.28Z" stroke="#FFC000" stroke-width="3.4375" stroke-linejoin="round" stroke-miterlimit="10" fill="#FFC000"/><path d="M1094.34 5230.28C1094.34 5236.35 1089.42 5241.28 1083.34 5241.28 1077.27 5241.28 1072.34 5236.35 1072.34 5230.28 1072.34 5224.21 1077.27 5219.28 1083.34 5219.28 1089.42 5219.28 1094.34 5224.21 1094.34 5230.28Z" stroke="#FFC000" stroke-width="3.4375" stroke-linejoin="round" stroke-miterlimit="10" fill="#FFC000"/><path d="M1113.34 5228.28C1113.34 5234.35 1108.42 5239.28 1102.34 5239.28 1096.27 5239.28 1091.34 5234.35 1091.34 5228.28 1091.34 5222.21 1096.27 5217.28 1102.34 5217.28 1108.42 5217.28 1113.34 5222.21 1113.34 5228.28Z" stroke="#FFC000" stroke-width="3.4375" stroke-linejoin="round" stroke-miterlimit="10" fill="#FFC000"/><path d="M1296.34 5212.28C1296.34 5218.35 1291.42 5223.28 1285.34 5223.28 1279.27 5223.28 1274.34 5218.35 1274.34 5212.28 1274.34 5206.21 1279.27 5201.28 1285.34 5201.28 1291.42 5201.28 1296.34 5206.21 1296.34 5212.28Z" stroke="#FFC000" stroke-width="3.4375" stroke-linejoin="round" stroke-miterlimit="10" fill="#FFC000"/><path d="M3125.34 5045.28C3125.34 5051.35 3120.42 5056.28 3114.34 5056.28 3108.27 5056.28 3103.34 5051.35 3103.34 5045.28 3103.34 5039.21 3108.27 5034.28 3114.34 5034.28 3120.42 5034.28 3125.34 5039.21 3125.34 5045.28Z" stroke="#FFC000" stroke-width="3.4375" stroke-linejoin="round" stroke-miterlimit="10" fill="#FFC000"/></g><g clip-path="url(#clip13)"><path d="M1082.5 5231.5C1082.67 5231.49 1083.41 5231.43 1084.33 5231.37 1085.24 5231.3 1093.46 5230.57 1102.62 5230.08 1111.76 5229.6 1194.08 5225.58 1285.52 5220.65 1620.83 5202.55 2504.84 5154.55 3114.5 5121.5" stroke="#5B9BD5" stroke-width="6.875" stroke-linecap="round" stroke-linejoin="round" stroke-miterlimit="10" fill="none"/></g><g clip-path="url(#clip14)"><path d="M1093.34 5231.28C1093.34 5237.35 1088.42 5242.28 1082.34 5242.28 1076.27 5242.28 1071.34 5237.35 1071.34 5231.28 1071.34 5225.21 1076.27 5220.28 1082.34 5220.28 1088.42 5220.28 1093.34 5225.21 1093.34 5231.28Z" stroke="#5B9BD5" stroke-width="3.4375" stroke-linejoin="round" stroke-miterlimit="10" fill="#5B9BD5"/><path d="M1094.34 5230.28C1094.34 5236.35 1089.42 5241.28 1083.34 5241.28 1077.27 5241.28 1072.34 5236.35 1072.34 5230.28 1072.34 5224.21 1077.27 5219.28 1083.34 5219.28 1089.42 5219.28 1094.34 5224.21 1094.34 5230.28Z" stroke="#5B9BD5" stroke-width="3.4375" stroke-linejoin="round" stroke-miterlimit="10" fill="#5B9BD5"/><path d="M1113.34 5229.28C1113.34 5235.35 1108.42 5240.28 1102.34 5240.28 1096.27 5240.28 1091.34 5235.35 1091.34 5229.28 1091.34 5223.21 1096.27 5218.28 1102.34 5218.28 1108.42 5218.28 1113.34 5223.21 1113.34 5229.28Z" stroke="#5B9BD5" stroke-width="3.4375" stroke-linejoin="round" stroke-miterlimit="10" fill="#5B9BD5"/><path d="M1296.34 5220.28C1296.34 5226.35 1291.42 5231.28 1285.34 5231.28 1279.27 5231.28 1274.34 5226.35 1274.34 5220.28 1274.34 5214.21 1279.27 5209.28 1285.34 5209.28 1291.42 5209.28 1296.34 5214.21 1296.34 5220.28Z" stroke="#5B9BD5" stroke-width="3.4375" stroke-linejoin="round" stroke-miterlimit="10" fill="#5B9BD5"/><path d="M3125.34 5121.28C3125.34 5127.35 3120.42 5132.28 3114.34 5132.28 3108.27 5132.28 3103.34 5127.35 3103.34 5121.28 3103.34 5115.21 3108.27 5110.28 3114.34 5110.28 3120.42 5110.28 3125.34 5115.21 3125.34 5121.28Z" stroke="#5B9BD5" stroke-width="3.4375" stroke-linejoin="round" stroke-miterlimit="10" fill="#5B9BD5"/></g><g clip-path="url(#clip15)"><path d="M1082.5 5230.5C1082.67 5230.49 1083.41 5230.38 1084.33 5230.35 1085.24 5230.33 1093.48 5230.2 1102.62 5229.94 1111.76 5229.68 1194.06 5227.18 1285.52 5224.7 1620.83 5215.63 2504.84 5191.9 3114.5 5175.5" stroke="#70AD47" stroke-width="6.875" stroke-linecap="round" stroke-linejoin="round" stroke-miterlimit="10" fill="none"/></g><g clip-path="url(#clip16)"><path d="M1093.34 5230.28C1093.34 5236.35 1088.42 5241.28 1082.34 5241.28 1076.27 5241.28 1071.34 5236.35 1071.34 5230.28 1071.34 5224.21 1076.27 5219.28 1082.34 5219.28 1088.42 5219.28 1093.34 5224.21 1093.34 5230.28Z" stroke="#70AD47" stroke-width="3.4375" stroke-linejoin="round" stroke-miterlimit="10" fill="#70AD47"/><path d="M1094.34 5230.28C1094.34 5236.35 1089.42 5241.28 1083.34 5241.28 1077.27 5241.28 1072.34 5236.35 1072.34 5230.28 1072.34 5224.21 1077.27 5219.28 1083.34 5219.28 1089.42 5219.28 1094.34 5224.21 1094.34 5230.28Z" stroke="#70AD47" stroke-width="3.4375" stroke-linejoin="round" stroke-miterlimit="10" fill="#70AD47"/><path d="M1113.34 5230.28C1113.34 5236.35 1108.42 5241.28 1102.34 5241.28 1096.27 5241.28 1091.34 5236.35 1091.34 5230.28 1091.34 5224.21 1096.27 5219.28 1102.34 5219.28 1108.42 5219.28 1113.34 5224.21 1113.34 5230.28Z" stroke="#70AD47" stroke-width="3.4375" stroke-linejoin="round" stroke-miterlimit="10" fill="#70AD47"/><path d="M1296.34 5225.28C1296.34 5231.36 1291.42 5236.28 1285.34 5236.28 1279.27 5236.28 1274.34 5231.36 1274.34 5225.28 1274.34 5219.21 1279.27 5214.28 1285.34 5214.28 1291.42 5214.28 1296.34 5219.21 1296.34 5225.28Z" stroke="#70AD47" stroke-width="3.4375" stroke-linejoin="round" stroke-miterlimit="10" fill="#70AD47"/><path d="M3125.34 5175.28C3125.34 5181.35 3120.42 5186.28 3114.34 5186.28 3108.27 5186.28 3103.34 5181.35 3103.34 5175.28 3103.34 5169.21 3108.27 5164.28 3114.34 5164.28 3120.42 5164.28 3125.34 5169.21 3125.34 5175.28Z" stroke="#70AD47" stroke-width="3.4375" stroke-linejoin="round" stroke-miterlimit="10" fill="#70AD47"/></g><g clip-path="url(#clip17)"><text fill="#595959" font-family="Calibri,Calibri_MSFontService,sans-serif" font-weight="400" font-size="41" transform="matrix(1 0 0 1 1022.72 5243)">0</text></g><g clip-path="url(#clip18)"><text fill="#595959" font-family="Calibri,Calibri_MSFontService,sans-serif" font-weight="400" font-size="41" transform="matrix(1 0 0 1 1022.72 5113)">2</text></g><g clip-path="url(#clip19)"><text fill="#595959" font-family="Calibri,Calibri_MSFontService,sans-serif" font-weight="400" font-size="41" transform="matrix(1 0 0 1 1022.72 4983)">4</text></g><g clip-path="url(#clip20)"><text fill="#595959" font-family="Calibri,Calibri_MSFontService,sans-serif" font-weight="400" font-size="41" transform="matrix(1 0 0 1 1022.72 4853)">6</text></g><g clip-path="url(#clip21)"><text fill="#595959" font-family="Calibri,Calibri_MSFontService,sans-serif" font-weight="400" font-size="41" transform="matrix(1 0 0 1 1022.72 4722)">8</text></g><g clip-path="url(#clip22)"><text fill="#595959" font-family="Calibri,Calibri_MSFontService,sans-serif" font-weight="400" font-size="41" transform="matrix(1 0 0 1 1001.82 4592)">10</text></g><g clip-path="url(#clip23)"><text fill="#595959" font-family="Calibri,Calibri_MSFontService,sans-serif" font-weight="400" font-size="41" transform="matrix(1 0 0 1 1001.82 4462)">12</text></g><g clip-path="url(#clip24)"><text fill="#595959" font-family="Calibri,Calibri_MSFontService,sans-serif" font-weight="400" font-size="41" transform="matrix(1 0 0 1 1001.82 4332)">14</text></g><g clip-path="url(#clip25)"><text fill="#595959" font-family="Calibri,Calibri_MSFontService,sans-serif" font-weight="400" font-size="41" transform="matrix(1 0 0 1 1071.44 5296)">0</text></g><g clip-path="url(#clip26)"><text fill="#595959" font-family="Calibri,Calibri_MSFontService,sans-serif" font-weight="400" font-size="41" transform="matrix(1 0 0 1 1436.12 5296)">20000</text></g><g clip-path="url(#clip27)"><text fill="#595959" font-family="Calibri,Calibri_MSFontService,sans-serif" font-weight="400" font-size="41" transform="matrix(1 0 0 1 1842.59 5296)">40000</text></g><g clip-path="url(#clip28)"><text fill="#595959" font-family="Calibri,Calibri_MSFontService,sans-serif" font-weight="400" font-size="41" transform="matrix(1 0 0 1 2249.07 5296)">60000</text></g><g clip-path="url(#clip29)"><text fill="#595959" font-family="Calibri,Calibri_MSFontService,sans-serif" font-weight="400" font-size="41" transform="matrix(1 0 0 1 2655.54 5296)">80000</text></g><g clip-path="url(#clip30)"><text fill="#595959" font-family="Calibri,Calibri_MSFontService,sans-serif" font-weight="400" font-size="41" transform="matrix(1 0 0 1 3051.57 5296)">100000</text></g><g clip-path="url(#clip31)"><text fill="#595959" font-family="Calibri,Calibri_MSFontService,sans-serif" font-weight="400" font-size="46" transform="matrix(6.12323e-17 -1 1 6.12323e-17 976.135 4884)">Temps [ms]</text></g><g clip-path="url(#clip32)"><text fill="#595959" font-family="Calibri,Calibri_MSFontService,sans-serif" font-weight="400" font-size="46" transform="matrix(1 0 0 1 2022.3 5365)">Nombre de valeurs</text></g><g clip-path="url(#clip33)"><text fill="#595959" font-family="Calibri,Calibri_MSFontService,sans-serif" font-weight="400" font-size="64" transform="matrix(1 0 0 1 1874.63 4246)">Vecteurs presque trié</text></g><g clip-path="url(#clip34)"><path d="M1525.5 5473.5 1613.5 5473.5" stroke="#4472C4" stroke-width="6.875" stroke-linecap="round" stroke-linejoin="round" stroke-miterlimit="10" fill="none" fill-rule="evenodd"/></g><g clip-path="url(#clip35)"><path d="M1580 5473C1580 5479.07 1575.08 5484 1569 5484 1562.93 5484 1558 5479.07 1558 5473 1558 5466.92 1562.93 5462 1569 5462 1575.08 5462 1580 5466.92 1580 5473Z" stroke="#4472C4" stroke-width="3.4375" stroke-linejoin="round" stroke-miterlimit="10" fill="#4472C4"/></g><g clip-path="url(#clip36)"><text fill="#595959" font-family="Calibri,Calibri_MSFontService,sans-serif" font-weight="400" font-size="41" transform="matrix(1 0 0 1 1622.33 5485)">Tri rapide</text></g><g clip-path="url(#clip37)"><path d="M1953.5 5473.5 2041.5 5473.5" stroke="#ED7D31" stroke-width="6.875" stroke-linecap="round" stroke-linejoin="round" stroke-miterlimit="10" fill="none" fill-rule="evenodd"/></g><g clip-path="url(#clip38)"><path d="M2008 5473C2008 5479.07 2003.08 5484 1997 5484 1990.93 5484 1986 5479.07 1986 5473 1986 5466.92 1990.93 5462 1997 5462 2003.08 5462 2008 5466.92 2008 5473Z" stroke="#ED7D31" stroke-width="3.4375" stroke-linejoin="round" stroke-miterlimit="10" fill="#ED7D31"/></g><g clip-path="url(#clip39)"><text fill="#595959" font-family="Calibri,Calibri_MSFontService,sans-serif" font-weight="400" font-size="41" transform="matrix(1 0 0 1 2050.41 5485)">Tri par base 1 bit</text></g><g clip-path="url(#clip40)"><path d="M2381.5 5473.5 2469.5 5473.5" stroke="#A5A5A5" stroke-width="6.875" stroke-linecap="round" stroke-linejoin="round" stroke-miterlimit="10" fill="none" fill-rule="evenodd"/></g><g clip-path="url(#clip41)"><path d="M2436 5473C2436 5479.07 2431.07 5484 2425 5484 2418.93 5484 2414 5479.07 2414 5473 2414 5466.92 2418.93 5462 2425 5462 2431.07 5462 2436 5466.92 2436 5473Z" stroke="#A5A5A5" stroke-width="3.4375" stroke-linejoin="round" stroke-miterlimit="10" fill="#A5A5A5"/></g><g clip-path="url(#clip42)"><text fill="#595959" font-family="Calibri,Calibri_MSFontService,sans-serif" font-weight="400" font-size="41" transform="matrix(1 0 0 1 2478.5 5485)">Tri par base 2 bits</text></g><g clip-path="url(#clip43)"><path d="M1525.5 5550.5 1613.5 5550.5" stroke="#FFC000" stroke-width="6.875" stroke-linecap="round" stroke-linejoin="round" stroke-miterlimit="10" fill="none" fill-rule="evenodd"/></g><g clip-path="url(#clip44)"><path d="M1580 5550C1580 5556.07 1575.08 5561 1569 5561 1562.93 5561 1558 5556.07 1558 5550 1558 5543.92 1562.93 5539 1569 5539 1575.08 5539 1580 5543.92 1580 5550Z" stroke="#FFC000" stroke-width="3.4375" stroke-linejoin="round" stroke-miterlimit="10" fill="#FFC000"/></g><g clip-path="url(#clip45)"><text fill="#595959" font-family="Calibri,Calibri_MSFontService,sans-serif" font-weight="400" font-size="41" transform="matrix(1 0 0 1 1622.33 5562)">Tri par base 4 bits</text></g><g clip-path="url(#clip46)"><path d="M1953.5 5550.5 2041.5 5550.5" stroke="#5B9BD5" stroke-width="6.875" stroke-linecap="round" stroke-linejoin="round" stroke-miterlimit="10" fill="none" fill-rule="evenodd"/></g><g clip-path="url(#clip47)"><path d="M2008 5550C2008 5556.07 2003.08 5561 1997 5561 1990.93 5561 1986 5556.07 1986 5550 1986 5543.92 1990.93 5539 1997 5539 2003.08 5539 2008 5543.92 2008 5550Z" stroke="#5B9BD5" stroke-width="3.4375" stroke-linejoin="round" stroke-miterlimit="10" fill="#5B9BD5"/></g><g clip-path="url(#clip48)"><text fill="#595959" font-family="Calibri,Calibri_MSFontService,sans-serif" font-weight="400" font-size="41" transform="matrix(1 0 0 1 2050.41 5562)">Tri par base 8 bits</text></g><g clip-path="url(#clip49)"><path d="M2381.5 5550.5 2469.5 5550.5" stroke="#70AD47" stroke-width="6.875" stroke-linecap="round" stroke-linejoin="round" stroke-miterlimit="10" fill="none" fill-rule="evenodd"/></g><g clip-path="url(#clip50)"><path d="M2436 5550C2436 5556.07 2431.07 5561 2425 5561 2418.93 5561 2414 5556.07 2414 5550 2414 5543.92 2418.93 5539 2425 5539 2431.07 5539 2436 5543.92 2436 5550Z" stroke="#70AD47" stroke-width="3.4375" stroke-linejoin="round" stroke-miterlimit="10" fill="#70AD47"/></g><g clip-path="url(#clip51)"><text fill="#595959" font-family="Calibri,Calibri_MSFontService,sans-serif" font-weight="400" font-size="41" transform="matrix(1 0 0 1 2478.5 5562)">Tri par base 16 bits</text></g><rect x="875.5" y="4151.5" width="2556" height="1459" stroke="#D9D9D9" stroke-width="3.4375" stroke-linejoin="round" stroke-miterlimit="10" fill="none"/></g></svg>