<svg width="2443" height="1385" xmlns="http://www.w3.org/2000/svg" xmlns:xlink="http://www.w3.org/1999/xlink" xml:space="preserve" overflow="hidden"><defs><clipPath id="clip0"><rect x="2358" y="784" width="2443" height="1385"/></clipPath><clipPath id="clip1"><rect x="2359" y="784" width="2439" height="1383"/></clipPath><clipPath id="clip2"><rect x="2359" y="784" width="2439" height="1383"/></clipPath><clipPath id="clip3"><rect x="2359" y="784" width="2439" height="1383"/></clipPath><clipPath id="clip4"><rect x="2359" y="784" width="2439" height="1383"/></clipPath><clipPath id="clip5"><rect x="2566" y="954" width="2123" height="837"/></clipPath><clipPath id="clip6"><rect x="2359" y="784" width="2439" height="1383"/></clipPath><clipPath id="clip7"><rect x="2566" y="954" width="2123" height="837"/></clipPath><clipPath id="clip8"><rect x="2359" y="784" width="2439" height="1383"/></clipPath><clipPath id="clip9"><rect x="2566" y="954" width="2123" height="837"/></clipPath><clipPath id="clip10"><rect x="2359" y="784" width="2439" height="1383"/></clipPath><clipPath id="clip11"><rect x="2566" y="954" width="2123" height="837"/></clipPath><clipPath id="clip12"><rect x="2359" y="784" width="2439" height="1383"/></clipPath><clipPath id="clip13"><rect x="2566" y="954" width="2123" height="837"/></clipPath><clipPath id="clip14"><rect x="2359" y="784" width="2439" height="1383"/></clipPath><clipPath id="clip15"><rect x="2566" y="954" width="2123" height="837"/></clipPath><clipPath id="clip16"><rect x="2359" y="784" width="2439" height="1383"/></clipPath><clipPath id="clip17"><rect x="2359" y="784" width="2439" height="1383"/></clipPath><clipPath id="clip18"><rect x="2359" y="784" width="2439" height="1383"/></clipPath><clipPath id="clip19"><rect x="2359" y="784" width="2439" height="1383"/></clipPath><clipPath id="clip20"><rect x="2359" y="784" width="2439" height="1383"/></clipPath><clipPath id="clip21"><rect x="2359" y="784" width="2439" height="1383"/></clipPath><clipPath id="clip22"><rect x="2359" y="784" width="2439" height="1383"/></clipPath><clipPath id="clip23"><rect x="2359" y="784" width="2439" height="1383"/></clipPath><clipPath id="clip24"><rect x="2359" y="784" width="2439" height="1383"/></clipPath><clipPath id="clip25"><rect x="2359" y="784" width="2439" height="1383"/></clipPath><clipPath id="clip26"><rect x="2359" y="784" width="2439" height="1383"/></clipPath><clipPath id="clip27"><rect x="2359" y="784" width="2439" height="1383"/></clipPath><clipPath id="clip28"><rect x="2359" y="784" width="2439" height="1383"/></clipPath><clipPath id="clip29"><rect x="2359" y="784" width="2439" height="1383"/></clipPath><clipPath id="clip30"><rect x="2359" y="784" width="2439" height="1383"/></clipPath><clipPath id="clip31"><rect x="2359" y="784" width="2439" height="1383"/></clipPath><clipPath id="clip32"><rect x="2359" y="784" width="2439" height="1383"/></clipPath><clipPath id="clip33"><rect x="2359" y="784" width="2439" height="1383"/></clipPath><clipPath id="clip34"><rect x="2359" y="784" width="2439" height="1383"/></clipPath><clipPath id="clip35"><rect x="2359" y="784" width="2439" height="1383"/></clipPath><clipPath id="clip36"><rect x="2359" y="784" width="2439" height="1383"/></clipPath><clipPath id="clip37"><rect x="2359" y="784" width="2439" height="1383"/></clipPath><clipPath id="clip38"><rect x="2359" y="784" width="2439" height="1383"/></clipPath><clipPath id="clip39"><rect x="2359" y="784" width="2439" height="1383"/></clipPath><clipPath id="clip40"><rect x="2359" y="784" width="2439" height="1383"/></clipPath><clipPath id="clip41"><rect x="2359" y="784" width="2439" height="1383"/></clipPath><clipPath id="clip42"><rect x="2359" y="784" width="2439" height="1383"/></clipPath><clipPath id="clip43"><rect x="2359" y="784" width="2439" height="1383"/></clipPath><clipPath id="clip44"><rect x="2359" y="784" width="2439" height="1383"/></clipPath><clipPath id="clip45"><rect x="2359" y="784" width="2439" height="1383"/></clipPath><clipPath id="clip46"><rect x="2359" y="784" width="2439" height="1383"/></clipPath><clipPath id="clip47"><rect x="2359" y="784" width="2439" height="1383"/></clipPath><clipPath id="clip48"><rect x="2359" y="784" width="2439" height="1383"/></clipPath><clipPath id="clip49"><rect x="2359" y="784" width="2439" height="1383"/></clipPath><clipPath id="clip50"><rect x="2359" y="784" width="2439" height="1383"/></clipPath><clipPath id="clip51"><rect x="2359" y="784" width="2439" height="1383"/></clipPath><clipPath id="clip52"><rect x="2359" y="784" width="2439" height="1383"/></clipPath></defs><g clip-path="url(#clip0)" transform="translate(-2358 -784)"><rect x="2359" y="785" width="2440" height="1382" fill="#FFFFFF"/><g clip-path="url(#clip1)"><path d="M2566.5 1684.56 4685.5 1684.56M2566.5 1579.55 4685.5 1579.55M2566.5 1475.55 4685.5 1475.55M2566.5 1371.55 4685.5 1371.55M2566.5 1267.54 4685.5 1267.54M2566.5 1163.54 4685.5 1163.54M2566.5 1058.53 4685.5 1058.53M2566.5 954.5 4685.5 954.5" stroke="#D9D9D9" stroke-width="3.4375" stroke-linejoin="round" stroke-miterlimit="10" fill="none"/></g><g clip-path="url(#clip2)"><path d="M2951.6 954.5 2951.6 1788.5M3336.61 954.5 3336.61 1788.5M3722.62 954.5 3722.62 1788.5M4107.63 954.5 4107.63 1788.5M4492.5 954.5 4492.5 1788.5" stroke="#D9D9D9" stroke-width="3.4375" stroke-linejoin="round" stroke-miterlimit="10" fill="none"/></g><g clip-path="url(#clip3)"><path d="M0 0 0.000360892 834" stroke="#BFBFBF" stroke-width="3.4375" stroke-linejoin="round" stroke-miterlimit="10" fill="none" fill-rule="evenodd" transform="matrix(1 0 0 -1 2566.5 1788.5)"/></g><g clip-path="url(#clip4)"><path d="M2566.5 1788.5 4685.5 1788.5" stroke="#BFBFBF" stroke-width="3.4375" stroke-linejoin="round" stroke-miterlimit="10" fill="none" fill-rule="evenodd"/></g><g clip-path="url(#clip5)"><path d="M2566.5 1788.5C2566.66 1788.48 2567.37 1788.41 2568.23 1788.32 2569.1 1788.24 2576.9 1787.47 2585.57 1786.61 2594.24 1785.76 2672.2 1777.61 2758.93 1769.51 3076.75 1739.82 3914.64 1662.17 4492.5 1608.5" stroke="#4472C4" stroke-width="6.875" stroke-linecap="round" stroke-linejoin="round" stroke-miterlimit="10" fill="none"/></g><g clip-path="url(#clip6)"><path d="M2577.52 1788.22C2577.52 1794.3 2572.59 1799.22 2566.52 1799.22 2560.45 1799.22 2555.52 1794.3 2555.52 1788.22 2555.52 1782.15 2560.45 1777.22 2566.52 1777.22 2572.59 1777.22 2577.52 1782.15 2577.52 1788.22Z" stroke="#4472C4" stroke-width="3.4375" stroke-linejoin="round" stroke-miterlimit="10" fill="#4472C4"/><path d="M2578.52 1788.22C2578.52 1794.3 2573.59 1799.22 2567.52 1799.22 2561.45 1799.22 2556.52 1794.3 2556.52 1788.22 2556.52 1782.15 2561.45 1777.22 2567.52 1777.22 2573.59 1777.22 2578.52 1782.15 2578.52 1788.22Z" stroke="#4472C4" stroke-width="3.4375" stroke-linejoin="round" stroke-miterlimit="10" fill="#4472C4"/><path d="M2596.52 1786.22C2596.52 1792.3 2591.6 1797.22 2585.52 1797.22 2579.45 1797.22 2574.52 1792.3 2574.52 1786.22 2574.52 1780.15 2579.45 1775.22 2585.52 1775.22 2591.6 1775.22 2596.52 1780.15 2596.52 1786.22Z" stroke="#4472C4" stroke-width="3.4375" stroke-linejoin="round" stroke-miterlimit="10" fill="#4472C4"/><path d="M2769.52 1769.22C2769.52 1775.3 2764.6 1780.22 2758.52 1780.22 2752.45 1780.22 2747.52 1775.3 2747.52 1769.22 2747.52 1763.15 2752.45 1758.22 2758.52 1758.22 2764.6 1758.22 2769.52 1763.15 2769.52 1769.22Z" stroke="#4472C4" stroke-width="3.4375" stroke-linejoin="round" stroke-miterlimit="10" fill="#4472C4"/><path d="M4503.52 1608.22C4503.52 1614.3 4498.6 1619.22 4492.52 1619.22 4486.45 1619.22 4481.52 1614.3 4481.52 1608.22 4481.52 1602.15 4486.45 1597.22 4492.52 1597.22 4498.6 1597.22 4503.52 1602.15 4503.52 1608.22Z" stroke="#4472C4" stroke-width="3.4375" stroke-linejoin="round" stroke-miterlimit="10" fill="#4472C4"/></g><g clip-path="url(#clip7)"><path d="M2566.5 1788.5C2566.66 1788.4 2567.33 1787.91 2568.23 1787.46 2569.11 1787.03 2576.79 1783.01 2585.57 1779.03 2594.41 1775.03 2670.51 1735.96 2758.93 1701.16 3076.75 1576.07 3914.64 1252.72 4492.5 1028.5" stroke="#ED7D31" stroke-width="6.875" stroke-linecap="round" stroke-linejoin="round" stroke-miterlimit="10" fill="none"/></g><g clip-path="url(#clip8)"><path d="M2577.52 1788.22C2577.52 1794.3 2572.59 1799.22 2566.52 1799.22 2560.45 1799.22 2555.52 1794.3 2555.52 1788.22 2555.52 1782.15 2560.45 1777.22 2566.52 1777.22 2572.59 1777.22 2577.52 1782.15 2577.52 1788.22Z" stroke="#ED7D31" stroke-width="3.4375" stroke-linejoin="round" stroke-miterlimit="10" fill="#ED7D31"/><path d="M2578.52 1787.22C2578.52 1793.3 2573.59 1798.22 2567.52 1798.22 2561.45 1798.22 2556.52 1793.3 2556.52 1787.22 2556.52 1781.15 2561.45 1776.22 2567.52 1776.22 2573.59 1776.22 2578.52 1781.15 2578.52 1787.22Z" stroke="#ED7D31" stroke-width="3.4375" stroke-linejoin="round" stroke-miterlimit="10" fill="#ED7D31"/><path d="M2596.52 1778.22C2596.52 1784.3 2591.6 1789.22 2585.52 1789.22 2579.45 1789.22 2574.52 1784.3 2574.52 1778.22 2574.52 1772.15 2579.45 1767.22 2585.52 1767.22 2591.6 1767.22 2596.52 1772.15 2596.52 1778.22Z" stroke="#ED7D31" stroke-width="3.4375" stroke-linejoin="round" stroke-miterlimit="10" fill="#ED7D31"/><path d="M2769.52 1700.22C2769.52 1706.3 2764.6 1711.22 2758.52 1711.22 2752.45 1711.22 2747.52 1706.3 2747.52 1700.22 2747.52 1694.15 2752.45 1689.22 2758.52 1689.22 2764.6 1689.22 2769.52 1694.15 2769.52 1700.22Z" stroke="#ED7D31" stroke-width="3.4375" stroke-linejoin="round" stroke-miterlimit="10" fill="#ED7D31"/><path d="M4503.52 1028.22C4503.52 1034.3 4498.6 1039.22 4492.52 1039.22 4486.45 1039.22 4481.52 1034.3 4481.52 1028.22 4481.52 1022.15 4486.45 1017.22 4492.52 1017.22 4498.6 1017.22 4503.52 1022.15 4503.52 1028.22Z" stroke="#ED7D31" stroke-width="3.4375" stroke-linejoin="round" stroke-miterlimit="10" fill="#ED7D31"/></g><g clip-path="url(#clip9)"><path d="M2566.5 1788.31C2566.65 1788.31 2567.39 1788.5 2568.23 1788.31 2569.11 1788.11 2576.79 1785.66 2585.57 1784.02 2594.28 1782.38 2671.77 1765.34 2758.93 1752.47 3076.75 1705.55 3914.64 1585.82 4492.5 1502.5" stroke="#A5A5A5" stroke-width="6.875" stroke-linecap="round" stroke-linejoin="round" stroke-miterlimit="10" fill="none"/></g><g clip-path="url(#clip10)"><path d="M2577.52 1788.22C2577.52 1794.3 2572.59 1799.22 2566.52 1799.22 2560.45 1799.22 2555.52 1794.3 2555.52 1788.22 2555.52 1782.15 2560.45 1777.22 2566.52 1777.22 2572.59 1777.22 2577.52 1782.15 2577.52 1788.22Z" stroke="#A5A5A5" stroke-width="3.4375" stroke-linejoin="round" stroke-miterlimit="10" fill="#A5A5A5"/><path d="M2578.52 1788.22C2578.52 1794.3 2573.59 1799.22 2567.52 1799.22 2561.45 1799.22 2556.52 1794.3 2556.52 1788.22 2556.52 1782.15 2561.45 1777.22 2567.52 1777.22 2573.59 1777.22 2578.52 1782.15 2578.52 1788.22Z" stroke="#A5A5A5" stroke-width="3.4375" stroke-linejoin="round" stroke-miterlimit="10" fill="#A5A5A5"/><path d="M2596.52 1784.22C2596.52 1790.3 2591.6 1795.22 2585.52 1795.22 2579.45 1795.22 2574.52 1790.3 2574.52 1784.22 2574.52 1778.15 2579.45 1773.22 2585.52 1773.22 2591.6 1773.22 2596.52 1778.15 2596.52 1784.22Z" stroke="#A5A5A5" stroke-width="3.4375" stroke-linejoin="round" stroke-miterlimit="10" fill="#A5A5A5"/><path d="M2769.52 1752.22C2769.52 1758.3 2764.6 1763.22 2758.52 1763.22 2752.45 1763.22 2747.52 1758.3 2747.52 1752.22 2747.52 1746.15 2752.45 1741.22 2758.52 1741.22 2764.6 1741.22 2769.52 1746.15 2769.52 1752.22Z" stroke="#A5A5A5" stroke-width="3.4375" stroke-linejoin="round" stroke-miterlimit="10" fill="#A5A5A5"/><path d="M4503.52 1502.22C4503.52 1508.3 4498.6 1513.22 4492.52 1513.22 4486.45 1513.22 4481.52 1508.3 4481.52 1502.22 4481.52 1496.15 4486.45 1491.22 4492.52 1491.22 4498.6 1491.22 4503.52 1496.15 4503.52 1502.22Z" stroke="#A5A5A5" stroke-width="3.4375" stroke-linejoin="round" stroke-miterlimit="10" fill="#A5A5A5"/></g><g clip-path="url(#clip11)"><path d="M2566.5 1788.5C2566.66 1788.48 2567.36 1788.35 2568.23 1788.25 2569.1 1788.15 2576.89 1787.19 2585.57 1786.33 2594.25 1785.46 2672.12 1776.4 2758.93 1769.31 3076.75 1743.34 3914.64 1676.77 4492.5 1630.5" stroke="#FFC000" stroke-width="6.875" stroke-linecap="round" stroke-linejoin="round" stroke-miterlimit="10" fill="none"/></g><g clip-path="url(#clip12)"><path d="M2577.52 1788.22C2577.52 1794.3 2572.59 1799.22 2566.52 1799.22 2560.45 1799.22 2555.52 1794.3 2555.52 1788.22 2555.52 1782.15 2560.45 1777.22 2566.52 1777.22 2572.59 1777.22 2577.52 1782.15 2577.52 1788.22Z" stroke="#FFC000" stroke-width="3.4375" stroke-linejoin="round" stroke-miterlimit="10" fill="#FFC000"/><path d="M2578.52 1788.22C2578.52 1794.3 2573.59 1799.22 2567.52 1799.22 2561.45 1799.22 2556.52 1794.3 2556.52 1788.22 2556.52 1782.15 2561.45 1777.22 2567.52 1777.22 2573.59 1777.22 2578.52 1782.15 2578.52 1788.22Z" stroke="#FFC000" stroke-width="3.4375" stroke-linejoin="round" stroke-miterlimit="10" fill="#FFC000"/><path d="M2596.52 1786.22C2596.52 1792.3 2591.6 1797.22 2585.52 1797.22 2579.45 1797.22 2574.52 1792.3 2574.52 1786.22 2574.52 1780.15 2579.45 1775.22 2585.52 1775.22 2591.6 1775.22 2596.52 1780.15 2596.52 1786.22Z" stroke="#FFC000" stroke-width="3.4375" stroke-linejoin="round" stroke-miterlimit="10" fill="#FFC000"/><path d="M2769.52 1769.22C2769.52 1775.3 2764.6 1780.22 2758.52 1780.22 2752.45 1780.22 2747.52 1775.3 2747.52 1769.22 2747.52 1763.15 2752.45 1758.22 2758.52 1758.22 2764.6 1758.22 2769.52 1763.15 2769.52 1769.22Z" stroke="#FFC000" stroke-width="3.4375" stroke-linejoin="round" stroke-miterlimit="10" fill="#FFC000"/><path d="M4503.52 1630.22C4503.52 1636.3 4498.6 1641.22 4492.52 1641.22 4486.45 1641.22 4481.52 1636.3 4481.52 1630.22 4481.52 1624.15 4486.45 1619.22 4492.52 1619.22 4498.6 1619.22 4503.52 1624.15 4503.52 1630.22Z" stroke="#FFC000" stroke-width="3.4375" stroke-linejoin="round" stroke-miterlimit="10" fill="#FFC000"/></g><g clip-path="url(#clip13)"><path d="M2566.5 1788.5C2566.66 1788.49 2567.37 1788.45 2568.23 1788.39 2569.1 1788.34 2576.9 1787.81 2585.57 1787.3 2594.24 1786.79 2672.21 1781.44 2758.93 1777.17 3076.75 1761.54 3914.64 1721.39 4492.5 1693.5" stroke="#5B9BD5" stroke-width="6.875" stroke-linecap="round" stroke-linejoin="round" stroke-miterlimit="10" fill="none"/></g><g clip-path="url(#clip14)"><path d="M2577.52 1788.22C2577.52 1794.3 2572.59 1799.22 2566.52 1799.22 2560.45 1799.22 2555.52 1794.3 2555.52 1788.22 2555.52 1782.15 2560.45 1777.22 2566.52 1777.22 2572.59 1777.22 2577.52 1782.15 2577.52 1788.22Z" stroke="#5B9BD5" stroke-width="3.4375" stroke-linejoin="round" stroke-miterlimit="10" fill="#5B9BD5"/><path d="M2578.52 1788.22C2578.52 1794.3 2573.59 1799.22 2567.52 1799.22 2561.45 1799.22 2556.52 1794.3 2556.52 1788.22 2556.52 1782.15 2561.45 1777.22 2567.52 1777.22 2573.59 1777.22 2578.52 1782.15 2578.52 1788.22Z" stroke="#5B9BD5" stroke-width="3.4375" stroke-linejoin="round" stroke-miterlimit="10" fill="#5B9BD5"/><path d="M2596.52 1787.22C2596.52 1793.3 2591.6 1798.22 2585.52 1798.22 2579.45 1798.22 2574.52 1793.3 2574.52 1787.22 2574.52 1781.15 2579.45 1776.22 2585.52 1776.22 2591.6 1776.22 2596.52 1781.15 2596.52 1787.22Z" stroke="#5B9BD5" stroke-width="3.4375" stroke-linejoin="round" stroke-miterlimit="10" fill="#5B9BD5"/><path d="M2769.52 1777.22C2769.52 1783.3 2764.6 1788.22 2758.52 1788.22 2752.45 1788.22 2747.52 1783.3 2747.52 1777.22 2747.52 1771.15 2752.45 1766.22 2758.52 1766.22 2764.6 1766.22 2769.52 1771.15 2769.52 1777.22Z" stroke="#5B9BD5" stroke-width="3.4375" stroke-linejoin="round" stroke-miterlimit="10" fill="#5B9BD5"/><path d="M4503.52 1693.22C4503.52 1699.3 4498.6 1704.22 4492.52 1704.22 4486.45 1704.22 4481.52 1699.3 4481.52 1693.22 4481.52 1687.15 4486.45 1682.22 4492.52 1682.22 4498.6 1682.22 4503.52 1687.15 4503.52 1693.22Z" stroke="#5B9BD5" stroke-width="3.4375" stroke-linejoin="round" stroke-miterlimit="10" fill="#5B9BD5"/></g><g clip-path="url(#clip15)"><path d="M2566.5 1786.77C2566.72 1786.98 2567.03 1788.38 2568.23 1788.45 2569.1 1788.5 2576.9 1788.13 2585.57 1787.86 2594.24 1787.58 2672.24 1784.71 2758.93 1782.47 3076.75 1774.24 3914.64 1753.16 4492.5 1738.5" stroke="#70AD47" stroke-width="6.875" stroke-linecap="round" stroke-linejoin="round" stroke-miterlimit="10" fill="none"/></g><g clip-path="url(#clip16)"><path d="M2577.52 1786.22C2577.52 1792.3 2572.59 1797.22 2566.52 1797.22 2560.45 1797.22 2555.52 1792.3 2555.52 1786.22 2555.52 1780.15 2560.45 1775.22 2566.52 1775.22 2572.59 1775.22 2577.52 1780.15 2577.52 1786.22Z" stroke="#70AD47" stroke-width="3.4375" stroke-linejoin="round" stroke-miterlimit="10" fill="#70AD47"/><path d="M2578.52 1788.22C2578.52 1794.3 2573.59 1799.22 2567.52 1799.22 2561.45 1799.22 2556.52 1794.3 2556.52 1788.22 2556.52 1782.15 2561.45 1777.22 2567.52 1777.22 2573.59 1777.22 2578.52 1782.15 2578.52 1788.22Z" stroke="#70AD47" stroke-width="3.4375" stroke-linejoin="round" stroke-miterlimit="10" fill="#70AD47"/><path d="M2596.52 1787.22C2596.52 1793.3 2591.6 1798.22 2585.52 1798.22 2579.45 1798.22 2574.52 1793.3 2574.52 1787.22 2574.52 1781.15 2579.45 1776.22 2585.52 1776.22 2591.6 1776.22 2596.52 1781.15 2596.52 1787.22Z" stroke="#70AD47" stroke-width="3.4375" stroke-linejoin="round" stroke-miterlimit="10" fill="#70AD47"/><path d="M2769.52 1782.22C2769.52 1788.3 2764.6 1793.22 2758.52 1793.22 2752.45 1793.22 2747.52 1788.3 2747.52 1782.22 2747.52 1776.15 2752.45 1771.22 2758.52 1771.22 2764.6 1771.22 2769.52 1776.15 2769.52 1782.22Z" stroke="#70AD47" stroke-width="3.4375" stroke-linejoin="round" stroke-miterlimit="10" fill="#70AD47"/><path d="M4503.52 1738.22C4503.52 1744.3 4498.6 1749.22 4492.52 1749.22 4486.45 1749.22 4481.52 1744.3 4481.52 1738.22 4481.52 1732.15 4486.45 1727.22 4492.52 1727.22 4498.6 1727.22 4503.52 1732.15 4503.52 1738.22Z" stroke="#70AD47" stroke-width="3.4375" stroke-linejoin="round" stroke-miterlimit="10" fill="#70AD47"/></g><g clip-path="url(#clip17)"><text fill="#595959" font-family="Calibri,Calibri_MSFontService,sans-serif" font-weight="400" font-size="41" transform="matrix(1 0 0 1 2506.9 1800)">0</text></g><g clip-path="url(#clip18)"><text fill="#595959" font-family="Calibri,Calibri_MSFontService,sans-serif" font-weight="400" font-size="41" transform="matrix(1 0 0 1 2506.9 1696)">2</text></g><g clip-path="url(#clip19)"><text fill="#595959" font-family="Calibri,Calibri_MSFontService,sans-serif" font-weight="400" font-size="41" transform="matrix(1 0 0 1 2506.9 1591)">4</text></g><g clip-path="url(#clip20)"><text fill="#595959" font-family="Calibri,Calibri_MSFontService,sans-serif" font-weight="400" font-size="41" transform="matrix(1 0 0 1 2506.9 1487)">6</text></g><g clip-path="url(#clip21)"><text fill="#595959" font-family="Calibri,Calibri_MSFontService,sans-serif" font-weight="400" font-size="41" transform="matrix(1 0 0 1 2506.9 1383)">8</text></g><g clip-path="url(#clip22)"><text fill="#595959" font-family="Calibri,Calibri_MSFontService,sans-serif" font-weight="400" font-size="41" transform="matrix(1 0 0 1 2486 1279)">10</text></g><g clip-path="url(#clip23)"><text fill="#595959" font-family="Calibri,Calibri_MSFontService,sans-serif" font-weight="400" font-size="41" transform="matrix(1 0 0 1 2486 1175)">12</text></g><g clip-path="url(#clip24)"><text fill="#595959" font-family="Calibri,Calibri_MSFontService,sans-serif" font-weight="400" font-size="41" transform="matrix(1 0 0 1 2486 1070)">14</text></g><g clip-path="url(#clip25)"><text fill="#595959" font-family="Calibri,Calibri_MSFontService,sans-serif" font-weight="400" font-size="41" transform="matrix(1 0 0 1 2486 966)">16</text></g><g clip-path="url(#clip26)"><text fill="#595959" font-family="Calibri,Calibri_MSFontService,sans-serif" font-weight="400" font-size="41" transform="matrix(1 0 0 1 2555.62 1853)">0</text></g><g clip-path="url(#clip27)"><text fill="#595959" font-family="Calibri,Calibri_MSFontService,sans-serif" font-weight="400" font-size="41" transform="matrix(1 0 0 1 2899.19 1853)">20000</text></g><g clip-path="url(#clip28)"><text fill="#595959" font-family="Calibri,Calibri_MSFontService,sans-serif" font-weight="400" font-size="41" transform="matrix(1 0 0 1 3284.57 1853)">40000</text></g><g clip-path="url(#clip29)"><text fill="#595959" font-family="Calibri,Calibri_MSFontService,sans-serif" font-weight="400" font-size="41" transform="matrix(1 0 0 1 3669.94 1853)">60000</text></g><g clip-path="url(#clip30)"><text fill="#595959" font-family="Calibri,Calibri_MSFontService,sans-serif" font-weight="400" font-size="41" transform="matrix(1 0 0 1 4055.32 1853)">80000</text></g><g clip-path="url(#clip31)"><text fill="#595959" font-family="Calibri,Calibri_MSFontService,sans-serif" font-weight="400" font-size="41" transform="matrix(1 0 0 1 4430.25 1853)">100000</text></g><g clip-path="url(#clip32)"><text fill="#595959" font-family="Calibri,Calibri_MSFontService,sans-serif" font-weight="400" font-size="46" transform="matrix(6.12323e-17 -1 1 6.12323e-17 2460.31 1480)">Temps [ms]</text></g><g clip-path="url(#clip33)"><text fill="#595959" font-family="Calibri,Calibri_MSFontService,sans-serif" font-weight="400" font-size="46" transform="matrix(1 0 0 1 3448.45 1923)">Nombre de valeurs</text></g><g clip-path="url(#clip34)"><text fill="#595959" font-family="Calibri,Calibri_MSFontService,sans-serif" font-weight="400" font-size="64" transform="matrix(1 0 0 1 3326.71 880)">Vecteurs Croissants</text></g><g clip-path="url(#clip35)"><path d="M2951.5 2030.5 3039.5 2030.5" stroke="#4472C4" stroke-width="6.875" stroke-linecap="round" stroke-linejoin="round" stroke-miterlimit="10" fill="none" fill-rule="evenodd"/></g><g clip-path="url(#clip36)"><path d="M3006 2030C3006 2036.07 3001.07 2041 2995 2041 2988.93 2041 2984 2036.07 2984 2030 2984 2023.92 2988.93 2019 2995 2019 3001.07 2019 3006 2023.92 3006 2030Z" stroke="#4472C4" stroke-width="3.4375" stroke-linejoin="round" stroke-miterlimit="10" fill="#4472C4"/></g><g clip-path="url(#clip37)"><text fill="#595959" font-family="Calibri,Calibri_MSFontService,sans-serif" font-weight="400" font-size="41" transform="matrix(1 0 0 1 3048.48 2042)">Tri rapide</text></g><g clip-path="url(#clip38)"><path d="M3379.5 2030.5 3467.5 2030.5" stroke="#ED7D31" stroke-width="6.875" stroke-linecap="round" stroke-linejoin="round" stroke-miterlimit="10" fill="none" fill-rule="evenodd"/></g><g clip-path="url(#clip39)"><path d="M3434 2030C3434 2036.07 3429.07 2041 3423 2041 3416.92 2041 3412 2036.07 3412 2030 3412 2023.92 3416.92 2019 3423 2019 3429.07 2019 3434 2023.92 3434 2030Z" stroke="#ED7D31" stroke-width="3.4375" stroke-linejoin="round" stroke-miterlimit="10" fill="#ED7D31"/></g><g clip-path="url(#clip40)"><text fill="#595959" font-family="Calibri,Calibri_MSFontService,sans-serif" font-weight="400" font-size="41" transform="matrix(1 0 0 1 3476.56 2042)">Tri par base 1 bit</text></g><g clip-path="url(#clip41)"><path d="M3807.5 2030.5 3895.5 2030.5" stroke="#A5A5A5" stroke-width="6.875" stroke-linecap="round" stroke-linejoin="round" stroke-miterlimit="10" fill="none" fill-rule="evenodd"/></g><g clip-path="url(#clip42)"><path d="M3862 2030C3862 2036.07 3857.07 2041 3851 2041 3844.92 2041 3840 2036.07 3840 2030 3840 2023.92 3844.92 2019 3851 2019 3857.07 2019 3862 2023.92 3862 2030Z" stroke="#A5A5A5" stroke-width="3.4375" stroke-linejoin="round" stroke-miterlimit="10" fill="#A5A5A5"/></g><g clip-path="url(#clip43)"><text fill="#595959" font-family="Calibri,Calibri_MSFontService,sans-serif" font-weight="400" font-size="41" transform="matrix(1 0 0 1 3904.65 2042)">Tri par base 2 bits</text></g><g clip-path="url(#clip44)"><path d="M2951.5 2107.5 3039.5 2107.5" stroke="#FFC000" stroke-width="6.875" stroke-linecap="round" stroke-linejoin="round" stroke-miterlimit="10" fill="none" fill-rule="evenodd"/></g><g clip-path="url(#clip45)"><path d="M3006 2107C3006 2113.07 3001.07 2118 2995 2118 2988.93 2118 2984 2113.07 2984 2107 2984 2100.92 2988.93 2096 2995 2096 3001.07 2096 3006 2100.92 3006 2107Z" stroke="#FFC000" stroke-width="3.4375" stroke-linejoin="round" stroke-miterlimit="10" fill="#FFC000"/></g><g clip-path="url(#clip46)"><text fill="#595959" font-family="Calibri,Calibri_MSFontService,sans-serif" font-weight="400" font-size="41" transform="matrix(1 0 0 1 3048.48 2119)">Tri par base 4 bits</text></g><g clip-path="url(#clip47)"><path d="M3379.5 2107.5 3467.5 2107.5" stroke="#5B9BD5" stroke-width="6.875" stroke-linecap="round" stroke-linejoin="round" stroke-miterlimit="10" fill="none" fill-rule="evenodd"/></g><g clip-path="url(#clip48)"><path d="M3434 2107C3434 2113.07 3429.07 2118 3423 2118 3416.92 2118 3412 2113.07 3412 2107 3412 2100.92 3416.92 2096 3423 2096 3429.07 2096 3434 2100.92 3434 2107Z" stroke="#5B9BD5" stroke-width="3.4375" stroke-linejoin="round" stroke-miterlimit="10" fill="#5B9BD5"/></g><g clip-path="url(#clip49)"><text fill="#595959" font-family="Calibri,Calibri_MSFontService,sans-serif" font-weight="400" font-size="41" transform="matrix(1 0 0 1 3476.56 2119)">Tri par base 8 bits</text></g><g clip-path="url(#clip50)"><path d="M3807.5 2107.5 3895.5 2107.5" stroke="#70AD47" stroke-width="6.875" stroke-linecap="round" stroke-linejoin="round" stroke-miterlimit="10" fill="none" fill-rule="evenodd"/></g><g clip-path="url(#clip51)"><path d="M3862 2107C3862 2113.07 3857.07 2118 3851 2118 3844.92 2118 3840 2113.07 3840 2107 3840 2100.92 3844.92 2096 3851 2096 3857.07 2096 3862 2100.92 3862 2107Z" stroke="#70AD47" stroke-width="3.4375" stroke-linejoin="round" stroke-miterlimit="10" fill="#70AD47"/></g><g clip-path="url(#clip52)"><text fill="#595959" font-family="Calibri,Calibri_MSFontService,sans-serif" font-weight="400" font-size="41" transform="matrix(1 0 0 1 3904.65 2119)">Tri par base 16 bits</text></g><rect x="2359.5" y="785.5" width="2440" height="1382" stroke="#D9D9D9" stroke-width="3.4375" stroke-linejoin="round" stroke-miterlimit="10" fill="none"/></g></svg>